STARTFONT 2.1
COMMENT
COMMENT Converted from OpenType font "NimbusSans-Regular.otf" by "otf2bdf 3.0".
COMMENT
FONT -FreeType-Nimbus Sans-Medium-R-Normal--53-380-100-100-P-275-ISO10646-1
SIZE 38 100 100
FONTBOUNDINGBOX 65 72 -11 -16
STARTPROPERTIES 19
FOUNDRY "FreeType"
FAMILY_NAME "Nimbus Sans"
WEIGHT_NAME "Medium"
SLANT "R"
SETWIDTH_NAME "Normal"
ADD_STYLE_NAME ""
PIXEL_SIZE 53
POINT_SIZE 380
RESOLUTION_X 100
RESOLUTION_Y 100
SPACING "P"
AVERAGE_WIDTH 275
CHARSET_REGISTRY "ISO10646"
CHARSET_ENCODING "1"
FONT_ASCENT 38
FONT_DESCENT 14
COPYRIGHT "(URW)++,Copyright 2014 by (URW)++ Design & Development"
_OTF_FONTFILE "NimbusSans-Regular.otf"
_OTF_PSNAME "NimbusSans-Regular"
ENDPROPERTIES
CHARS 854
STARTCHAR 0020
ENCODING 32
SWIDTH 284 0
DWIDTH 15 0
BBX 0 0 0 0
BITMAP
ENDCHAR
STARTCHAR 0021
ENCODING 33
SWIDTH 284 0
DWIDTH 15 0
BBX 4 38 7 0
BITMAP
F0
F0
F0
F0
F0
F0
F0
F0
F0
F0
F0
F0
F0
F0
F0
F0
F0
F0
F0
F0
F0
F0
E0
E0
E0
E0
E0
60
60
00
00
00
00
F0
F0
F0
F0
F0
ENDCHAR
STARTCHAR 0022
ENCODING 34
SWIDTH 360 0
DWIDTH 19 0
BBX 13 13 3 24
BITMAP
F8F8
F8F8
F8F8
F8F8
F8F8
F8F8
F0F8
F078
F070
7070
7070
6070
6030
ENDCHAR
STARTCHAR 0023
ENCODING 35
SWIDTH 549 0
DWIDTH 29 0
BBX 28 38 1 -1
BITMAP
003C0F80
003C0F00
003C0F00
00780F00
00780F00
00780F00
00781E00
00781E00
00F01E00
00F01E00
3FFFFFF0
3FFFFFF0
3FFFFFF0
3FFFFFF0
01E03C00
01E03C00
01E03C00
01E07800
01E07800
03C07800
03C07800
03C07800
03C07800
FFFFFFC0
FFFFFFC0
FFFFFFC0
FFFFFFC0
0780F000
0781E000
0781E000
0F01E000
0F01E000
0F01E000
0F03E000
0F03C000
0F03C000
1E03C000
1E03C000
ENDCHAR
STARTCHAR 0024
ENCODING 36
SWIDTH 549 0
DWIDTH 29 0
BBX 26 48 2 -7
BITMAP
001C0000
001C0000
001C0000
003F0000
01FFE000
07FFF800
0FFFFC00
1F9C7E00
3E1C3E00
3C1C1F00
7C1C0F00
781C0F00
781C0F80
781C0F80
781C0000
781C0000
7C1C0000
7E1C0000
3F1C0000
1FFC0000
1FFF0000
0FFFE000
03FFF800
007FFE00
001FFF00
001C7F00
001C1F80
001C0F80
001C07C0
001C07C0
F01C07C0
F01C07C0
F81C07C0
F81C0780
781C0780
7C1C0F80
7E1C1F00
3F1C3F00
1FFDFE00
0FFFFC00
07FFF800
01FFC000
001C0000
001C0000
001C0000
001C0000
001C0000
001C0000
ENDCHAR
STARTCHAR 0025
ENCODING 37
SWIDTH 890 0
DWIDTH 47 0
BBX 43 38 2 -1
BITMAP
000000038000
03F000078000
0FFC00070000
3FFE000F0000
7FFF000E0000
7C1F001C0000
F007803C0000
F00780380000
E00380780000
E003C0700000
E003C0F00000
F00380E00000
F00781E00000
F80F81C00000
7C1F03C00000
3FFE03800000
1FFC07000000
0FF80F000000
01C00E000000
00001E000000
00001C01F800
00003C07FE00
0000380FFF80
0000781FFFC0
0000701E07C0
0000F03C03E0
0000E03C01E0
0001C07801E0
0003C07800E0
0003807800E0
0007807800E0
0007003C01E0
000F003C03E0
000E001F07C0
001E001FFF80
001C000FFF80
003C0007FE00
00380001F800
ENDCHAR
STARTCHAR 0026
ENCODING 38
SWIDTH 663 0
DWIDTH 35 0
BBX 30 38 3 -1
BITMAP
003F0000
00FFC000
01FFE000
03FFF000
07C0F800
07807800
0F807C00
0F007C00
0F007C00
0F807C00
0F807800
07C0F800
07C1F000
03E3F000
01FFE000
01FF8000
00FF0000
01FE0000
07FE0000
0FDF0100
1F0F81E0
3E07C1E0
7C07E1E0
7803F3E0
F801F3C0
F000FFC0
F0007FC0
F0007F80
F0003F80
F8001F00
F8003F80
FC007FC0
7E00FFE0
7F83FBF0
3FFFF1F8
1FFFC0F8
0FFF80FC
01FC0000
ENDCHAR
STARTCHAR 0027
ENCODING 39
SWIDTH 189 0
DWIDTH 10 0
BBX 4 13 3 24
BITMAP
F0
F0
F0
F0
F0
F0
F0
F0
F0
F0
60
60
60
ENDCHAR
STARTCHAR 0028
ENCODING 40
SWIDTH 341 0
DWIDTH 18 0
BBX 11 50 4 -12
BITMAP
00E0
01C0
01C0
0380
0380
0700
0F00
0F00
0E00
1E00
1E00
3C00
3C00
3C00
7800
7800
7800
7800
F800
F000
F000
F000
F000
F000
F000
F000
F000
F000
F000
F000
F800
7800
7800
7800
7800
7C00
3C00
3C00
3C00
1E00
1E00
0E00
0F00
0700
0780
0380
03C0
01C0
00E0
00E0
ENDCHAR
STARTCHAR 0029
ENCODING 41
SWIDTH 341 0
DWIDTH 18 0
BBX 12 50 2 -12
BITMAP
E000
7000
7800
3800
3C00
1C00
1E00
0E00
0F00
0700
0780
0780
0780
03C0
03C0
03C0
03E0
01E0
01E0
01E0
01E0
01E0
01E0
01F0
01F0
01F0
01E0
01E0
01E0
01E0
01E0
01E0
01E0
03C0
03C0
03C0
03C0
0780
0780
0780
0F00
0F00
0E00
1E00
1C00
3C00
3800
7000
7000
E000
ENDCHAR
STARTCHAR 002A
ENCODING 42
SWIDTH 397 0
DWIDTH 21 0
BBX 16 15 2 23
BITMAP
03C0
03C0
01C0
01C0
61C6
7DDF
FFFF
3FFC
07E0
07E0
0FF0
0E78
1E38
3C3C
0810
ENDCHAR
STARTCHAR 002B
ENCODING 43
SWIDTH 587 0
DWIDTH 31 0
BBX 25 26 3 -1
BITMAP
001C0000
001C0000
001C0000
001C0000
001C0000
001C0000
001C0000
001C0000
001C0000
001C0000
001C0000
FFFFFF80
FFFFFF80
FFFFFF80
FFFFFF80
001C0000
001C0000
001C0000
001C0000
001C0000
001C0000
001C0000
001C0000
001C0000
001C0000
001C0000
ENDCHAR
STARTCHAR 002C
ENCODING 44
SWIDTH 284 0
DWIDTH 15 0
BBX 5 13 5 -8
BITMAP
F8
F8
F8
F8
F8
18
18
18
18
38
70
E0
80
ENDCHAR
STARTCHAR 002D
ENCODING 45
SWIDTH 341 0
DWIDTH 18 0
BBX 13 4 2 13
BITMAP
FFF8
FFF8
FFF8
FFF8
ENDCHAR
STARTCHAR 002E
ENCODING 46
SWIDTH 284 0
DWIDTH 15 0
BBX 5 5 5 0
BITMAP
F8
F8
F8
F8
F8
ENDCHAR
STARTCHAR 002F
ENCODING 47
SWIDTH 284 0
DWIDTH 15 0
BBX 15 39 0 -1
BITMAP
000E
000C
001C
001C
001C
0038
0038
0038
0070
0070
0070
00E0
00E0
00E0
01C0
01C0
01C0
0380
0380
0380
0300
0700
0700
0600
0E00
0E00
0C00
1C00
1C00
1C00
3800
3800
3800
7000
7000
7000
E000
E000
E000
ENDCHAR
STARTCHAR 0030
ENCODING 48
SWIDTH 549 0
DWIDTH 29 0
BBX 25 39 2 -1
BITMAP
007F0000
01FFC000
03FFF000
07FFF800
0FC1F800
1F80FC00
1F007E00
3E003E00
3E003E00
7C001F00
7C001F00
7C001F00
7C000F00
78000F00
78000F80
F8000F80
F8000F80
F8000F80
F8000F80
F8000F80
F8000F80
F8000F80
F8000F80
F8000F80
78000F80
78000F00
7C000F00
7C001F00
7C001F00
7C001F00
3E001E00
3E003E00
1F003C00
1F007C00
0FC1F800
0FFFF800
07FFF000
01FFC000
007F0000
ENDCHAR
STARTCHAR 0031
ENCODING 49
SWIDTH 549 0
DWIDTH 29 0
BBX 13 38 5 0
BITMAP
0038
0038
0078
0078
00F8
01F8
07F8
FFF8
FFF8
FFF8
FFF8
0078
0078
0078
0078
0078
0078
0078
0078
0078
0078
0078
0078
0078
0078
0078
0078
0078
0078
0078
0078
0078
0078
0078
0078
0078
0078
0078
ENDCHAR
STARTCHAR 0032
ENCODING 50
SWIDTH 549 0
DWIDTH 29 0
BBX 25 38 2 0
BITMAP
007F8000
03FFF000
07FFF800
0FFFFC00
1FC1FE00
3F007F00
3E003F00
7E001F00
7C000F80
7C000F80
7C000F80
78000F80
78000F80
00000F80
00000F00
00001F00
00003F00
00007E00
0000FC00
0003F800
000FF000
001FE000
007F8000
01FE0000
03FC0000
07F00000
0FC00000
1F800000
3F000000
3E000000
7C000000
7C000000
78000000
FFFFFF80
FFFFFF80
FFFFFF80
FFFFFF80
FFFFFF80
ENDCHAR
STARTCHAR 0033
ENCODING 51
SWIDTH 549 0
DWIDTH 29 0
BBX 25 39 2 -1
BITMAP
00FF0000
03FFE000
0FFFF000
1FFFF800
1F81FC00
3F007E00
3E003E00
7C003E00
7C001E00
78001F00
78001F00
78001F00
00001E00
00003E00
00003E00
0000FC00
003FF800
003FF000
003FE000
003FF800
0007FC00
00007E00
00003F00
00001F00
00000F80
00000F80
00000F80
F0000F80
F8000F80
F8000F80
F8001F00
FC001F00
7C003F00
7E007E00
3F81FC00
1FFFFC00
0FFFF000
07FFE000
00FF0000
ENDCHAR
STARTCHAR 0034
ENCODING 52
SWIDTH 549 0
DWIDTH 29 0
BBX 26 38 1 0
BITMAP
00007800
0000F800
0000F800
0001F800
0003F800
0003F800
0007F800
000FF800
000FF800
001EF800
003EF800
007CF800
0078F800
00F0F800
01F0F800
01E0F800
03C0F800
07C0F800
0F80F800
0F00F800
1F00F800
3E00F800
3C00F800
7800F800
F800F800
FFFFFFC0
FFFFFFC0
FFFFFFC0
FFFFFFC0
0000F800
0000F800
0000F800
0000F800
0000F800
0000F800
0000F800
0000F800
0000F800
ENDCHAR
STARTCHAR 0035
ENCODING 53
SWIDTH 549 0
DWIDTH 29 0
BBX 25 38 2 -1
BITMAP
0FFFFE00
0FFFFE00
1FFFFE00
1FFFFE00
1FFFFE00
1E000000
1E000000
1E000000
1E000000
3E000000
3E000000
3E000000
3C000000
3C7F8000
3DFFE000
3FFFF800
3FFFFC00
7F81FE00
7E007E00
7C003F00
00001F00
00000F80
00000F80
00000F80
00000F80
00000F80
00000F80
00000F80
F8000F80
F8000F00
7C001F00
7C003F00
7E007E00
3F81FC00
1FFFF800
0FFFF000
03FFE000
00FF0000
ENDCHAR
STARTCHAR 0036
ENCODING 54
SWIDTH 549 0
DWIDTH 29 0
BBX 25 39 2 -1
BITMAP
003F8000
00FFE000
03FFF800
07FFFC00
0FE1FC00
0F807E00
1F003E00
1F001F00
3E001F00
3E000F00
7C000000
7C000000
7C000000
78000000
78000000
783FC000
F8FFF000
FBFFF800
FFFFFC00
FFC0FE00
FF003F00
FE001F00
FC001F00
FC000F80
FC000F80
F8000F80
78000F80
78000F80
78000F80
7C000F80
3C000F80
3E001F00
3E003F00
1F807E00
0FE1FC00
0FFFFC00
07FFF000
01FFE000
007F0000
ENDCHAR
STARTCHAR 0037
ENCODING 55
SWIDTH 549 0
DWIDTH 29 0
BBX 25 37 2 0
BITMAP
FFFFFF80
FFFFFF80
FFFFFF80
FFFFFF80
FFFFFF80
00000F00
00001F00
00001E00
00003C00
00007800
00007800
0000F000
0001F000
0001E000
0003C000
0003C000
00078000
000F8000
000F0000
001F0000
001E0000
003E0000
003C0000
003C0000
007C0000
00780000
00F80000
00F80000
00F00000
01F00000
01F00000
01E00000
03E00000
03E00000
03E00000
03E00000
07C00000
ENDCHAR
STARTCHAR 0038
ENCODING 56
SWIDTH 549 0
DWIDTH 29 0
BBX 25 39 2 -1
BITMAP
007F0000
03FFE000
07FFF000
0FFFF800
1FC1FC00
3F007E00
3E003E00
3E003E00
7C001F00
7C001F00
7C001F00
7C001F00
3C001F00
3E003E00
3F007E00
1F80FC00
0FFFF800
03FFE000
07FFF000
0FFFF800
1F81FC00
3E007E00
7C001F00
7C001F00
F8000F80
F8000F80
F8000F80
F8000F80
F8000F80
F8000F80
F8000F80
7C001F00
7E001F00
3F007E00
3FC1FE00
1FFFFC00
0FFFF800
03FFE000
00FF0000
ENDCHAR
STARTCHAR 0039
ENCODING 57
SWIDTH 549 0
DWIDTH 29 0
BBX 25 39 2 -1
BITMAP
007F0000
03FFC000
07FFF000
0FFFF800
1FC1FC00
3F007C00
7E003E00
7C003E00
78001F00
F8001F00
F8000F00
F8000F00
F8000F80
F8000F80
F8000F80
F8001F80
7C001F80
7C003F80
3E007F80
3F81FF80
1FFFFF80
0FFFEF80
07FF8F80
00FE0F80
00000F80
00000F00
00001F00
00001F00
00001F00
7C001E00
7C003E00
7C003E00
3E007C00
3F00FC00
1FC3F800
1FFFF000
0FFFE000
03FF8000
00FE0000
ENDCHAR
STARTCHAR 003A
ENCODING 58
SWIDTH 284 0
DWIDTH 15 0
BBX 5 28 6 0
BITMAP
F8
F8
F8
F8
F8
F8
00
00
00
00
00
00
00
00
00
00
00
00
00
00
00
00
00
F8
F8
F8
F8
F8
ENDCHAR
STARTCHAR 003B
ENCODING 59
SWIDTH 284 0
DWIDTH 15 0
BBX 5 36 6 -8
BITMAP
F8
F8
F8
F8
F8
F8
00
00
00
00
00
00
00
00
00
00
00
00
00
00
00
00
00
F8
F8
F8
F8
F8
18
18
18
18
38
70
E0
C0
ENDCHAR
STARTCHAR 003C
ENCODING 60
SWIDTH 587 0
DWIDTH 31 0
BBX 26 25 2 -1
BITMAP
000000C0
000007C0
00001FC0
00007FC0
0003FF00
000FFC00
003FE000
01FF8000
07FC0000
1FF00000
FFC00000
FE000000
FC000000
FF800000
7FE00000
0FF80000
03FF0000
00FFC000
001FF800
0007FE00
0000FF80
00003FC0
00000FC0
000001C0
00000040
ENDCHAR
STARTCHAR 003D
ENCODING 61
SWIDTH 587 0
DWIDTH 31 0
BBX 25 13 3 6
BITMAP
FFFFFF80
FFFFFF80
FFFFFF80
FFFFFF80
00000000
00000000
00000000
00000000
00000000
FFFFFF80
FFFFFF80
FFFFFF80
FFFFFF80
ENDCHAR
STARTCHAR 003E
ENCODING 62
SWIDTH 587 0
DWIDTH 31 0
BBX 25 25 3 -1
BITMAP
C0000000
F0000000
FE000000
FF800000
3FE00000
0FFC0000
03FF0000
007FE000
001FF800
0003FE00
0000FF80
00003F80
00000F80
00003F80
0001FF00
0007FC00
003FF000
00FF8000
07FE0000
1FF80000
FFC00000
FF000000
FC000000
E0000000
80000000
ENDCHAR
STARTCHAR 003F
ENCODING 63
SWIDTH 549 0
DWIDTH 29 0
BBX 23 39 4 0
BITMAP
00FF00
07FFC0
0FFFF0
1FFFF8
3F83F8
7E00FC
7C007C
78003E
F8003E
F8003E
F8003E
F8003E
00003E
00007C
00007C
0000F8
0001F8
0003F0
0007E0
000FC0
001F80
003F00
007E00
007C00
007C00
007800
007800
007800
007800
000000
000000
000000
000000
000000
007800
007800
007800
007800
007800
ENDCHAR
STARTCHAR 0040
ENCODING 64
SWIDTH 1023 0
DWIDTH 54 0
BBX 48 46 2 -7
BITMAP
000007FE0000
00007FFFC000
0001FFFFF800
0007FFFFFE00
001FF807FF00
003FC000FF80
007F00001FC0
01FC00000FE0
01F0000003F0
03E0000001F8
07C0000000FC
0F800000007C
0F8007F8007E
1F001FFC783E
3E003FFE783E
3E007E1FF81F
3C00F807F01F
7C01F003F01F
7803E003F01F
7803E003E00F
F807C003E00F
F807C003E00F
F00F8003C01F
F00F8003C01F
F00F8007C01E
F00F8007801E
F00F8007803E
F80F800F803C
F80F800F007C
F80F801F00F8
7807C03F01F0
7C07E07F83E0
7C03F9FFFFE0
3E01FFEFFF80
3F00FF87FF00
1F003E01F800
1F8000000000
0FE000000000
07F000000000
03FC00000000
01FF00000000
007FE007E000
003FFFFFE000
000FFFFFF000
0003FFFFC000
00003FFC0000
ENDCHAR
STARTCHAR 0041
ENCODING 65
SWIDTH 663 0
DWIDTH 35 0
BBX 33 38 1 0
BITMAP
0007F00000
0007F80000
0007F80000
000FF80000
000FFC0000
000FFC0000
001F7C0000
001F7E0000
001F3E0000
003E3E0000
003E3F0000
007C1F0000
007C1F0000
007C1F8000
00F80F8000
00F80F8000
00F80FC000
01F007C000
01F007E000
01F007E000
03E003E000
03E003F000
07E003F000
07FFFFF000
07FFFFF800
0FFFFFF800
0FFFFFF800
0F8000FC00
1F80007C00
1F00007C00
1F00007E00
3F00003E00
3E00003F00
3E00003F00
7C00001F00
7C00001F80
FC00001F80
F800000F80
ENDCHAR
STARTCHAR 0042
ENCODING 66
SWIDTH 663 0
DWIDTH 35 0
BBX 29 38 4 0
BITMAP
FFFFF000
FFFFFE00
FFFFFF00
FFFFFF80
F800FFC0
F8000FC0
F80007E0
F80003E0
F80003E0
F80003E0
F80003E0
F80003E0
F80003E0
F80003E0
F80007C0
F8000F80
F8007F80
FFFFFE00
FFFFFE00
FFFFFF80
FFFFFFC0
F8000FE0
F80003F0
F80001F0
F80001F8
F80000F8
F80000F8
F80000F8
F80000F8
F80000F8
F80001F0
F80001F0
F80003F0
F8003FE0
FFFFFFC0
FFFFFF80
FFFFFF00
FFFFF800
ENDCHAR
STARTCHAR 0043
ENCODING 67
SWIDTH 720 0
DWIDTH 38 0
BBX 33 40 3 -1
BITMAP
0007FC0000
003FFF8000
00FFFFC000
03FFFFF000
07FE1FF800
0FE003F800
0FC000FC00
1F80007C00
3F00003E00
3E00003E00
7C00003F00
7C00001F00
7C00000000
F800000000
F800000000
F800000000
F800000000
F800000000
F800000000
F000000000
F000000000
F800000000
F800000000
F800000000
F800000000
F800000F80
F800001F80
7C00001F00
7C00001F00
7E00001F00
3E00003E00
3F00003E00
1F80007E00
1FC000FC00
0FF003F800
07FE1FF800
03FFFFF000
01FFFFC000
007FFF0000
000FF80000
ENDCHAR
STARTCHAR 0044
ENCODING 68
SWIDTH 720 0
DWIDTH 38 0
BBX 30 38 5 0
BITMAP
FFFFE000
FFFFFC00
FFFFFE00
FFFFFF80
F800FFC0
F8001FC0
F80007E0
F80003F0
F80001F0
F80001F8
F80000F8
F80000F8
F80000FC
F800007C
F800007C
F800007C
F800007C
F800007C
F800007C
F800007C
F800007C
F800007C
F800007C
F800007C
F800007C
F800007C
F80000F8
F80000F8
F80001F8
F80001F0
F80003F0
F80007E0
F8001FC0
F800FFC0
FFFFFF00
FFFFFE00
FFFFF800
FFFFE000
ENDCHAR
STARTCHAR 0045
ENCODING 69
SWIDTH 663 0
DWIDTH 35 0
BBX 27 38 5 0
BITMAP
FFFFFFC0
FFFFFFC0
FFFFFFC0
FFFFFFC0
F8000000
F8000000
F8000000
F8000000
F8000000
F8000000
F8000000
F8000000
F8000000
F8000000
F8000000
F8000000
F8000000
FFFFFFC0
FFFFFFC0
FFFFFFC0
FFFFFFC0
F8000000
F8000000
F8000000
F8000000
F8000000
F8000000
F8000000
F8000000
F8000000
F8000000
F8000000
F8000000
F8000000
FFFFFFE0
FFFFFFE0
FFFFFFE0
FFFFFFE0
ENDCHAR
STARTCHAR 0046
ENCODING 70
SWIDTH 606 0
DWIDTH 32 0
BBX 26 38 5 0
BITMAP
FFFFFFC0
FFFFFFC0
FFFFFFC0
FFFFFFC0
F8000000
F8000000
F8000000
F8000000
F8000000
F8000000
F8000000
F8000000
F8000000
F8000000
F8000000
F8000000
F8000000
FFFFFE00
FFFFFE00
FFFFFE00
FFFFFE00
F8000000
F8000000
F8000000
F8000000
F8000000
F8000000
F8000000
F8000000
F8000000
F8000000
F8000000
F8000000
F8000000
F8000000
F8000000
F8000000
F8000000
ENDCHAR
STARTCHAR 0047
ENCODING 71
SWIDTH 776 0
DWIDTH 41 0
BBX 35 40 2 -1
BITMAP
0003FF0000
001FFFE000
007FFFF800
00FFFFFC00
03FF87FE00
07F800FF00
07E0003F80
0FC0001F80
1F80000FC0
1F000007C0
3F000007E0
3E000003E0
3E00000000
7C00000000
7C00000000
7C00000000
7800000000
F800000000
F800000000
F8001FFFE0
F8001FFFE0
F8001FFFE0
F8001FFFE0
7C000001E0
7C000001E0
7C000001E0
7C000001E0
7E000001E0
3E000003E0
3F000003E0
1F000007E0
1F800007E0
0FC0000FE0
0FE0003FE0
07F8007FE0
03FF87F9E0
01FFFFF0E0
007FFFE0E0
001FFF80E0
0003FC0000
ENDCHAR
STARTCHAR 0048
ENCODING 72
SWIDTH 720 0
DWIDTH 38 0
BBX 30 38 4 0
BITMAP
F800007C
F800007C
F800007C
F800007C
F800007C
F800007C
F800007C
F800007C
F800007C
F800007C
F800007C
F800007C
F800007C
F800007C
F800007C
F800007C
F800007C
FFFFFFFC
FFFFFFFC
FFFFFFFC
FFFFFFFC
F800007C
F800007C
F800007C
F800007C
F800007C
F800007C
F800007C
F800007C
F800007C
F800007C
F800007C
F800007C
F800007C
F800007C
F800007C
F800007C
F800007C
ENDCHAR
STARTCHAR 0049
ENCODING 73
SWIDTH 284 0
DWIDTH 15 0
BBX 5 38 5 0
BITMAP
F8
F8
F8
F8
F8
F8
F8
F8
F8
F8
F8
F8
F8
F8
F8
F8
F8
F8
F8
F8
F8
F8
F8
F8
F8
F8
F8
F8
F8
F8
F8
F8
F8
F8
F8
F8
F8
F8
ENDCHAR
STARTCHAR 004A
ENCODING 74
SWIDTH 492 0
DWIDTH 26 0
BBX 21 39 1 -1
BITMAP
000078
000078
000078
000078
000078
000078
000078
000078
000078
000078
000078
000078
000078
000078
000078
000078
000078
000078
000078
000078
000078
000078
000078
000078
000078
000078
F80078
F80078
F80078
F800F8
F800F8
FC00F8
FC01F8
7E01F0
7F87F0
3FFFE0
1FFFC0
0FFF80
01FC00
ENDCHAR
STARTCHAR 004B
ENCODING 75
SWIDTH 663 0
DWIDTH 35 0
BBX 30 38 4 0
BITMAP
F80000FC
F80001F8
F80003F0
F80007E0
F8000FC0
F8001F80
F8003F00
F8007E00
F800FC00
F801F800
F803F000
F807E000
F80FC000
F81F8000
F83F0000
F87E0000
F8FF0000
F9FF0000
FBFF8000
FFCFC000
FF87C000
FF07E000
FE03F000
FC01F800
F801F800
F800FC00
F8007E00
F8003E00
F8003F00
F8001F80
F8000F80
F8000FC0
F80007E0
F80003F0
F80003F0
F80001F8
F80000FC
F800007C
ENDCHAR
STARTCHAR 004C
ENCODING 76
SWIDTH 549 0
DWIDTH 29 0
BBX 24 38 4 0
BITMAP
F80000
F80000
F80000
F80000
F80000
F80000
F80000
F80000
F80000
F80000
F80000
F80000
F80000
F80000
F80000
F80000
F80000
F80000
F80000
F80000
F80000
F80000
F80000
F80000
F80000
F80000
F80000
F80000
F80000
F80000
F80000
F80000
F80000
F80000
FFFFFF
FFFFFF
FFFFFF
FFFFFF
ENDCHAR
STARTCHAR 004D
ENCODING 77
SWIDTH 833 0
DWIDTH 44 0
BBX 36 38 4 0
BITMAP
FE000007F0
FE000007F0
FF00000FF0
FF00000FF0
FF00000FF0
FF80001FF0
FF80001EF0
FF80001EF0
FFC0003EF0
FBC0003CF0
FBC0003CF0
FBE0007CF0
F9E00078F0
F9E00078F0
F9F000F8F0
F8F000F0F0
F8F000F0F0
F8F801F0F0
F87801E0F0
F87801E0F0
F87C03E0F0
F83C03C0F0
F83E03C0F0
F81E07C0F0
F81E0780F0
F81F0780F0
F80F0F80F0
F80F0F00F0
F80F8F00F0
F8079F00F0
F8079E00F0
F807DE00F0
F803FE00F0
F803FC00F0
F803FC00F0
F801FC00F0
F801F800F0
F801F800F0
ENDCHAR
STARTCHAR 004E
ENCODING 78
SWIDTH 720 0
DWIDTH 38 0
BBX 30 38 4 0
BITMAP
FC00007C
FC00007C
FE00007C
FF00007C
FF00007C
FF80007C
FFC0007C
FFC0007C
FFE0007C
FBE0007C
F9F0007C
F9F8007C
F8F8007C
F87C007C
F87E007C
F83E007C
F81F007C
F81F807C
F80F807C
F807C07C
F807E07C
F803E07C
F801F07C
F801F87C
F800F87C
F800FC7C
F8007E7C
F8003E7C
F8003F7C
F8001F7C
F8000FFC
F8000FFC
F80007FC
F80003FC
F80003FC
F80001FC
F80000FC
F80000FC
ENDCHAR
STARTCHAR 004F
ENCODING 79
SWIDTH 776 0
DWIDTH 41 0
BBX 37 40 2 -1
BITMAP
0003FE0000
001FFFC000
007FFFF000
00FFFFFC00
03FF8FFE00
07F800FF00
0FE0003F80
0FC0001FC0
1F80000FC0
3F000007E0
3E000003E0
3E000003F0
7C000001F0
7C000001F0
7C000000F8
F8000000F8
F8000000F8
F8000000F8
F8000000F8
F8000000F8
F8000000F8
F8000000F8
F8000000F8
F8000000F8
F8000000F8
7C000000F8
7C000001F0
7C000001F0
7E000003F0
3E000003E0
3F000007E0
1F80000FC0
0FC0001FC0
0FE0003F80
07F800FF00
03FF87FE00
01FFFFFC00
007FFFF000
001FFFC000
0003FE0000
ENDCHAR
STARTCHAR 0050
ENCODING 80
SWIDTH 663 0
DWIDTH 35 0
BBX 28 38 5 0
BITMAP
FFFFF000
FFFFFE00
FFFFFF00
FFFFFF80
F800FFC0
F8000FC0
F80007E0
F80003E0
F80003E0
F80003F0
F80003F0
F80003F0
F80003F0
F80003E0
F80003E0
F80007E0
F8000FC0
F800FFC0
FFFFFF80
FFFFFF00
FFFFFE00
FFFFF000
F8000000
F8000000
F8000000
F8000000
F8000000
F8000000
F8000000
F8000000
F8000000
F8000000
F8000000
F8000000
F8000000
F8000000
F8000000
F8000000
ENDCHAR
STARTCHAR 0051
ENCODING 81
SWIDTH 776 0
DWIDTH 41 0
BBX 37 42 2 -3
BITMAP
0003FE0000
001FFFC000
007FFFF000
01FFFFFC00
03FF8FFE00
07F800FF00
0FE0003F80
0FC0001FC0
1F80000FC0
3F000007E0
3E000003E0
7E000003F0
7C000001F0
7C000001F0
7C000000F8
F8000000F8
F8000000F8
F8000000F8
F8000000F8
F8000000F8
F8000000F8
F8000000F8
F8000000F8
F8000000F8
F8000000F8
7C000000F8
7C000001F0
7C000001F0
7E000103F0
3E000383E0
3F0007C7E0
1F8003FFC0
0FC001FFC0
0FE000FF80
07F800FF00
03FF8FFF80
01FFFFFFC0
007FFFF7E0
001FFFC3F0
0003FE01F0
00000000E0
0000000020
ENDCHAR
STARTCHAR 0052
ENCODING 82
SWIDTH 720 0
DWIDTH 38 0
BBX 31 38 5 0
BITMAP
FFFFFC00
FFFFFF80
FFFFFFC0
FFFFFFE0
F8003FF0
F80003F0
F80001F8
F80000F8
F80000F8
F80000F8
F80000F8
F80000F8
F80000F8
F80000F8
F80000F8
F80001F0
F80003E0
F8003FC0
FFFFFF80
FFFFFE00
FFFFFF80
FFFFFFE0
F80007E0
F80003F0
F80001F0
F80001F0
F80000F0
F80000F0
F80000F8
F80000F8
F80000F8
F80000F8
F80000F8
F80000F8
F80000F8
F80000FC
F80000FC
F800007E
ENDCHAR
STARTCHAR 0053
ENCODING 83
SWIDTH 663 0
DWIDTH 35 0
BBX 30 40 3 -1
BITMAP
003FE000
01FFFC00
07FFFF00
0FFFFF80
1FE03FC0
3F800FE0
3E0003E0
7C0001F0
7C0001F0
7C0001F0
7C0000F0
7C0000F0
7C000000
7E000000
7F000000
3FC00000
3FF80000
1FFF8000
0FFFF800
03FFFF00
003FFFC0
0007FFE0
00007FF0
00000FF8
000003F8
000000F8
000000FC
F000007C
F000007C
F800007C
F800007C
FC0000F8
7C0000F8
7E0001F0
3F8007F0
1FF07FE0
0FFFFFC0
07FFFF80
01FFFE00
003FF000
ENDCHAR
STARTCHAR 0054
ENCODING 84
SWIDTH 606 0
DWIDTH 32 0
BBX 30 38 1 0
BITMAP
FFFFFFFC
FFFFFFFC
FFFFFFFC
FFFFFFFC
0007C000
0007C000
0007C000
0007C000
0007C000
0007C000
0007C000
0007C000
0007C000
0007C000
0007C000
0007C000
0007C000
0007C000
0007C000
0007C000
0007C000
0007C000
0007C000
0007C000
0007C000
0007C000
0007C000
0007C000
0007C000
0007C000
0007C000
0007C000
0007C000
0007C000
0007C000
0007C000
0007C000
0007C000
ENDCHAR
STARTCHAR 0055
ENCODING 85
SWIDTH 720 0
DWIDTH 38 0
BBX 30 39 4 -1
BITMAP
F800007C
F800007C
F800007C
F800007C
F800007C
F800007C
F800007C
F800007C
F800007C
F800007C
F800007C
F800007C
F800007C
F800007C
F800007C
F800007C
F800007C
F800007C
F800007C
F800007C
F800007C
F800007C
F800007C
F800007C
F800007C
F800007C
F800007C
7800007C
7C00007C
7C00007C
7C0000F8
7E0000F8
3F0001F8
1FC007F0
1FF83FE0
0FFFFFC0
03FFFF80
01FFFE00
003FF000
ENDCHAR
STARTCHAR 0056
ENCODING 86
SWIDTH 663 0
DWIDTH 35 0
BBX 32 38 2 0
BITMAP
F800001F
F800003F
FC00003E
7C00003E
7C00007C
3E00007C
3E00007C
3F0000F8
1F0000F8
1F0000F8
1F8001F0
0F8001F0
0F8001F0
0FC003E0
07C003E0
07C003E0
03E007C0
03E007C0
03E007C0
01F00F80
01F00F80
01F00F00
00F81F00
00F81F00
00F81E00
007C3E00
007C3E00
003E3C00
003E7C00
003E7C00
001F7800
001FF800
001FF800
000FF000
000FF000
000FF000
0007E000
0007E000
ENDCHAR
STARTCHAR 0057
ENCODING 87
SWIDTH 947 0
DWIDTH 50 0
BBX 48 38 1 0
BITMAP
FC0007E0003F
7C0007E0003F
7C0007E0003E
7C000FF0003E
7E000FF0003E
3E000FF0007E
3E000FF8007C
3E001FF8007C
3F001FF8007C
1F001E7800FC
1F001E7C00F8
1F003E7C00F8
1F803C3C00F8
0F803C3E01F8
0F807C3E01F0
0F807C3E01F0
0FC0781E01F0
07C0781F01F0
07C0F81F03E0
07C0F80F03E0
07C0F00F83E0
03E1F00F83E0
03E1F00F87C0
03E1E00787C0
03E1E007C7C0
01F3E007C780
01F3E003CF80
01F3C003EF80
00F3C003EF80
00FFC003EF00
00FF8001EF00
00FF8001FF00
007F8001FF00
007F8000FE00
007F0000FE00
007F0000FE00
003F0000FE00
003F00007C00
ENDCHAR
STARTCHAR 0058
ENCODING 88
SWIDTH 663 0
DWIDTH 35 0
BBX 33 38 1 0
BITMAP
7E00003F00
3F00003F00
1F80007E00
1F8000FC00
0FC000F800
07E001F800
07E003F000
03F003E000
01F807E000
00F80FC000
00FC0F8000
007E1F8000
003E3F0000
003F3E0000
001FFC0000
000FFC0000
000FF80000
0007F00000
0003F00000
0007F00000
000FF80000
000FFC0000
001F7C0000
003F3E0000
003E3F0000
007C1F8000
00FC0F8000
01F80FC000
01F007E000
03F003E000
07E003F000
07C001F800
0FC000F800
1F8000FC00
1F00007E00
3F00003F00
7E00003F00
FC00001F80
ENDCHAR
STARTCHAR 0059
ENCODING 89
SWIDTH 663 0
DWIDTH 35 0
BBX 34 38 1 0
BITMAP
FC00000FC0
7E00001F80
7E00001F00
3F00003F00
1F80007E00
1F80007C00
0FC000FC00
0FC000F800
07E001F800
03F003F000
03F003E000
01F807E000
00F807C000
00FC0F8000
007E1F8000
003E1F0000
003F3F0000
001F3E0000
000FFC0000
000FFC0000
0007F80000
0007F00000
0003F00000
0001E00000
0001E00000
0001E00000
0001E00000
0001E00000
0001E00000
0001E00000
0001E00000
0001E00000
0001E00000
0001E00000
0001E00000
0001E00000
0001E00000
0001E00000
ENDCHAR
STARTCHAR 005A
ENCODING 90
SWIDTH 606 0
DWIDTH 32 0
BBX 30 38 1 0
BITMAP
3FFFFFFC
3FFFFFFC
3FFFFFFC
3FFFFFFC
000001FC
000001F8
000003F0
000007E0
00000FC0
00000FC0
00001F80
00003F00
00007E00
0000FE00
0000FC00
0001F800
0003F000
0007E000
000FE000
000FC000
001F8000
003F0000
007E0000
00FE0000
00FC0000
01F80000
03F00000
07F00000
07E00000
0FC00000
1F800000
3F000000
7F000000
7E000000
FFFFFFFC
FFFFFFFC
FFFFFFFC
FFFFFFFC
ENDCHAR
STARTCHAR 005B
ENCODING 91
SWIDTH 284 0
DWIDTH 15 0
BBX 10 49 3 -11
BITMAP
FFC0
FFC0
FFC0
FFC0
F800
F800
F800
F800
F800
F800
F800
F800
F800
F800
F800
F800
F800
F800
F800
F800
F800
F800
F800
F800
F800
F800
F800
F800
F800
F800
F800
F800
F800
F800
F800
F800
F800
F800
F800
F800
F800
F800
F800
F800
F800
FFC0
FFC0
FFC0
FFC0
ENDCHAR
STARTCHAR 005C
ENCODING 92
SWIDTH 284 0
DWIDTH 15 0
BBX 15 39 0 -1
BITMAP
E000
E000
E000
7000
7000
7000
3800
3800
3800
1C00
1C00
1C00
0C00
0E00
0E00
0600
0700
0700
0700
0380
0380
0380
01C0
01C0
01C0
00E0
00E0
00E0
0070
0070
0070
0038
0038
0038
001C
001C
001C
000E
000E
ENDCHAR
STARTCHAR 005D
ENCODING 93
SWIDTH 284 0
DWIDTH 15 0
BBX 10 49 1 -11
BITMAP
FFC0
FFC0
FFC0
FFC0
03C0
03C0
03C0
03C0
03C0
03C0
03C0
03C0
03C0
03C0
03C0
03C0
03C0
03C0
03C0
03C0
03C0
03C0
03C0
03C0
03C0
03C0
03C0
03C0
03C0
03C0
03C0
03C0
03C0
03C0
03C0
03C0
03C0
03C0
03C0
03C0
03C0
03C0
03C0
03C0
03C0
FFC0
FFC0
FFC0
FFC0
ENDCHAR
STARTCHAR 005E
ENCODING 94
SWIDTH 473 0
DWIDTH 25 0
BBX 20 20 2 17
BITMAP
00F800
00F800
01F800
01FC00
03DC00
03DE00
039E00
078E00
070F00
0F0700
0F0780
0E0780
1E03C0
1C03C0
3C01C0
3C01E0
3801E0
7800F0
7000F0
F00070
ENDCHAR
STARTCHAR 005F
ENCODING 95
SWIDTH 549 0
DWIDTH 29 0
BBX 32 3 -1 -9
BITMAP
FFFFFFFF
FFFFFFFF
FFFFFFFF
ENDCHAR
STARTCHAR 0060
ENCODING 96
SWIDTH 341 0
DWIDTH 18 0
BBX 10 8 2 31
BITMAP
F800
7C00
3E00
1E00
0F00
0780
0380
01C0
ENDCHAR
STARTCHAR 0061
ENCODING 97
SWIDTH 549 0
DWIDTH 29 0
BBX 26 30 2 -1
BITMAP
00FF8000
03FFF000
0FFFF800
1FFFFC00
3F81FC00
3E007E00
3E003E00
3C003E00
7C001E00
00001E00
00003E00
00003E00
0003FE00
00FFFE00
07FFFE00
1FFF9E00
3FE01E00
7F001E00
7C001E00
F8001E00
F8001E00
F8003E00
F8003E00
F8007E00
7C00FE00
7E03FE00
3FFFDFC0
3FFF9FC0
0FFE0FC0
03F807C0
ENDCHAR
STARTCHAR 0062
ENCODING 98
SWIDTH 549 0
DWIDTH 29 0
BBX 25 39 3 -1
BITMAP
F0000000
F0000000
F0000000
F0000000
F0000000
F0000000
F0000000
F0000000
F0000000
F07F0000
F1FFE000
F3FFF000
F7FFF800
FFC3FC00
FF00FE00
FE007E00
FC003F00
FC001F00
F8001F00
F8001F00
F8000F00
F0000F80
F0000F80
F0000F80
F0000F80
F0000F80
F0000F00
F8000F00
F8001F00
F8001F00
FC001F00
FC003E00
FE007E00
FF00FC00
FFC3FC00
F7FFF800
F3FFF000
F1FFC000
007F0000
ENDCHAR
STARTCHAR 0063
ENCODING 99
SWIDTH 492 0
DWIDTH 26 0
BBX 23 30 2 -1
BITMAP
007F00
03FFC0
07FFF0
0FFFF8
1F83F8
3F00FC
3E007C
7C003E
78003E
F8003E
F80000
F80000
F00000
F00000
F00000
F00000
F00000
F00000
F80000
F8001E
F8003E
78003E
7C003E
7E007C
3F00FC
3FC1F8
1FFFF0
0FFFE0
03FFC0
00FF00
ENDCHAR
STARTCHAR 0064
ENCODING 100
SWIDTH 549 0
DWIDTH 29 0
BBX 25 39 1 -1
BITMAP
00000780
00000780
00000780
00000780
00000780
00000780
00000780
00000780
00000780
007F0780
01FFC780
07FFE780
0FFFF780
1FE1FF80
1F807F80
3F003F80
3E001F80
7C001F80
7C000F80
7C000F80
78000F80
78000780
F8000780
F8000780
F8000780
F8000780
78000780
78000F80
7C000F80
7C000F80
7C001F80
3E001F80
3F003F80
1F807F80
1FE1FF80
0FFFF780
07FFE780
03FFC780
007F0000
ENDCHAR
STARTCHAR 0065
ENCODING 101
SWIDTH 549 0
DWIDTH 29 0
BBX 25 30 2 -1
BITMAP
007F0000
01FFE000
07FFF000
0FFFFC00
1FC1FC00
1F007E00
3E003F00
3C001F00
7C000F00
78000F80
78000F80
F8000F80
FFFFFF80
FFFFFF80
FFFFFF80
FFFFFF80
F8000000
F8000000
F8000000
78000000
78000F00
7C000F00
7C001F00
3E003E00
3F007E00
1FC0FC00
0FFFFC00
07FFF000
03FFE000
007F0000
ENDCHAR
STARTCHAR 0066
ENCODING 102
SWIDTH 284 0
DWIDTH 15 0
BBX 13 39 1 0
BITMAP
01F8
03F8
07F8
0FF8
0F80
0F00
0F00
0F00
0F00
0F00
0F00
FFF8
FFF8
FFF8
FFF8
0F00
0F00
0F00
0F00
0F00
0F00
0F00
0F00
0F00
0F00
0F00
0F00
0F00
0F00
0F00
0F00
0F00
0F00
0F00
0F00
0F00
0F00
0F00
0F00
ENDCHAR
STARTCHAR 0067
ENCODING 103
SWIDTH 549 0
DWIDTH 29 0
BBX 23 40 2 -11
BITMAP
00FC00
03FF1E
07FF9E
0FFFDE
1F83FE
3F00FE
3E007E
7C007E
7C003E
78003E
F8003E
F8001E
F8001E
F8001E
F0001E
F0001E
F8001E
F8001E
F8001E
F8001E
F8003E
7C003E
7C007E
3E007E
3F00FE
1F83FE
0FFFDE
07FF9E
03FF1E
00FC1E
00001E
00003E
78003E
7C003C
7C007C
3F00F8
1FFFF0
0FFFE0
07FFC0
01FE00
ENDCHAR
STARTCHAR 0068
ENCODING 104
SWIDTH 549 0
DWIDTH 29 0
BBX 22 38 4 0
BITMAP
F00000
F00000
F00000
F00000
F00000
F00000
F00000
F00000
F00000
F07F80
F1FFE0
F3FFF0
F7FFF8
FF83F8
FE00F8
FC007C
F8007C
F8007C
F8007C
F0007C
F0007C
F0007C
F0007C
F0007C
F0007C
F0007C
F0007C
F0007C
F0007C
F0007C
F0007C
F0007C
F0007C
F0007C
F0007C
F0007C
F0007C
F0007C
ENDCHAR
STARTCHAR 0069
ENCODING 105
SWIDTH 227 0
DWIDTH 12 0
BBX 5 38 3 0
BITMAP
F8
F8
F8
F8
F8
F8
00
00
00
00
78
78
78
78
78
78
78
78
78
78
78
78
78
78
78
78
78
78
78
78
78
78
78
78
78
78
78
78
ENDCHAR
STARTCHAR 006A
ENCODING 106
SWIDTH 227 0
DWIDTH 12 0
BBX 9 50 -1 -12
BITMAP
0780
0780
0780
0780
0780
0780
0000
0000
0000
0000
0780
0780
0780
0780
0780
0780
0780
0780
0780
0780
0780
0780
0780
0780
0780
0780
0780
0780
0780
0780
0780
0780
0780
0780
0780
0780
0780
0780
0780
0780
0780
0780
0780
0780
0F80
0F80
FF80
FF00
FE00
F800
ENDCHAR
STARTCHAR 006B
ENCODING 107
SWIDTH 492 0
DWIDTH 26 0
BBX 23 38 3 0
BITMAP
F00000
F00000
F00000
F00000
F00000
F00000
F00000
F00000
F00000
F00000
F000F8
F001F0
F003E0
F007C0
F00F80
F01F00
F03E00
F07C00
F0F800
F1F000
F3F800
F7F800
FFFC00
FF7E00
FE3E00
FC3F00
F81F00
F00F80
F00FC0
F007C0
F007E0
F003E0
F001F0
F001F8
F000F8
F000FC
F0007E
F0003E
ENDCHAR
STARTCHAR 006C
ENCODING 108
SWIDTH 227 0
DWIDTH 12 0
BBX 4 38 4 0
BITMAP
F0
F0
F0
F0
F0
F0
F0
F0
F0
F0
F0
F0
F0
F0
F0
F0
F0
F0
F0
F0
F0
F0
F0
F0
F0
F0
F0
F0
F0
F0
F0
F0
F0
F0
F0
F0
F0
F0
ENDCHAR
STARTCHAR 006D
ENCODING 109
SWIDTH 833 0
DWIDTH 44 0
BBX 36 29 4 0
BITMAP
007F007F00
F1FFC1FFC0
F3FFE7FFE0
F7FFEFFFE0
FF07FF07F0
FE01FE01F0
FC01FC01F0
F800F800F0
F800F800F0
F000F000F0
F000F000F0
F000F000F0
F000F000F0
F000F000F0
F000F000F0
F000F000F0
F000F000F0
F000F000F0
F000F000F0
F000F000F0
F000F000F0
F000F000F0
F000F000F0
F000F000F0
F000F000F0
F000F000F0
F000F000F0
F000F000F0
F000F000F0
ENDCHAR
STARTCHAR 006E
ENCODING 110
SWIDTH 549 0
DWIDTH 29 0
BBX 22 29 4 0
BITMAP
003F80
F0FFE0
F3FFF0
F7FFF8
F783F8
FE00F8
FC007C
FC007C
F8007C
F8007C
F0007C
F0007C
F0007C
F0007C
F0007C
F0007C
F0007C
F0007C
F0007C
F0007C
F0007C
F0007C
F0007C
F0007C
F0007C
F0007C
F0007C
F0007C
F0007C
ENDCHAR
STARTCHAR 006F
ENCODING 111
SWIDTH 549 0
DWIDTH 29 0
BBX 25 30 2 -1
BITMAP
007F0000
03FFE000
07FFF000
0FFFF800
1FC1FC00
3F007E00
3E003E00
7C001F00
7C001F00
78001F00
F8000F80
F8000F80
F8000F80
F8000F80
F8000F80
F8000F80
F8000F80
F8000F80
F8000F80
F8000F80
78000F00
7C001F00
7C001F00
3E003E00
3F007E00
1FC1FC00
0FFFF800
07FFF000
03FFE000
007F0000
ENDCHAR
STARTCHAR 0070
ENCODING 112
SWIDTH 549 0
DWIDTH 29 0
BBX 25 40 3 -11
BITMAP
003F0000
F0FFE000
F3FFF000
F7FFF800
FFC3FC00
FF00FC00
FE007E00
FC003E00
FC001F00
F8001F00
F8001F00
F8000F00
F0000F00
F0000F80
F0000F80
F0000F80
F0000F80
F0000F80
F8000F00
F8001F00
F8001F00
FC001F00
FC003E00
FE007E00
FF00FC00
FFC3FC00
F7FFF800
F3FFF000
F1FFC000
F07F0000
F0000000
F0000000
F0000000
F0000000
F0000000
F0000000
F0000000
F0000000
F0000000
F0000000
ENDCHAR
STARTCHAR 0071
ENCODING 113
SWIDTH 549 0
DWIDTH 29 0
BBX 25 40 1 -11
BITMAP
007F0000
01FFC780
07FFE780
0FFFF780
1FE1FF80
1F807F80
3F003F80
3E001F80
7C001F80
7C000F80
7C000F80
78000F80
78000780
F8000780
F8000780
F8000780
F8000780
F8000780
78000F80
7C000F80
7C000F80
7C001F80
3E001F80
3F003F80
3F807F80
1FE1FF80
0FFFF780
07FFE780
03FFC780
007F0780
00000780
00000780
00000780
00000780
00000780
00000780
00000780
00000780
00000780
00000780
ENDCHAR
STARTCHAR 0072
ENCODING 114
SWIDTH 341 0
DWIDTH 18 0
BBX 13 29 4 0
BITMAP
0078
F1F8
F3F8
F7F8
F7F8
FF80
FE00
FC00
F800
F800
F800
F000
F000
F000
F000
F000
F000
F000
F000
F000
F000
F000
F000
F000
F000
F000
F000
F000
F000
ENDCHAR
STARTCHAR 0073
ENCODING 115
SWIDTH 492 0
DWIDTH 26 0
BBX 22 30 2 -1
BITMAP
01FE00
07FFC0
1FFFE0
3FFFF0
3F03F0
7C01F8
7C00F8
7800F8
F800F8
780000
7C0000
7F0000
7FE000
3FFE00
0FFFC0
03FFF0
007FF8
0007F8
0000FC
00007C
F0007C
F8003C
F8003C
F8007C
7C00FC
7F03F8
3FFFF0
3FFFE0
0FFFC0
03FE00
ENDCHAR
STARTCHAR 0074
ENCODING 116
SWIDTH 284 0
DWIDTH 15 0
BBX 12 37 1 -1
BITMAP
1F00
1F00
1F00
1F00
1F00
1F00
1F00
1F00
FFF0
FFF0
FFF0
FFF0
1F00
1F00
1F00
1F00
1F00
1F00
1F00
1F00
1F00
1F00
1F00
1F00
1F00
1F00
1F00
1F00
1F00
1F00
1F00
1F00
1F00
0FF0
0FF0
0FF0
03F0
ENDCHAR
STARTCHAR 0075
ENCODING 117
SWIDTH 549 0
DWIDTH 29 0
BBX 22 29 3 -1
BITMAP
F8003C
F8003C
F8003C
F8003C
F8003C
F8003C
F8003C
F8003C
F8003C
F8003C
F8003C
F8003C
F8003C
F8003C
F8003C
F8003C
F8003C
F8003C
F8003C
F8003C
F8007C
F8007C
FC00FC
7C01FC
7F03FC
3FFFBC
3FFF3C
0FFE3C
03F800
ENDCHAR
STARTCHAR 0076
ENCODING 118
SWIDTH 492 0
DWIDTH 26 0
BBX 24 28 1 0
BITMAP
F8000F
F8001F
F8001F
7C003E
7C003E
7C003E
3E007C
3E007C
3E0078
1F00F8
1F00F8
1F00F0
0F81F0
0F81F0
0781E0
07C3E0
07C3C0
03C3C0
03E7C0
03E780
01E780
01EF00
01FF00
00FF00
00FE00
00FE00
007E00
007C00
ENDCHAR
STARTCHAR 0077
ENCODING 119
SWIDTH 720 0
DWIDTH 38 0
BBX 37 28 0 0
BITMAP
F800FC00F8
7C00FC00F8
7C01FC00F8
7C01FC00F0
3C01FE01F0
3E01FE01F0
3E01FE01E0
3E03DE01E0
1E03DF03E0
1F03DF03E0
1F03CF03C0
0F078F03C0
0F078F87C0
0F87878780
0F87878780
078F078F80
078F07CF80
07CF03CF00
03CF03CF00
03DE03DF00
03DE03FE00
03FE01FE00
01FE01FE00
01FC01FE00
01FC01FC00
00FC00FC00
00FC00FC00
00F800F800
ENDCHAR
STARTCHAR 0078
ENCODING 120
SWIDTH 492 0
DWIDTH 26 0
BBX 24 28 1 0
BITMAP
7C003E
7C003E
3E007C
1F00F8
1F00F8
0F81F0
07C3E0
07C3E0
03E7C0
01F780
01FF00
00FF00
007E00
007C00
007E00
00FF00
00FF00
01FF80
03E7C0
03C7C0
07C3E0
0F81F0
0F81F0
1F00F8
3E007C
3E007C
7C003E
F8001F
ENDCHAR
STARTCHAR 0079
ENCODING 121
SWIDTH 492 0
DWIDTH 26 0
BBX 24 39 1 -11
BITMAP
F8001F
78001F
7C001E
7C003E
3C003E
3E003C
3E007C
1E0078
1F00F8
1F00F8
0F00F0
0F81F0
0F81F0
0781E0
0783E0
07C3E0
03C3C0
03C7C0
03E780
01E780
01EF80
01FF00
00FF00
00FF00
00FE00
007E00
007E00
007C00
007C00
007800
00F800
00F800
00F000
01F000
03F000
3FE000
3FC000
3FC000
3F0000
ENDCHAR
STARTCHAR 007A
ENCODING 122
SWIDTH 492 0
DWIDTH 26 0
BBX 22 28 2 0
BITMAP
7FFFF8
7FFFF8
7FFFF8
7FFFF8
0000F8
0001F0
0003E0
0007C0
000FC0
000F80
001F00
003E00
007C00
00FC00
01F800
01F000
03E000
07C000
0FC000
1F8000
1F0000
3E0000
7C0000
F80000
FFFFFC
FFFFFC
FFFFFC
FFFFFC
ENDCHAR
STARTCHAR 007B
ENCODING 123
SWIDTH 341 0
DWIDTH 18 0
BBX 13 50 2 -12
BITMAP
00F8
03F8
07F8
07E0
0780
0F80
0F00
0F00
0F00
0F00
0F00
0F00
0F00
0F00
0F00
0F00
0F00
0F00
0F00
0F00
0F00
1F00
3E00
FC00
F800
F800
FE00
3E00
1F00
0F00
0F00
0F00
0F00
0F00
0F00
0F00
0F00
0F00
0F00
0F00
0F00
0F00
0F00
0F00
0F80
0780
07F8
03F8
01F8
0078
ENDCHAR
STARTCHAR 007C
ENCODING 124
SWIDTH 265 0
DWIDTH 14 0
BBX 3 50 5 -12
BITMAP
E0
E0
E0
E0
E0
E0
E0
E0
E0
E0
E0
E0
E0
E0
E0
E0
E0
E0
E0
E0
E0
E0
E0
E0
E0
E0
E0
E0
E0
E0
E0
E0
E0
E0
E0
E0
E0
E0
E0
E0
E0
E0
E0
E0
E0
E0
E0
E0
E0
E0
ENDCHAR
STARTCHAR 007D
ENCODING 125
SWIDTH 341 0
DWIDTH 18 0
BBX 12 50 2 -12
BITMAP
F800
FC00
FE00
7E00
1F00
0F00
0F00
0F00
0F00
0F00
0F00
0F00
0F00
0F00
0F00
0F00
0F00
0F00
0F00
0F00
0F80
0780
07C0
03F0
01F0
01F0
03F0
07C0
0780
0F00
0F00
0F00
0F00
0F00
0F00
0F00
0F00
0F00
0F00
0F00
0F00
0F00
0F00
0F00
0F00
1F00
FE00
FE00
FC00
E000
ENDCHAR
STARTCHAR 007E
ENCODING 126
SWIDTH 587 0
DWIDTH 31 0
BBX 23 9 4 14
BITMAP
1F0000
3FC00E
7FE00E
7FF80E
F0FE1E
E03FFC
E01FFC
E007F8
0001F0
ENDCHAR
STARTCHAR 00A0
ENCODING 160
SWIDTH 284 0
DWIDTH 15 0
BBX 0 0 0 0
BITMAP
ENDCHAR
STARTCHAR 00A1
ENCODING 161
SWIDTH 341 0
DWIDTH 18 0
BBX 5 38 6 -10
BITMAP
F8
F8
F8
F8
F8
F8
00
00
00
30
70
70
70
70
70
70
70
78
78
78
F8
F8
F8
F8
F8
F8
F8
F8
F8
F8
F8
F8
F8
F8
F8
F8
F8
F8
ENDCHAR
STARTCHAR 00A2
ENCODING 162
SWIDTH 549 0
DWIDTH 29 0
BBX 24 39 3 -6
BITMAP
001800
001800
001800
001800
001800
00FFC0
03FFF0
0FFFF8
1FFFFC
1F98FC
3E187E
7E183E
7C181E
78181F
F8181F
F81800
F81800
F01800
F01800
F01800
F01800
F01800
F81800
F8181F
F8181F
78181F
7C181E
7E183E
3F187E
1F98FC
1FFFF8
0FFFF0
03FFE0
00FF80
001800
001800
001800
001800
001800
ENDCHAR
STARTCHAR 00A3
ENCODING 163
SWIDTH 549 0
DWIDTH 29 0
BBX 27 39 1 -1
BITMAP
001FC000
00FFF800
03FFFC00
07FFFE00
0FF07F00
0F801F80
1F000F80
1F000FC0
3E0007C0
3E0007C0
3E0007C0
3E0007C0
3E000000
3E000000
1F000000
1F000000
0F800000
0FC00000
FFFFC000
FFFFC000
FFFFC000
03E00000
01F00000
01F00000
01F00000
01F00000
01F00000
01E00000
01E00000
03C00000
03C00000
07800000
0F000000
1E7F81C0
3DFFFFC0
7FFFFFE0
3FFFFFE0
3C0FFF80
1000FE00
ENDCHAR
STARTCHAR 00A4
ENCODING 164
SWIDTH 549 0
DWIDTH 29 0
BBX 22 23 4 7
BITMAP
200000
700030
F9FC78
FFFFFC
7FFFF8
3FFFF0
3F0FE0
3E03E0
7C01F0
7800F0
7800F0
7800F0
7800F0
7800F0
7800F0
7C01F0
3E03E0
3F87E0
3FFFF0
7FFFF8
FFFFF8
79FC70
300020
ENDCHAR
STARTCHAR 00A5
ENCODING 165
SWIDTH 549 0
DWIDTH 29 0
BBX 27 37 1 0
BITMAP
F80001E0
780003E0
7C0003C0
3C0007C0
3E000780
1E000F00
0F001F00
0F801E00
07803E00
07C03C00
03C07C00
03E07800
01E0F000
00F0F000
00F9E000
007BE000
007FC000
003FC000
3FFFFF80
3FFFFF80
3FFFFF80
001F0000
001F0000
001F0000
001F0000
3FFFFF80
3FFFFF80
3FFFFF80
001F0000
001F0000
001F0000
001F0000
001F0000
001F0000
001F0000
001F0000
001F0000
ENDCHAR
STARTCHAR 00A6
ENCODING 166
SWIDTH 265 0
DWIDTH 14 0
BBX 3 50 5 -12
BITMAP
E0
E0
E0
E0
E0
E0
E0
E0
E0
E0
E0
E0
E0
E0
E0
E0
E0
E0
E0
E0
E0
00
00
00
00
00
00
00
00
E0
E0
E0
E0
E0
E0
E0
E0
E0
E0
E0
E0
E0
E0
E0
E0
E0
E0
E0
E0
E0
ENDCHAR
STARTCHAR 00A7
ENCODING 167
SWIDTH 549 0
DWIDTH 29 0
BBX 25 49 2 -11
BITMAP
003F8000
00FFE000
03FFF000
07FFF800
07E1FC00
0F807C00
0F803C00
0F003C00
0F003C00
0F803C00
0FC00000
07E00000
07F00000
03FC0000
0FFE0000
1F7F8000
3C3FE000
780FF000
7807F800
F801FC00
F800FE00
F8003F00
F8001F00
7C001F80
7E000F80
7F000F80
3F800780
1FC00F80
0FF00F00
07F80F00
03FE1E00
00FF3E00
007FFC00
001FF000
000FF000
0003F000
0001F800
0000F800
00007C00
3E007C00
3E007C00
3E007C00
1E007800
1F00F800
1FC3F800
0FFFF000
07FFE000
03FFC000
00FE0000
ENDCHAR
STARTCHAR 00A8
ENCODING 168
SWIDTH 341 0
DWIDTH 18 0
BBX 14 5 2 33
BITMAP
F8FC
F8FC
F8FC
F8FC
F8FC
ENDCHAR
STARTCHAR 00A9
ENCODING 169
SWIDTH 738 0
DWIDTH 39 0
BBX 41 40 -1 -1
BITMAP
0000FF800000
0007FFF00000
001FFFFC0000
007FC1FF0000
00FC001F8000
01F00007C000
03E00003E000
07800001F000
0F007F807800
1F01FFC07C00
1E03FFE03C00
3C07C1F01E00
3C0F80F81E00
780F00780F00
780E00380F00
781E003C0F00
701E00000700
701C00000780
F01C00000780
F01C00000780
F01C00000780
F01C00000780
F01C003C0700
701E003C0700
781E003C0F00
781E00380F00
780F00780F00
3C0F80F81E00
3C07E1F01E00
1E03FFE03C00
1F01FFC07C00
0F807F807800
07C00000F000
03E00003E000
01F00007C000
00FC001F8000
007FC1FF0000
001FFFFC0000
0007FFF00000
0000FF800000
ENDCHAR
STARTCHAR 00AA
ENCODING 170
SWIDTH 378 0
DWIDTH 20 0
BBX 16 23 2 16
BITMAP
0FE0
3FF8
3FF8
783C
701C
701C
001C
00FC
1FFC
7F9C
701C
E01C
E01C
E03C
F07C
7FFF
7FDF
1F0F
0000
0000
FFFE
FFFE
FFFE
ENDCHAR
STARTCHAR 00AB
ENCODING 171
SWIDTH 549 0
DWIDTH 29 0
BBX 19 17 5 6
BITMAP
010020
030060
0700E0
0F03E0
3F07E0
7E0F80
F81F00
F01E00
E01C00
F01E00
F81F00
7C0F80
3F07C0
1F03E0
0701E0
030060
010020
ENDCHAR
STARTCHAR 00AC
ENCODING 172
SWIDTH 587 0
DWIDTH 31 0
BBX 27 16 2 4
BITMAP
FFFFFFE0
FFFFFFE0
FFFFFFE0
FFFFFFE0
000001E0
000001E0
000001E0
000001E0
000001E0
000001E0
000001E0
000001E0
000001E0
000001E0
000001E0
000001E0
ENDCHAR
STARTCHAR 00AD
ENCODING 173
SWIDTH 341 0
DWIDTH 18 0
BBX 13 4 2 13
BITMAP
FFF8
FFF8
FFF8
FFF8
ENDCHAR
STARTCHAR 00AE
ENCODING 174
SWIDTH 738 0
DWIDTH 39 0
BBX 41 40 -1 -1
BITMAP
0000FF800000
0007FFF00000
001FFFFC0000
007FC1FF0000
00FC001F8000
01F00007C000
03E00003E000
07800001F000
0F0FFFC07800
1F0FFFF07C00
1E0FFFF83C00
3C0E00F81E00
3C0E007C1E00
780E003C0F00
780E003C0F00
780E003C0F00
700E003C0700
700E007C0780
F00E00F80780
F00FFFF00780
F00FFFF00780
F00FFFF80780
F00E00780700
700E00780700
780E00380700
780E003C0F00
780E003C0F00
3C0E003C1E00
3C0E003C1E00
1E0E003C3C00
1F0E003E3C00
0F8E003E7800
07C00000F000
03E00003E000
01F00007C000
00FC001F8000
007FC1FF0000
001FFFFC0000
0007FFF00000
0000FF800000
ENDCHAR
STARTCHAR 00AF
ENCODING 175
SWIDTH 341 0
DWIDTH 18 0
BBX 15 4 1 33
BITMAP
FFFE
FFFE
FFFE
FFFE
ENDCHAR
STARTCHAR 00B0
ENCODING 176
SWIDTH 397 0
DWIDTH 21 0
BBX 16 16 3 20
BITMAP
07C0
1FF0
3FF8
783C
F01E
E00E
E00E
E00F
E00F
E00E
E00E
F01E
783C
3FF8
1FF0
07C0
ENDCHAR
STARTCHAR 00B1
ENCODING 177
SWIDTH 587 0
DWIDTH 31 0
BBX 25 34 3 -1
BITMAP
001C0000
001C0000
001C0000
001C0000
001C0000
001C0000
001C0000
001C0000
001C0000
001C0000
001C0000
FFFFFF80
FFFFFF80
FFFFFF80
FFFFFF80
001C0000
001C0000
001C0000
001C0000
001C0000
001C0000
001C0000
001C0000
001C0000
001C0000
001C0000
00000000
00000000
00000000
00000000
FFFFFF80
FFFFFF80
FFFFFF80
FFFFFF80
ENDCHAR
STARTCHAR 00B2
ENCODING 178
SWIDTH 341 0
DWIDTH 18 0
BBX 16 22 1 15
BITMAP
07E0
1FF8
3FFC
783E
700E
F00F
E00F
E00F
000E
001E
003C
00F8
03F0
0FC0
1F00
3C00
7800
F000
F000
FFFF
FFFF
FFFF
ENDCHAR
STARTCHAR 00B3
ENCODING 179
SWIDTH 341 0
DWIDTH 18 0
BBX 17 23 0 14
BITMAP
07F000
1FFC00
3FFE00
3C1E00
780F00
700F00
700F00
000F00
000E00
00FE00
01F800
01FC00
001E00
000F00
000700
000780
F00780
700700
700F00
7C1F00
3FFE00
1FFC00
07F000
ENDCHAR
STARTCHAR 00B4
ENCODING 180
SWIDTH 341 0
DWIDTH 18 0
BBX 10 8 5 31
BITMAP
07C0
0F80
1F00
1E00
3C00
7800
7000
E000
ENDCHAR
STARTCHAR 00B5
ENCODING 181
SWIDTH 549 0
DWIDTH 29 0
BBX 26 39 3 -11
BITMAP
F8003C00
F8003C00
F8003C00
F8003C00
F8003C00
F8003C00
F8003C00
F8003C00
F8003C00
F8003C00
F8003C00
F8003C00
F8003C00
F8003C00
F8003C00
F8003C00
F8003C00
F8003C00
F8003C00
F8003C00
F8007C00
F8007C00
FC00FC00
FC01FC00
FF03FE00
FFFFBFC0
FFFF3FC0
FFFE1FC0
FBF80FC0
F8000000
F8000000
F8000000
F8000000
F8000000
F8000000
F8000000
F8000000
F8000000
F8000000
ENDCHAR
STARTCHAR 00B6
ENCODING 182
SWIDTH 530 0
DWIDTH 28 0
BBX 25 48 3 -10
BITMAP
00FFFF80
03FFFF80
0FFFFF80
1FFC3C00
3FFC3C00
3FFC3C00
7FFC3C00
7FFC3C00
FFFC3C00
FFFC3C00
FFFC3C00
FFFC3C00
FFFC3C00
FFFC3C00
FFFC3C00
FFFC3C00
FFFC3C00
FFFC3C00
7FFC3C00
7FFC3C00
3FFC3C00
1FFC3C00
0FFC3C00
07FC3C00
00FC3C00
003C3C00
003C3C00
003C3C00
003C3C00
003C3C00
003C3C00
003C3C00
003C3C00
003C3C00
003C3C00
003C3C00
003C3C00
003C3C00
003C3C00
003C3C00
003C3C00
003C3C00
003C3C00
003C3C00
003C3C00
003C3C00
003C3C00
003C3C00
ENDCHAR
STARTCHAR 00B7
ENCODING 183
SWIDTH 284 0
DWIDTH 15 0
BBX 5 5 6 12
BITMAP
F8
F8
F8
F8
F8
ENDCHAR
STARTCHAR 00B8
ENCODING 184
SWIDTH 341 0
DWIDTH 18 0
BBX 13 11 2 -11
BITMAP
0380
0300
0300
07F0
07F8
0078
0078
4078
70F8
FFF0
1FC0
ENDCHAR
STARTCHAR 00B9
ENCODING 185
SWIDTH 341 0
DWIDTH 18 0
BBX 8 22 3 15
BITMAP
03
07
07
1F
FF
FF
07
07
07
07
07
07
07
07
07
07
07
07
07
07
07
07
ENDCHAR
STARTCHAR 00BA
ENCODING 186
SWIDTH 360 0
DWIDTH 19 0
BBX 15 23 2 16
BITMAP
07E0
1FF0
3FF8
783C
701C
701E
E00E
E00E
E00E
E00E
E00E
E00E
701E
701C
783C
3FF8
1FF0
07C0
0000
0000
7FFE
7FFE
7FFE
ENDCHAR
STARTCHAR 00BB
ENCODING 187
SWIDTH 549 0
DWIDTH 29 0
BBX 19 17 5 6
BITMAP
802000
C01800
E01C00
F81E00
FC1F80
3E0FC0
1F03E0
0F01E0
0300E0
0701E0
1F03E0
3F07C0
7C1F80
F81F00
F01C00
E01800
801000
ENDCHAR
STARTCHAR 00BC
ENCODING 188
SWIDTH 833 0
DWIDTH 44 0
BBX 42 38 1 -1
BITMAP
03800001C000
038000038000
078000070000
0F8000070000
FF80000E0000
FF80001E0000
0380001C0000
038000380000
038000380000
038000700000
038000E00000
038000E00000
038001C00000
038003C00000
038003800000
038007001C00
038007001C00
03800E003C00
03801C007C00
03801C00FC00
03803800FC00
03807801DC00
000070039C00
0000E0079C00
0000E00F1C00
0001C00E1C00
0003801C1C00
000380381C00
000700781C00
0007007FFFC0
000E007FFFC0
001C007FFFC0
001C00001C00
003800001C00
007000001C00
007000001C00
00E000001C00
00E000000000
ENDCHAR
STARTCHAR 00BD
ENCODING 189
SWIDTH 833 0
DWIDTH 44 0
BBX 42 39 1 -1
BITMAP
018000038000
038000070000
0380000E0000
0780000E0000
7F80001C0000
FF80001C0000
FF8000380000
038000700000
038000700000
038000E00000
038001E00000
038001C00000
038003800000
038003800000
038007000000
03800E01F000
03800E07FE00
03801C0FFF00
03801C1F0F80
0380381C0780
0380703C03C0
0380703803C0
0380E03803C0
0001E0000380
0001C0000780
000380000F80
000380001F00
000700007E00
000E0001F800
000E0003E000
001C000F8000
001C001F0000
0038001E0000
0070003C0000
0070003C0000
00E0003FFF80
01E0003FFF80
01C0007FFF80
038000000000
ENDCHAR
STARTCHAR 00BE
ENCODING 190
SWIDTH 833 0
DWIDTH 44 0
BBX 42 38 1 -1
BITMAP
07F00000E000
1FFC0000E000
3FFE0001C000
3C1E00038000
780F00038000
700F00070000
700F000F0000
000F000E0000
000E001C0000
00FC001C0000
01F800380000
01FC00700000
001E00700000
000F00E00000
000701E00000
000701C01C00
F00703801C00
F00703803C00
700F07007C00
781F0E00FC00
3FFE0E00FC00
1FFC1C01DC00
07F038039C00
000038071C00
0000700F1C00
0000700E1C00
0000E01C1C00
0001C0381C00
0001C0781C00
0003807FFFC0
0007007FFFC0
0007007FFFC0
000E00001C00
000E00001C00
001C00001C00
003800001C00
003800001C00
007000000000
ENDCHAR
STARTCHAR 00BF
ENCODING 191
SWIDTH 606 0
DWIDTH 32 0
BBX 23 39 5 -11
BITMAP
007C00
007C00
007C00
007C00
007C00
007C00
000000
000000
000000
000000
000000
007C00
007C00
007C00
007C00
007C00
00FC00
00F800
03F000
07E000
0FC000
1F8000
3F0000
3E0000
7C0000
7C0000
F80000
F8003E
F8003E
F8003E
F8003E
F8003C
7C007C
7E00FC
7F81F8
3FFFF0
1FFFE0
07FFC0
01FF00
ENDCHAR
STARTCHAR 00C0
ENCODING 192
SWIDTH 663 0
DWIDTH 35 0
BBX 33 49 1 0
BITMAP
003E000000
001F000000
000F800000
0007800000
0003C00000
0001E00000
0000E00000
0000700000
0000000000
0000000000
0000000000
0007F00000
0007F80000
0007F80000
000FF80000
000FFC0000
000FFC0000
001F7C0000
001F7E0000
001F3E0000
003E3E0000
003E3F0000
007C1F0000
007C1F0000
007C1F8000
00F80F8000
00F80F8000
00F80FC000
01F007C000
01F007E000
01F007E000
03E003E000
03E003F000
07E003F000
07FFFFF000
07FFFFF800
0FFFFFF800
0FFFFFF800
0F8000FC00
1F80007C00
1F00007C00
1F00007E00
3F00003E00
3E00003F00
3E00003F00
7C00001F00
7C00001F80
FC00001F80
F800000F80
ENDCHAR
STARTCHAR 00C1
ENCODING 193
SWIDTH 663 0
DWIDTH 35 0
BBX 33 49 1 0
BITMAP
00003F0000
00007E0000
00007C0000
0000F80000
0000F00000
0001E00000
0003C00000
0003800000
0000000000
0000000000
0000000000
0007F00000
0007F80000
0007F80000
000FF80000
000FFC0000
000FFC0000
001F7C0000
001F7E0000
001F3E0000
003E3E0000
003E3F0000
007C1F0000
007C1F0000
007C1F8000
00F80F8000
00F80F8000
00F80FC000
01F007C000
01F007E000
01F007E000
03E003E000
03E003F000
07E003F000
07FFFFF000
07FFFFF800
0FFFFFF800
0FFFFFF800
0F8000FC00
1F80007C00
1F00007C00
1F00007E00
3F00003E00
3E00003F00
3E00003F00
7C00001F00
7C00001F80
FC00001F80
F800000F80
ENDCHAR
STARTCHAR 00C2
ENCODING 194
SWIDTH 663 0
DWIDTH 35 0
BBX 33 49 1 0
BITMAP
0003F00000
0007F00000
0007F80000
000F7C0000
001E3C0000
001C1E0000
003C0E0000
0078070000
0000000000
0000000000
0000000000
0007F00000
0007F80000
0007F80000
000FF80000
000FFC0000
000FFC0000
001F7C0000
001F7E0000
001F3E0000
003E3E0000
003E3F0000
007C1F0000
007C1F0000
007C1F8000
00F80F8000
00F80F8000
00F80FC000
01F007C000
01F007E000
01F007E000
03E003E000
03E003F000
07E003F000
07FFFFF000
07FFFFF800
0FFFFFF800
0FFFFFF800
0F8000FC00
1F80007C00
1F00007C00
1F00007E00
3F00003E00
3E00003F00
3E00003F00
7C00001F00
7C00001F80
FC00001F80
F800000F80
ENDCHAR
STARTCHAR 00C3
ENCODING 195
SWIDTH 663 0
DWIDTH 35 0
BBX 33 48 1 0
BITMAP
001E038000
003FC78000
007FFF0000
007FFF0000
0070FE0000
0000080000
0000000000
0000000000
0000000000
0000000000
0007F00000
0007F80000
0007F80000
000FF80000
000FFC0000
000FFC0000
001F7C0000
001F7E0000
001F3E0000
003E3E0000
003E3F0000
007C1F0000
007C1F0000
007C1F8000
00F80F8000
00F80F8000
00F80FC000
01F007C000
01F007E000
01F007E000
03E003E000
03E003F000
07E003F000
07FFFFF000
07FFFFF800
0FFFFFF800
0FFFFFF800
0F8000FC00
1F80007C00
1F00007C00
1F00007E00
3F00003E00
3E00003F00
3E00003F00
7C00001F00
7C00001F80
FC00001F80
F800000F80
ENDCHAR
STARTCHAR 00C4
ENCODING 196
SWIDTH 663 0
DWIDTH 35 0
BBX 33 48 1 0
BITMAP
003E3F0000
003E3F0000
003E3F0000
003E3F0000
003E3F0000
0000000000
0000000000
0000000000
0000000000
0000000000
0007F00000
0007F80000
0007F80000
000FF80000
000FFC0000
000FFC0000
001F7C0000
001F7E0000
001F3E0000
003E3E0000
003E3F0000
007C1F0000
007C1F0000
007C1F8000
00F80F8000
00F80F8000
00F80FC000
01F007C000
01F007E000
01F007E000
03E003E000
03E003F000
07E003F000
07FFFFF000
07FFFFF800
0FFFFFF800
0FFFFFF800
0F8000FC00
1F80007C00
1F00007C00
1F00007E00
3F00003E00
3E00003F00
3E00003F00
7C00001F00
7C00001F80
FC00001F80
F800000F80
ENDCHAR
STARTCHAR 00C5
ENCODING 197
SWIDTH 663 0
DWIDTH 35 0
BBX 33 50 1 0
BITMAP
0001E00000
0007F00000
0007780000
000E180000
000C180000
000E180000
000E380000
0007F00000
0003E00000
0000000000
0000000000
0000000000
0007F00000
0007F80000
0007F80000
000FF80000
000FFC0000
000FFC0000
001F7C0000
001F7E0000
001F3E0000
003E3E0000
003E3F0000
007C1F0000
007C1F0000
007C1F8000
00F80F8000
00F80F8000
00F80FC000
01F007C000
01F007E000
01F007E000
03E003E000
03E003F000
07E003F000
07FFFFF000
07FFFFF800
0FFFFFF800
0FFFFFF800
0F8000FC00
1F80007C00
1F00007C00
1F00007E00
3F00003E00
3E00003F00
3E00003F00
7C00001F00
7C00001F80
FC00001F80
F800000F80
ENDCHAR
STARTCHAR 00C6
ENCODING 198
SWIDTH 1004 0
DWIDTH 53 0
BBX 49 38 1 0
BITMAP
0001FFFFFFFF00
0001FFFFFFFF00
0003FFFFFFFF00
0003FFFFFFFF00
0007C0F8000000
0007C0F8000000
0007C0F8000000
000F80F8000000
000F80F8000000
001F00F8000000
001F00F8000000
001F00F8000000
003E00F8000000
003E00F8000000
007C00F8000000
007C00F8000000
007C00F8000000
00F800FFFFFE00
00F800FFFFFE00
01F000FFFFFE00
01F000FFFFFE00
03F000F8000000
03E000F8000000
03FFFFF8000000
07FFFFF8000000
07FFFFF8000000
0FFFFFF8000000
0F8000F8000000
0F8000F8000000
1F0000F8000000
1F0000F8000000
3F0000F8000000
3E0000F8000000
7E0000F8000000
7C0000FFFFFF80
7C0000FFFFFF80
FC0000FFFFFF80
F80000FFFFFF80
ENDCHAR
STARTCHAR 00C7
ENCODING 199
SWIDTH 720 0
DWIDTH 38 0
BBX 33 50 3 -11
BITMAP
0007FC0000
003FFF8000
00FFFFC000
03FFFFF000
07FE1FF800
0FE003F800
0FC000FC00
1F80007C00
3F00003E00
3E00003E00
7E00003F00
7C00001F00
7C00001F00
F800000000
F800000000
F800000000
F800000000
F800000000
F800000000
F000000000
F000000000
F800000000
F800000000
F800000000
F800000000
F800000F80
F800001F80
FC00001F00
7C00001F00
7C00001F00
3E00003F00
3F00003E00
1F80007E00
1FC000FC00
0FE001FC00
07FC07F800
03FFFFF000
01FFFFE000
007FFF8000
001FFE0000
0001800000
0003800000
0003F00000
0003FC0000
00007C0000
00003C0000
00003C0000
0078780000
007FF80000
000FE00000
ENDCHAR
STARTCHAR 00C8
ENCODING 200
SWIDTH 663 0
DWIDTH 35 0
BBX 27 49 5 0
BITMAP
03F00000
01F80000
00FC0000
003C0000
001E0000
000F0000
00070000
00038000
00000000
00000000
00000000
FFFFFFC0
FFFFFFC0
FFFFFFC0
FFFFFFC0
F8000000
F8000000
F8000000
F8000000
F8000000
F8000000
F8000000
F8000000
F8000000
F8000000
F8000000
F8000000
F8000000
FFFFFFC0
FFFFFFC0
FFFFFFC0
FFFFFFC0
F8000000
F8000000
F8000000
F8000000
F8000000
F8000000
F8000000
F8000000
F8000000
F8000000
F8000000
F8000000
F8000000
FFFFFFE0
FFFFFFE0
FFFFFFE0
FFFFFFE0
ENDCHAR
STARTCHAR 00C9
ENCODING 201
SWIDTH 663 0
DWIDTH 35 0
BBX 27 49 5 0
BITMAP
0003F000
0007E000
0007C000
000F8000
001F0000
001E0000
003C0000
00780000
00000000
00000000
00000000
FFFFFFC0
FFFFFFC0
FFFFFFC0
FFFFFFC0
F8000000
F8000000
F8000000
F8000000
F8000000
F8000000
F8000000
F8000000
F8000000
F8000000
F8000000
F8000000
F8000000
FFFFFFC0
FFFFFFC0
FFFFFFC0
FFFFFFC0
F8000000
F8000000
F8000000
F8000000
F8000000
F8000000
F8000000
F8000000
F8000000
F8000000
F8000000
F8000000
F8000000
FFFFFFE0
FFFFFFE0
FFFFFFE0
FFFFFFE0
ENDCHAR
STARTCHAR 00CA
ENCODING 202
SWIDTH 663 0
DWIDTH 35 0
BBX 27 49 5 0
BITMAP
003F0000
003F8000
007F8000
00FBC000
00F1E000
01E0E000
03C0F000
03807800
00000000
00000000
00000000
FFFFFFC0
FFFFFFC0
FFFFFFC0
FFFFFFC0
F8000000
F8000000
F8000000
F8000000
F8000000
F8000000
F8000000
F8000000
F8000000
F8000000
F8000000
F8000000
F8000000
FFFFFFC0
FFFFFFC0
FFFFFFC0
FFFFFFC0
F8000000
F8000000
F8000000
F8000000
F8000000
F8000000
F8000000
F8000000
F8000000
F8000000
F8000000
F8000000
F8000000
FFFFFFE0
FFFFFFE0
FFFFFFE0
FFFFFFE0
ENDCHAR
STARTCHAR 00CB
ENCODING 203
SWIDTH 663 0
DWIDTH 35 0
BBX 27 48 5 0
BITMAP
03F1F000
03F1F000
03F1F000
03F1F000
03F1F000
00000000
00000000
00000000
00000000
00000000
FFFFFFC0
FFFFFFC0
FFFFFFC0
FFFFFFC0
F8000000
F8000000
F8000000
F8000000
F8000000
F8000000
F8000000
F8000000
F8000000
F8000000
F8000000
F8000000
F8000000
FFFFFFC0
FFFFFFC0
FFFFFFC0
FFFFFFC0
F8000000
F8000000
F8000000
F8000000
F8000000
F8000000
F8000000
F8000000
F8000000
F8000000
F8000000
F8000000
F8000000
FFFFFFE0
FFFFFFE0
FFFFFFE0
FFFFFFE0
ENDCHAR
STARTCHAR 00CC
ENCODING 204
SWIDTH 284 0
DWIDTH 15 0
BBX 10 49 1 0
BITMAP
F800
7C00
3E00
1E00
0F00
0780
0380
01C0
0000
0000
0000
0F80
0F80
0F80
0F80
0F80
0F80
0F80
0F80
0F80
0F80
0F80
0F80
0F80
0F80
0F80
0F80
0F80
0F80
0F80
0F80
0F80
0F80
0F80
0F80
0F80
0F80
0F80
0F80
0F80
0F80
0F80
0F80
0F80
0F80
0F80
0F80
0F80
0F80
ENDCHAR
STARTCHAR 00CD
ENCODING 205
SWIDTH 284 0
DWIDTH 15 0
BBX 10 49 4 0
BITMAP
0FC0
0F80
1F00
3E00
3C00
7800
7000
E000
0000
0000
0000
7C00
7C00
7C00
7C00
7C00
7C00
7C00
7C00
7C00
7C00
7C00
7C00
7C00
7C00
7C00
7C00
7C00
7C00
7C00
7C00
7C00
7C00
7C00
7C00
7C00
7C00
7C00
7C00
7C00
7C00
7C00
7C00
7C00
7C00
7C00
7C00
7C00
7C00
ENDCHAR
STARTCHAR 00CE
ENCODING 206
SWIDTH 284 0
DWIDTH 15 0
BBX 15 49 0 0
BITMAP
07C0
0FE0
1FF0
1EF0
3C78
783C
701C
F00E
0000
0000
0000
07C0
07C0
07C0
07C0
07C0
07C0
07C0
07C0
07C0
07C0
07C0
07C0
07C0
07C0
07C0
07C0
07C0
07C0
07C0
07C0
07C0
07C0
07C0
07C0
07C0
07C0
07C0
07C0
07C0
07C0
07C0
07C0
07C0
07C0
07C0
07C0
07C0
07C0
ENDCHAR
STARTCHAR 00CF
ENCODING 207
SWIDTH 284 0
DWIDTH 15 0
BBX 15 47 0 0
BITMAP
FC7E
FC7E
FC7E
FC7E
FC7E
0000
0000
0000
0000
07C0
07C0
07C0
07C0
07C0
07C0
07C0
07C0
07C0
07C0
07C0
07C0
07C0
07C0
07C0
07C0
07C0
07C0
07C0
07C0
07C0
07C0
07C0
07C0
07C0
07C0
07C0
07C0
07C0
07C0
07C0
07C0
07C0
07C0
07C0
07C0
07C0
07C0
ENDCHAR
STARTCHAR 00D0
ENCODING 208
SWIDTH 720 0
DWIDTH 38 0
BBX 34 38 1 0
BITMAP
0FFFFE0000
0FFFFFC000
0FFFFFE000
0FFFFFF800
0F801FFC00
0F8001FC00
0F80007E00
0F80003F00
0F80001F00
0F80001F80
0F80000F80
0F80000F80
0F800007C0
0F800007C0
0F800007C0
0F800007C0
0F800007C0
FFFFC007C0
FFFFC007C0
FFFFC007C0
FFFFC007C0
0F800007C0
0F800007C0
0F800007C0
0F800007C0
0F800007C0
0F80000F80
0F80000F80
0F80001F80
0F80001F00
0F80003F00
0F80007E00
0F8001FC00
0F800FFC00
0FFFFFF800
0FFFFFE000
0FFFFFC000
0FFFFE0000
ENDCHAR
STARTCHAR 00D1
ENCODING 209
SWIDTH 720 0
DWIDTH 38 0
BBX 30 48 4 0
BITMAP
003C0700
007F0E00
00FFFE00
00FFFE00
01E1FC00
00002000
00000000
00000000
00000000
00000000
FC00007C
FC00007C
FE00007C
FF00007C
FF00007C
FF80007C
FFC0007C
FFC0007C
FFE0007C
FBE0007C
F9F0007C
F9F8007C
F8F8007C
F87C007C
F87E007C
F83E007C
F81F007C
F81F807C
F80F807C
F807C07C
F807E07C
F803E07C
F803F07C
F801F87C
F800F87C
F800FC7C
F8007E7C
F8003E7C
F8003F7C
F8001F7C
F8000FFC
F8000FFC
F80007FC
F80003FC
F80003FC
F80001FC
F80000FC
F80000FC
ENDCHAR
STARTCHAR 00D2
ENCODING 210
SWIDTH 776 0
DWIDTH 41 0
BBX 37 50 2 -1
BITMAP
001FC00000
0007C00000
0003E00000
0001E00000
0000F00000
0000780000
0000380000
0000040000
0000000000
0000000000
0003FE0000
001FFFC000
007FFFF000
00FFFFFC00
03FF8FFE00
07F800FF00
0FE0003F80
0FC0001FC0
1F80000FC0
3F000007E0
3E000003E0
3E000003F0
7C000001F0
7C000001F0
7C000000F8
F8000000F8
F8000000F8
F8000000F8
F8000000F8
F8000000F8
F8000000F8
F8000000F8
F8000000F8
F8000000F8
F8000000F8
7C000000F8
7C000001F0
7C000001F0
7E000003F0
3E000003E0
3F000007E0
1F80000FC0
0FC0001FC0
0FE0003F80
07F800FF00
03FF87FE00
01FFFFFC00
007FFFF000
001FFFC000
0003FE0000
ENDCHAR
STARTCHAR 00D3
ENCODING 211
SWIDTH 776 0
DWIDTH 41 0
BBX 37 50 2 -1
BITMAP
00001FC000
00001F0000
00003E0000
00003C0000
0000780000
0000F00000
0000E00000
0001000000
0000000000
0000000000
0003FE0000
001FFFC000
007FFFF000
00FFFFFC00
03FF8FFE00
07F800FF00
0FE0003F80
0FC0001FC0
1F80000FC0
3F000007E0
3E000003E0
3E000003F0
7C000001F0
7C000001F0
7C000000F8
F8000000F8
F8000000F8
F8000000F8
F8000000F8
F8000000F8
F8000000F8
F8000000F8
F8000000F8
F8000000F8
F8000000F8
7C000000F8
7C000001F0
7C000001F0
7E000003F0
3E000003E0
3F000007E0
1F80000FC0
0FC0001FC0
0FE0003F80
07F800FF00
03FF87FE00
01FFFFFC00
007FFFF000
001FFFC000
0003FE0000
ENDCHAR
STARTCHAR 00D4
ENCODING 212
SWIDTH 776 0
DWIDTH 41 0
BBX 37 51 2 -1
BITMAP
0000F80000
0001FC0000
0001FC0000
0003DE0000
0003CF0000
00078F0000
000F078000
000E03C000
0000000000
0000000000
0000000000
0003FE0000
001FFFC000
007FFFF000
00FFFFFC00
03FF8FFE00
07F800FF00
0FE0003F80
0FC0001FC0
1F80000FC0
3F000007E0
3E000003E0
3E000003F0
7C000001F0
7C000001F0
7C000000F8
F8000000F8
F8000000F8
F8000000F8
F8000000F8
F8000000F8
F8000000F8
F8000000F8
F8000000F8
F8000000F8
F8000000F8
7C000000F8
7C000001F0
7C000001F0
7E000003F0
3E000003E0
3F000007E0
1F80000FC0
0FC0001FC0
0FE0003F80
07F800FF00
03FF87FE00
01FFFFFC00
007FFFF000
001FFFC000
0003FE0000
ENDCHAR
STARTCHAR 00D5
ENCODING 213
SWIDTH 776 0
DWIDTH 41 0
BBX 37 49 2 -1
BITMAP
0007E0E000
000FFFE000
001FFFC000
001FFFC000
001C1F8000
0000000000
0000000000
0000000000
0000000000
0003FE0000
001FFFC000
007FFFF000
00FFFFFC00
03FF8FFE00
07F800FF00
0FE0003F80
0FC0001FC0
1F80000FC0
3F000007E0
3E000003E0
3E000003F0
7C000001F0
7C000001F0
7C000000F8
F8000000F8
F8000000F8
F8000000F8
F8000000F8
F8000000F8
F8000000F8
F8000000F8
F8000000F8
F8000000F8
F8000000F8
7C000000F8
7C000001F0
7C000001F0
7E000003F0
3E000003E0
3F000007E0
1F80000FC0
0FC0001FC0
0FE0003F80
07F800FF00
03FF87FE00
01FFFFFC00
007FFFF000
001FFFC000
0003FE0000
ENDCHAR
STARTCHAR 00D6
ENCODING 214
SWIDTH 776 0
DWIDTH 41 0
BBX 37 49 2 -1
BITMAP
000F8FC000
000F8FC000
000F8FC000
000F8FC000
000F8FC000
0000000000
0000000000
0000000000
0000000000
0003FE0000
001FFFC000
007FFFF000
00FFFFFC00
03FF8FFE00
07F800FF00
0FE0003F80
0FC0001FC0
1F80000FC0
3F000007E0
3E000003E0
3E000003F0
7C000001F0
7C000001F0
7C000000F8
F8000000F8
F8000000F8
F8000000F8
F8000000F8
F8000000F8
F8000000F8
F8000000F8
F8000000F8
F8000000F8
F8000000F8
7C000000F8
7C000001F0
7C000001F0
7E000003F0
3E000003E0
3F000007E0
1F80000FC0
0FC0001FC0
0FE0003F80
07F800FF00
03FF87FE00
01FFFFFC00
007FFFF000
001FFFC000
0003FE0000
ENDCHAR
STARTCHAR 00D7
ENCODING 215
SWIDTH 587 0
DWIDTH 31 0
BBX 21 20 5 3
BITMAP
300060
7800F0
FC01F0
7E03E0
3F07C0
1F8F80
0FDF00
07FE00
03FC00
01F800
01FC00
03FE00
07FF00
0F9F80
1F0FC0
3E07E0
7C03F0
F801F8
7000F0
200060
ENDCHAR
STARTCHAR 00D8
ENCODING 216
SWIDTH 776 0
DWIDTH 41 0
BBX 37 40 2 0
BITMAP
0003FE0038
001FFFC078
007FFFF0F0
01FFFFFDE0
03FF8FFFC0
07F800FF80
0FE0003F80
1FC0001FC0
1F80001FC0
3F00003FE0
3E00007BE0
7E0000F3F0
7C0001E1F0
7C0003C1F0
F8000781F0
F8000F00F8
F8001E00F8
F8003C00F8
F8007800F8
F800F000F8
F800E000F8
F801C000F8
F803C000F8
F8078000F8
F80F0000F8
FC1E0001F0
7C3C0001F0
7C780001F0
7EF00003F0
3FE00003E0
3FC00007E0
1F80000FC0
1FC0001F80
1FE0003F80
1FF800FF00
3BFF8FFE00
79FFFFFC00
F07FFFF000
E01FFFC000
4003FE0000
ENDCHAR
STARTCHAR 00D9
ENCODING 217
SWIDTH 720 0
DWIDTH 38 0
BBX 30 50 4 -1
BITMAP
00FC0000
007E0000
003E0000
001F0000
000F8000
00078000
0003C000
0001E000
00000000
00000000
00000000
F800007C
F800007C
F800007C
F800007C
F800007C
F800007C
F800007C
F800007C
F800007C
F800007C
F800007C
F800007C
F800007C
F800007C
F800007C
F800007C
F800007C
F800007C
F800007C
F800007C
F800007C
F800007C
F800007C
F800007C
F800007C
F800007C
F800007C
7800007C
7C00007C
7C00007C
7C0000F8
7E0000F8
3F0001F8
1FC007F0
1FF83FE0
0FFFFFC0
03FFFF80
00FFFE00
001FF000
ENDCHAR
STARTCHAR 00DA
ENCODING 218
SWIDTH 720 0
DWIDTH 38 0
BBX 30 50 4 -1
BITMAP
0000FC00
0001F800
0001F000
0003E000
0007C000
00078000
000F0000
001E0000
00000000
00000000
00000000
F800007C
F800007C
F800007C
F800007C
F800007C
F800007C
F800007C
F800007C
F800007C
F800007C
F800007C
F800007C
F800007C
F800007C
F800007C
F800007C
F800007C
F800007C
F800007C
F800007C
F800007C
F800007C
F800007C
F800007C
F800007C
F800007C
F800007C
7800007C
7C00007C
7C00007C
7C0000F8
7E0000F8
3F0001F8
1FC007F0
1FF83FE0
0FFFFFC0
03FFFF80
00FFFE00
001FF000
ENDCHAR
STARTCHAR 00DB
ENCODING 219
SWIDTH 720 0
DWIDTH 38 0
BBX 30 50 4 -1
BITMAP
000FC000
000FE000
001FE000
003EF000
003C7800
00783800
00703C00
00E01E00
00000000
00000000
00000000
F800007C
F800007C
F800007C
F800007C
F800007C
F800007C
F800007C
F800007C
F800007C
F800007C
F800007C
F800007C
F800007C
F800007C
F800007C
F800007C
F800007C
F800007C
F800007C
F800007C
F800007C
F800007C
F800007C
F800007C
F800007C
F800007C
F800007C
7800007C
7C00007C
7C00007C
7C0000F8
7E0000F8
3F0001F8
1FC007F0
1FF83FE0
0FFFFFC0
03FFFF80
00FFFE00
001FF000
ENDCHAR
STARTCHAR 00DC
ENCODING 220
SWIDTH 720 0
DWIDTH 38 0
BBX 30 49 4 -1
BITMAP
00FC7C00
00FC7C00
00FC7C00
00FC7C00
00FC7C00
00000000
00000000
00000000
00000000
00000000
F800007C
F800007C
F800007C
F800007C
F800007C
F800007C
F800007C
F800007C
F800007C
F800007C
F800007C
F800007C
F800007C
F800007C
F800007C
F800007C
F800007C
F800007C
F800007C
F800007C
F800007C
F800007C
F800007C
F800007C
F800007C
F800007C
F800007C
7800007C
7C00007C
7C00007C
7C0000F8
7E0000F8
3F0001F8
1FC007F0
1FF83FE0
0FFFFFC0
03FFFF80
00FFFE00
001FF000
ENDCHAR
STARTCHAR 00DD
ENCODING 221
SWIDTH 663 0
DWIDTH 35 0
BBX 34 49 1 0
BITMAP
00003F0000
00007E0000
00007C0000
0000F80000
0001F00000
0001E00000
0003C00000
0007800000
0000000000
0000000000
0000000000
FC00000FC0
7E00001F80
7E00003F00
3F00003F00
1F00007E00
1F80007C00
0FC000FC00
0FC000F800
07E001F800
03F003F000
03F003E000
01F807E000
00F807C000
00FC0F8000
007E1F8000
003E1F0000
003F3E0000
001F3E0000
001FFC0000
000FFC0000
0007F80000
0007F00000
0003F00000
0003E00000
0003E00000
0003E00000
0003E00000
0003E00000
0003E00000
0003E00000
0003E00000
0003E00000
0003E00000
0003E00000
0003E00000
0003E00000
0003E00000
0003E00000
ENDCHAR
STARTCHAR 00DE
ENCODING 222
SWIDTH 663 0
DWIDTH 35 0
BBX 28 38 5 0
BITMAP
F8000000
F8000000
F8000000
F8000000
F8000000
F8000000
FFFFF000
FFFFFC00
FFFFFF00
FFFFFF80
F800FFC0
F8001FC0
F80007E0
F80007E0
F80003E0
F80003E0
F80003F0
F80003F0
F80003E0
F80003E0
F80003E0
F80007E0
F8000FC0
F8003FC0
FFFFFF80
FFFFFF00
FFFFFE00
FFFFF800
F8000000
F8000000
F8000000
F8000000
F8000000
F8000000
F8000000
F8000000
F8000000
F8000000
ENDCHAR
STARTCHAR 00DF
ENCODING 223
SWIDTH 606 0
DWIDTH 32 0
BBX 25 39 4 -1
BITMAP
00FF0000
07FFE000
1FFFF000
3FFFF800
7F83FC00
7C00FE00
F8003E00
F8003E00
F0001E00
F0001E00
F0001E00
F0001E00
F0003E00
F0007C00
F000FC00
F01FF000
F03FC000
F03FC000
F03FF800
F03FFC00
F0007E00
F0003F00
F0001F80
F0000F80
F0000F80
F0000780
F0000780
F0000780
F0000780
F0000F80
F0000F80
F0001F00
F0003F00
F0007E00
F003FE00
F03FFC00
F03FF800
F03FE000
003F0000
ENDCHAR
STARTCHAR 00E0
ENCODING 224
SWIDTH 549 0
DWIDTH 29 0
BBX 26 40 2 -1
BITMAP
03F00000
01F00000
00F80000
007C0000
003C0000
001E0000
000F0000
00000000
00000000
00000000
00FF8000
03FFF000
0FFFF800
1FFFFC00
3F81FC00
3E007E00
3E003E00
3C003E00
7C001E00
00001E00
00003E00
00003E00
0003FE00
00FFFE00
07FFFE00
1FFF9E00
3FE01E00
7F001E00
7C001E00
F8001E00
F8001E00
F8003E00
F8003E00
F8007E00
7C00FE00
7E03FE00
3FFFDFC0
3FFF9FC0
0FFE0FC0
03F807C0
ENDCHAR
STARTCHAR 00E1
ENCODING 225
SWIDTH 549 0
DWIDTH 29 0
BBX 26 40 2 -1
BITMAP
0003E000
0007C000
000F8000
000F0000
001E0000
003C0000
00380000
00400000
00000000
00000000
00FF8000
03FFF000
0FFFF800
1FFFFC00
3F81FC00
3E007E00
3E003E00
3C003E00
7C001E00
00001E00
00003E00
00003E00
0003FE00
00FFFE00
07FFFE00
1FFF9E00
3FE01E00
7F001E00
7C001E00
F8001E00
F8001E00
F8003E00
F8003E00
F8007E00
7C00FE00
7E03FE00
3FFFDFC0
3FFF9FC0
0FFE0FC0
03F807C0
ENDCHAR
STARTCHAR 00E2
ENCODING 226
SWIDTH 549 0
DWIDTH 29 0
BBX 26 40 2 -1
BITMAP
003E0000
007F0000
00FF8000
00F78000
01E3C000
03C1E000
0380E000
04001000
00000000
00000000
00FF8000
03FFF000
0FFFF800
1FFFFC00
3F81FC00
3E007E00
3E003E00
3C003E00
7C001E00
00001E00
00003E00
00003E00
0003FE00
00FFFE00
07FFFE00
1FFF9E00
3FE01E00
7F001E00
7C001E00
F8001E00
F8001E00
F8003E00
F8003E00
F8007E00
7C00FE00
7E03FE00
3FFFDFC0
3FFF9FC0
0FFE0FC0
03F807C0
ENDCHAR
STARTCHAR 00E3
ENCODING 227
SWIDTH 549 0
DWIDTH 29 0
BBX 26 39 2 -1
BITMAP
01E03800
03FC7800
07FFF000
07FFF000
0F0FE000
00010000
00000000
00000000
00000000
00FF8000
03FFF000
0FFFF800
1FFFFC00
3F81FC00
3E007E00
3E003E00
3C003E00
7C001E00
00001E00
00003E00
00003E00
0003FE00
00FFFE00
07FFFE00
1FFF9E00
3FE01E00
7F001E00
7C001E00
F8001E00
F8001E00
F8003E00
F8003E00
F8007E00
7C00FE00
7E03FE00
3FFFDFC0
3FFF9FC0
0FFE0FC0
03F807C0
ENDCHAR
STARTCHAR 00E4
ENCODING 228
SWIDTH 549 0
DWIDTH 29 0
BBX 26 39 2 -1
BITMAP
07E3E000
07E3E000
07E3E000
07E3E000
07E3E000
00000000
00000000
00000000
00000000
00FF8000
03FFF000
0FFFF800
1FFFFC00
3F81FC00
3E007E00
3E003E00
3C003E00
7C001E00
00001E00
00003E00
00003E00
0003FE00
00FFFE00
07FFFE00
1FFF9E00
3FE01E00
7F001E00
7C001E00
F8001E00
F8001E00
F8003E00
F8003E00
F8007E00
7C00FE00
7E03FE00
3FFFDFC0
3FFF9FC0
0FFE0FC0
03F807C0
ENDCHAR
STARTCHAR 00E5
ENCODING 229
SWIDTH 549 0
DWIDTH 29 0
BBX 26 41 2 -1
BITMAP
003E0000
007F0000
00E38000
00C18000
00C18000
00E18000
00F78000
007F0000
003E0000
00000000
00000000
00FF8000
03FFF000
0FFFF800
1FFFFC00
3F81FC00
3E007E00
3E003E00
3C003E00
7C001E00
00001E00
00003E00
00003E00
0003FE00
00FFFE00
07FFFE00
1FFF9E00
3FE01E00
7F001E00
7C001E00
F8001E00
F8001E00
F8003E00
F8003E00
F8007E00
7C00FE00
7E03FE00
3FFFDFC0
3FFF9FC0
0FFE0FC0
03F807C0
ENDCHAR
STARTCHAR 00E6
ENCODING 230
SWIDTH 890 0
DWIDTH 47 0
BBX 43 30 2 -1
BITMAP
00FF001FC000
07FFE0FFF000
0FFFF1FFFC00
1FFFFBFFFE00
3F81FFF07F00
3E007FC01F80
7C003F800F80
7C003F0007C0
7C003E0007C0
00003E0007C0
00003E0003C0
00007C0003C0
000FFFFFFFE0
03FFFFFFFFE0
0FFFFFFFFFE0
3FFF3FFFFFE0
7FC03C000000
7E003C000000
F8003C000000
F8003E000000
F0003E0003C0
F0003E0007C0
F0007F0007C0
F800FF800F80
F801FFC01F80
7E07E7F07F00
7FFFC3FFFE00
3FFF01FFFC00
1FFE00FFF000
07F0001FC000
ENDCHAR
STARTCHAR 00E7
ENCODING 231
SWIDTH 492 0
DWIDTH 26 0
BBX 23 40 2 -11
BITMAP
007F00
03FFC0
07FFF0
0FFFF8
1F83F8
3F00FC
3E007C
7C003C
7C003E
F8003E
F80000
F80000
F00000
F00000
F00000
F00000
F00000
F00000
F00000
F8001E
F8001E
F8003E
7C003E
7C007C
3E007C
3F80F8
1FFFF8
0FFFF0
07FFE0
01FF80
003000
007000
007E00
00FF00
000F80
000780
000780
0F0F00
0FFF00
03FC00
ENDCHAR
STARTCHAR 00E8
ENCODING 232
SWIDTH 549 0
DWIDTH 29 0
BBX 25 40 2 -1
BITMAP
03F00000
01F00000
00F80000
007C0000
003C0000
001E0000
000F0000
00000000
00000000
00000000
007F0000
01FFE000
07FFF000
0FFFFC00
1FC1FC00
1F007E00
3E003F00
3C001F00
7C000F00
78000F80
78000F80
F8000F80
FFFFFF80
FFFFFF80
FFFFFF80
FFFFFF80
F8000000
F8000000
F8000000
78000000
78000F00
7C000F00
7C001F00
3E003E00
3F007E00
1FC0FC00
0FFFFC00
07FFF000
03FFE000
007F0000
ENDCHAR
STARTCHAR 00E9
ENCODING 233
SWIDTH 549 0
DWIDTH 29 0
BBX 25 40 2 -1
BITMAP
0003F000
0007E000
0007C000
000F0000
001E0000
003C0000
00380000
00000000
00000000
00000000
007F0000
01FFE000
07FFF000
0FFFFC00
1FC1FC00
1F007E00
3E003F00
3C001F00
7C000F00
78000F80
78000F80
F8000F80
FFFFFF80
FFFFFF80
FFFFFF80
FFFFFF80
F8000000
F8000000
F8000000
78000000
78000F00
7C000F00
7C001F00
3E003E00
3F007E00
1FC0FC00
0FFFFC00
07FFF000
03FFE000
007F0000
ENDCHAR
STARTCHAR 00EA
ENCODING 234
SWIDTH 549 0
DWIDTH 29 0
BBX 25 40 2 -1
BITMAP
003F0000
003F8000
007F8000
00F3C000
00F1E000
01E0E000
03C0F000
00000000
00000000
00000000
007F0000
01FFE000
07FFF000
0FFFFC00
1FC1FC00
1F007E00
3E003F00
3C001F00
7C000F00
78000F80
78000F80
F8000F80
FFFFFF80
FFFFFF80
FFFFFF80
FFFFFF80
F8000000
F8000000
F8000000
78000000
78000F00
7C000F00
7C001F00
3E003E00
3F007E00
1FC0FC00
0FFFFC00
07FFF000
03FFE000
007F0000
ENDCHAR
STARTCHAR 00EB
ENCODING 235
SWIDTH 549 0
DWIDTH 29 0
BBX 25 39 2 -1
BITMAP
03F1F000
03F1F000
03F1F000
03F1F000
03F1F000
00000000
00000000
00000000
00000000
007F0000
01FFE000
07FFF000
0FFFFC00
1FC1FC00
1F007E00
3E003F00
3C001F00
7C000F00
78000F80
78000F80
F8000F80
FFFFFF80
FFFFFF80
FFFFFF80
FFFFFF80
F8000000
F8000000
F8000000
78000000
78000F00
7C000F00
7C001F00
3E003E00
3F007E00
1FC0FC00
0FFFFC00
07FFF000
03FFE000
007F0000
ENDCHAR
STARTCHAR 00EC
ENCODING 236
SWIDTH 284 0
DWIDTH 15 0
BBX 11 39 0 0
BITMAP
FC00
7E00
3E00
1F00
0F80
0780
03C0
00E0
0000
0000
0000
0780
0780
0780
0780
0780
0780
0780
0780
0780
0780
0780
0780
0780
0780
0780
0780
0780
0780
0780
0780
0780
0780
0780
0780
0780
0780
0780
0780
ENDCHAR
STARTCHAR 00ED
ENCODING 237
SWIDTH 284 0
DWIDTH 15 0
BBX 11 39 3 0
BITMAP
07E0
0FC0
0F80
1F00
3E00
3C00
7800
F000
0000
0000
0000
3C00
3C00
3C00
3C00
3C00
3C00
3C00
3C00
3C00
3C00
3C00
3C00
3C00
3C00
3C00
3C00
3C00
3C00
3C00
3C00
3C00
3C00
3C00
3C00
3C00
3C00
3C00
3C00
ENDCHAR
STARTCHAR 00EE
ENCODING 238
SWIDTH 284 0
DWIDTH 15 0
BBX 15 39 0 0
BITMAP
0FC0
0FE0
1FE0
3EF0
3C78
7838
F03C
E01E
0000
0000
0000
0780
0780
0780
0780
0780
0780
0780
0780
0780
0780
0780
0780
0780
0780
0780
0780
0780
0780
0780
0780
0780
0780
0780
0780
0780
0780
0780
0780
ENDCHAR
STARTCHAR 00EF
ENCODING 239
SWIDTH 284 0
DWIDTH 15 0
BBX 14 37 0 0
BITMAP
FC7C
FC7C
FC7C
FC7C
FC7C
0000
0000
0000
0000
0780
0780
0780
0780
0780
0780
0780
0780
0780
0780
0780
0780
0780
0780
0780
0780
0780
0780
0780
0780
0780
0780
0780
0780
0780
0780
0780
0780
ENDCHAR
STARTCHAR 00F0
ENCODING 240
SWIDTH 549 0
DWIDTH 29 0
BBX 25 41 2 -1
BITMAP
04000000
0F018000
1FC7C000
07FF8000
03FE0000
03FC0000
0FFE0000
1F3F0000
0C1F8000
000FC000
0003E000
00FDF000
03FFF800
07FFF800
1FFFFC00
1FC1FE00
3F007E00
7E003E00
7C001F00
7C001F00
F8000F00
F8000F80
F8000F80
F8000F80
F8000F80
F8000F80
F8000F80
F8000F80
F8000F80
F8000F80
F8000F80
78000F00
7C001F00
7C001F00
3E003E00
3F007E00
1FC1FC00
1FFFF800
07FFF000
03FFE000
00FF0000
ENDCHAR
STARTCHAR 00F1
ENCODING 241
SWIDTH 549 0
DWIDTH 29 0
BBX 22 38 4 0
BITMAP
0780E0
0FF1E0
1FFFC0
1FFFC0
1C3F80
000200
000000
000000
000000
003F80
F0FFE0
F3FFF0
F7FFF8
F783F8
FE00F8
FC007C
FC007C
F8007C
F8007C
F0007C
F0007C
F0007C
F0007C
F0007C
F0007C
F0007C
F0007C
F0007C
F0007C
F0007C
F0007C
F0007C
F0007C
F0007C
F0007C
F0007C
F0007C
F0007C
ENDCHAR
STARTCHAR 00F2
ENCODING 242
SWIDTH 549 0
DWIDTH 29 0
BBX 25 40 2 -1
BITMAP
07E00000
01F00000
00F80000
00780000
003C0000
001E0000
000E0000
00000000
00000000
00000000
007F0000
03FFE000
07FFF000
0FFFF800
1FC1FC00
3F007E00
3E003E00
7C001F00
7C001F00
78001F00
F8000F80
F8000F80
F8000F80
F8000F80
F8000F80
F8000F80
F8000F80
F8000F80
F8000F80
F8000F80
78000F00
7C001F00
7C001F00
3E003E00
3F007E00
1FC1FC00
0FFFF800
07FFF000
03FFE000
007F0000
ENDCHAR
STARTCHAR 00F3
ENCODING 243
SWIDTH 549 0
DWIDTH 29 0
BBX 25 40 2 -1
BITMAP
0007E000
0007C000
000F8000
001F0000
001E0000
003C0000
00780000
00000000
00000000
00000000
007F0000
03FFE000
07FFF000
0FFFF800
1FC1FC00
3F007E00
3E003E00
7C001F00
7C001F00
78001F00
F8000F80
F8000F80
F8000F80
F8000F80
F8000F80
F8000F80
F8000F80
F8000F80
F8000F80
F8000F80
78000F00
7C001F00
7C001F00
3E003E00
3F007E00
1FC1FC00
0FFFF800
07FFF000
03FFE000
007F0000
ENDCHAR
STARTCHAR 00F4
ENCODING 244
SWIDTH 549 0
DWIDTH 29 0
BBX 25 40 2 -1
BITMAP
003E0000
007F0000
00FF8000
00F78000
01E3C000
03C1E000
0780E000
00001000
00000000
00000000
007F0000
03FFE000
07FFF000
0FFFF800
1FC1FC00
3F007E00
3E003E00
7C001F00
7C001F00
78001F00
F8000F80
F8000F80
F8000F80
F8000F80
F8000F80
F8000F80
F8000F80
F8000F80
F8000F80
F8000F80
78000F00
7C001F00
7C001F00
3E003E00
3F007E00
1FC1FC00
0FFFF800
07FFF000
03FFE000
007F0000
ENDCHAR
STARTCHAR 00F5
ENCODING 245
SWIDTH 549 0
DWIDTH 29 0
BBX 25 39 2 -1
BITMAP
01E03800
03FC7800
07FFF000
07FFF000
070FE000
00018000
00000000
00000000
00000000
007F0000
03FFE000
07FFF000
0FFFF800
1FC1FC00
3F007E00
3E003E00
7C001F00
7C001F00
78001F00
F8000F80
F8000F80
F8000F80
F8000F80
F8000F80
F8000F80
F8000F80
F8000F80
F8000F80
F8000F80
78000F00
7C001F00
7C001F00
3E003E00
3F007E00
1FC1FC00
0FFFF800
07FFF000
03FFE000
007F0000
ENDCHAR
STARTCHAR 00F6
ENCODING 246
SWIDTH 549 0
DWIDTH 29 0
BBX 25 39 2 -1
BITMAP
07E3E000
07E3E000
07E3E000
07E3E000
07E3E000
00000000
00000000
00000000
00000000
007F0000
03FFE000
07FFF000
0FFFF800
1FC1FC00
3F007E00
3E003E00
7C001F00
7C001F00
78001F00
F8000F80
F8000F80
F8000F80
F8000F80
F8000F80
F8000F80
F8000F80
F8000F80
F8000F80
F8000F80
78000F00
7C001F00
7C001F00
3E003E00
3F007E00
1FC1FC00
0FFFF800
07FFF000
03FFE000
007F0000
ENDCHAR
STARTCHAR 00F7
ENCODING 247
SWIDTH 587 0
DWIDTH 31 0
BBX 25 25 3 0
BITMAP
003E0000
003E0000
003E0000
003E0000
003E0000
003E0000
00000000
00000000
00000000
00000000
00000000
FFFFFF80
FFFFFF80
FFFFFF80
FFFFFF80
00000000
00000000
00000000
00000000
00000000
003E0000
003E0000
003E0000
003E0000
003E0000
ENDCHAR
STARTCHAR 00F8
ENCODING 248
SWIDTH 606 0
DWIDTH 32 0
BBX 27 30 1 -1
BITMAP
003F8040
01FFF0E0
03FFF9C0
07FFFF80
0FE0FF00
1F803F00
1F001F00
3E001F80
3E003F80
3C007780
7C00E7C0
7C01C7C0
7C0387C0
7C0707C0
7C0707C0
7C0E07C0
7C1C07C0
7C3807C0
7C7007C0
7CE007C0
7DC00780
3F800F80
3F800F80
1F001F00
1F803F00
1FE0FE00
3FFFFC00
73FFF800
E1FFF000
403F8000
ENDCHAR
STARTCHAR 00F9
ENCODING 249
SWIDTH 549 0
DWIDTH 29 0
BBX 22 40 3 -1
BITMAP
0FC000
07E000
03E000
01F000
00F800
007800
003C00
001E00
000000
000000
000000
F8003C
F8003C
F8003C
F8003C
F8003C
F8003C
F8003C
F8003C
F8003C
F8003C
F8003C
F8003C
F8003C
F8003C
F8003C
F8003C
F8003C
F8003C
F8003C
F8003C
F8007C
F8007C
FC00FC
7C01FC
7F03FC
3FFFBC
3FFF3C
0FFE3C
03F800
ENDCHAR
STARTCHAR 00FA
ENCODING 250
SWIDTH 549 0
DWIDTH 29 0
BBX 22 40 3 -1
BITMAP
000FC0
000F80
001F00
003E00
003C00
007800
00F000
00E000
000000
000000
000000
F8003C
F8003C
F8003C
F8003C
F8003C
F8003C
F8003C
F8003C
F8003C
F8003C
F8003C
F8003C
F8003C
F8003C
F8003C
F8003C
F8003C
F8003C
F8003C
F8003C
F8007C
F8007C
FC00FC
7C01FC
7F03FC
3FFFBC
3FFF3C
0FFE3C
03F800
ENDCHAR
STARTCHAR 00FB
ENCODING 251
SWIDTH 549 0
DWIDTH 29 0
BBX 22 40 3 -1
BITMAP
007C00
00FE00
01FF00
01EF00
03C780
0783C0
0701C0
0F01E0
000000
000000
000000
F8003C
F8003C
F8003C
F8003C
F8003C
F8003C
F8003C
F8003C
F8003C
F8003C
F8003C
F8003C
F8003C
F8003C
F8003C
F8003C
F8003C
F8003C
F8003C
F8003C
F8007C
F8007C
FC00FC
7C01FC
7F03FC
3FFFBC
3FFF3C
0FFE3C
03F800
ENDCHAR
STARTCHAR 00FC
ENCODING 252
SWIDTH 549 0
DWIDTH 29 0
BBX 22 39 3 -1
BITMAP
0FC7C0
0FC7C0
0FC7C0
0FC7C0
0FC7C0
000000
000000
000000
000000
000000
F8003C
F8003C
F8003C
F8003C
F8003C
F8003C
F8003C
F8003C
F8003C
F8003C
F8003C
F8003C
F8003C
F8003C
F8003C
F8003C
F8003C
F8003C
F8003C
F8003C
F8007C
F8007C
FC00FC
7C01FC
7F03FC
3FFFBC
3FFF3C
0FFE3C
03F800
ENDCHAR
STARTCHAR 00FD
ENCODING 253
SWIDTH 492 0
DWIDTH 26 0
BBX 24 50 1 -11
BITMAP
0007E0
000FC0
000F80
001F00
003E00
003C00
007000
00E000
000000
000000
000000
F8001F
78001F
7C001E
7C003E
3C003E
3E003C
3E007C
1E0078
1F00F8
1F00F8
0F00F0
0F81F0
0F81F0
0781E0
0783E0
07C3E0
03C3C0
03C7C0
03E780
01E780
01EF80
01FF00
00FF00
00FF00
00FE00
007E00
007E00
007C00
007C00
007800
00F800
00F800
00F000
01F000
03F000
3FE000
3FC000
3FC000
3F0000
ENDCHAR
STARTCHAR 00FE
ENCODING 254
SWIDTH 549 0
DWIDTH 29 0
BBX 25 49 3 -11
BITMAP
F0000000
F0000000
F0000000
F0000000
F0000000
F0000000
F0000000
F0000000
F0000000
F03F0000
F1FFC000
F3FFF000
F7FFF800
FFC3FC00
FF00FC00
FE007E00
FC003E00
FC001F00
F8001F00
F8001F00
F8000F00
F0000F00
F0000F80
F0000F80
F0000F80
F0000F80
F0000F00
F8000F00
F8001F00
F8001F00
FC001F00
FC003E00
FE007E00
FF00FC00
FFC3FC00
F7FFF800
F3FFF000
F1FFC000
F07F0000
F0000000
F0000000
F0000000
F0000000
F0000000
F0000000
F0000000
F0000000
F0000000
F0000000
ENDCHAR
STARTCHAR 00FF
ENCODING 255
SWIDTH 492 0
DWIDTH 26 0
BBX 24 49 1 -11
BITMAP
07C7E0
07C7E0
07C7E0
07C7E0
07C7E0
000000
000000
000000
000000
000000
F8001F
78001F
7C001E
7C003E
3C003E
3E003C
3E007C
1E0078
1F00F8
1F00F8
0F00F0
0F81F0
0F81F0
0781E0
0783E0
07C3E0
03C3C0
03C7C0
03E780
01E780
01EF80
01FF00
00FF00
00FF00
00FE00
007E00
007E00
007C00
007C00
007800
00F800
00F800
00F000
01F000
03F000
3FE000
3FC000
3FC000
3F0000
ENDCHAR
STARTCHAR 0100
ENCODING 256
SWIDTH 663 0
DWIDTH 35 0
BBX 33 47 1 0
BITMAP
007FFF0000
007FFF0000
007FFF0000
007FFF0000
0000000000
0000000000
0000000000
0000000000
0000000000
0007F00000
0007F80000
0007F80000
000FF80000
000FFC0000
000FFC0000
001F7C0000
001F7E0000
001F3E0000
003E3E0000
003E3F0000
007C1F0000
007C1F0000
007C1F8000
00F80F8000
00F80F8000
00F80FC000
01F007C000
01F007E000
01F007E000
03E003E000
03E003F000
07E003F000
07FFFFF000
07FFFFF800
0FFFFFF800
0FFFFFF800
0F8000FC00
1F80007C00
1F00007C00
1F00007E00
3F00003E00
3E00003F00
3E00003F00
7C00001F00
7C00001F80
FC00001F80
F800000F80
ENDCHAR
STARTCHAR 0101
ENCODING 257
SWIDTH 549 0
DWIDTH 29 0
BBX 26 39 2 -1
BITMAP
07FFF000
07FFF000
07FFF000
07FFF000
00000000
00000000
00000000
00000000
00000000
00FF8000
03FFF000
0FFFF800
1FFFFC00
3F81FC00
3E007E00
3E003E00
3C003E00
7C001E00
00001E00
00003E00
00003E00
0003FE00
00FFFE00
07FFFE00
1FFF9E00
3FE01E00
7F001E00
7C001E00
F8001E00
F8001E00
F8003E00
F8003E00
F8007E00
7C00FE00
7E03FE00
3FFFDFC0
3FFF9FC0
0FFE0FC0
03F807C0
ENDCHAR
STARTCHAR 0102
ENCODING 258
SWIDTH 663 0
DWIDTH 35 0
BBX 33 48 1 0
BITMAP
0070078000
0078070000
007C1F0000
003FFE0000
001FFE0000
000FF80000
0001C00000
0000000000
0000000000
0000000000
0007F00000
0007F80000
0007F80000
000FF80000
000FFC0000
000FFC0000
001F7C0000
001F7E0000
001F3E0000
003E3E0000
003E3F0000
007C1F0000
007C1F0000
007C1F8000
00F80F8000
00F80F8000
00F80FC000
01F007C000
01F007E000
01F007E000
03E003E000
03E003F000
07E003F000
07FFFFF000
07FFFFF800
0FFFFFF800
0FFFFFF800
0F8000FC00
1F80007C00
1F00007C00
1F00007E00
3F00003E00
3E00003F00
3E00003F00
7C00001F00
7C00001F80
FC00001F80
F800000F80
ENDCHAR
STARTCHAR 0103
ENCODING 259
SWIDTH 549 0
DWIDTH 29 0
BBX 26 40 2 -1
BITMAP
07007000
07007000
0780F000
07FFF000
03FFE000
01FFC000
007F0000
00000000
00000000
00000000
00FF8000
03FFF000
0FFFF800
1FFFFC00
3F81FC00
3E007E00
3E003E00
3C003E00
7C001E00
00001E00
00003E00
00003E00
0003FE00
00FFFE00
07FFFE00
1FFF9E00
3FE01E00
7F001E00
7C001E00
F8001E00
F8001E00
F8003E00
F8003E00
F8007E00
7C00FE00
7E03FE00
3FFFDFC0
3FFF9FC0
0FFE0FC0
03F807C0
ENDCHAR
STARTCHAR 0104
ENCODING 260
SWIDTH 663 0
DWIDTH 35 0
BBX 36 49 1 -11
BITMAP
0007F00000
0007F80000
0007F80000
000FF80000
000FFC0000
000FFC0000
001F7C0000
001F7E0000
001F3E0000
003E3E0000
003E3F0000
007C1F0000
007C1F0000
007C1F8000
00F80F8000
00F80F8000
00F80FC000
01F007C000
01F007E000
01F007E000
03E003E000
03E003F000
07E003F000
07FFFFF000
07FFFFF800
0FFFFFF800
0FFFFFF800
0F8000FC00
1F80007C00
1F00007C00
1F00007E00
3F00003E00
3E00003F00
3E00003F00
7C00001F00
7C00001F80
FC00001F80
F800000F80
0000000700
0000001E00
0000003C00
0000007800
0000007800
0000007000
0000007800
0000007800
0000007E30
0000003FF0
0000000FE0
ENDCHAR
STARTCHAR 0105
ENCODING 261
SWIDTH 549 0
DWIDTH 29 0
BBX 29 39 2 -10
BITMAP
00FF8000
03FFF000
0FFFF800
1FFFFC00
1F81FC00
3E007E00
3E003E00
3C003E00
3C001E00
00001E00
00003E00
00003E00
0003FE00
00FFFE00
07FFFE00
1FFF9E00
3FE01E00
7F001E00
7C001E00
78001E00
F8001E00
F8003E00
F8003E00
F8007E00
7C00FE00
7E03FE00
3FFFDFC0
3FFF9FC0
0FFE0FC0
03F807C0
00000700
00000E00
00001E00
00001C00
00003C00
00001E00
00001F00
00000FF8
000007F8
ENDCHAR
STARTCHAR 0106
ENCODING 262
SWIDTH 720 0
DWIDTH 38 0
BBX 33 50 3 -1
BITMAP
00003F0000
00007C0000
0000780000
0000F00000
0001E00000
0001C00000
0003800000
0000000000
0000000000
0000000000
0007FC0000
003FFF8000
00FFFFC000
03FFFFF000
07FE1FF800
0FE003F800
0FC000FC00
1F80007C00
3F00003E00
3E00003E00
7C00003F00
7C00001F00
7C00000000
F800000000
F800000000
F800000000
F800000000
F800000000
F800000000
F000000000
F000000000
F800000000
F800000000
F800000000
F800000000
F800000F80
F800001F80
7C00001F00
7C00001F00
7E00001F00
3E00003E00
3F00003E00
1F80007E00
1FC000FC00
0FF003F800
07FE1FF800
03FFFFF000
01FFFFC000
007FFF0000
000FF80000
ENDCHAR
STARTCHAR 0107
ENCODING 263
SWIDTH 492 0
DWIDTH 26 0
BBX 23 40 2 -1
BITMAP
0007E0
0007C0
000F80
001F00
001E00
003C00
007800
000000
000000
000000
007F00
03FFC0
07FFF0
0FFFF8
1F83F8
3F00FC
3E007C
7C003E
78003E
F8003E
F80000
F80000
F00000
F00000
F00000
F00000
F00000
F00000
F80000
F8001E
F8003E
78003E
7C003E
7E007C
3F00FC
3FC1F8
1FFFF0
0FFFE0
03FFC0
00FF00
ENDCHAR
STARTCHAR 0108
ENCODING 264
SWIDTH 720 0
DWIDTH 38 0
BBX 33 51 3 -1
BITMAP
0003E00000
0003F00000
0007F80000
000FF80000
000F3C0000
001E3C0000
003C1E0000
00380F0000
0000000000
0000000000
0000000000
0007FC0000
003FFF8000
00FFFFC000
03FFFFF000
07FE1FF800
0FE003F800
0FC000FC00
1F80007C00
3F00003E00
3E00003E00
7C00003F00
7C00001F00
7C00000000
F800000000
F800000000
F800000000
F800000000
F800000000
F800000000
F000000000
F000000000
F800000000
F800000000
F800000000
F800000000
F800000F80
F800001F80
7C00001F00
7C00001F00
7E00001F00
3E00003E00
3F00003E00
1F80007E00
1FC000FC00
0FF003F800
07FE1FF800
03FFFFF000
01FFFFC000
007FFF0000
000FF80000
ENDCHAR
STARTCHAR 0109
ENCODING 265
SWIDTH 492 0
DWIDTH 26 0
BBX 23 40 2 -1
BITMAP
007E00
007F00
00FF00
01E780
01E3C0
03C1C0
0781E0
000000
000000
000000
007F00
03FFC0
07FFF0
0FFFF8
1F83F8
3F00FC
3E007C
7C003E
78003E
F8003E
F80000
F80000
F00000
F00000
F00000
F00000
F00000
F00000
F80000
F8001E
F8003E
78003E
7C003E
7E007C
3F00FC
3FC1F8
1FFFF0
0FFFE0
03FFC0
00FF00
ENDCHAR
STARTCHAR 010A
ENCODING 266
SWIDTH 720 0
DWIDTH 38 0
BBX 33 49 3 -1
BITMAP
0003F00000
0003F00000
0003F00000
0003F00000
0003F00000
0003F00000
0000000000
0000000000
0000000000
0007FC0000
003FFF8000
00FFFFC000
03FFFFF000
07FE1FF800
0FE003F800
0FC000FC00
1F80007C00
3F00003E00
3E00003E00
7C00003F00
7C00001F00
7C00000000
F800000000
F800000000
F800000000
F800000000
F800000000
F800000000
F000000000
F000000000
F800000000
F800000000
F800000000
F800000000
F800000F80
F800001F80
7C00001F00
7C00001F00
7E00001F00
3E00003E00
3F00003E00
1F80007E00
1FC000FC00
0FF003F800
07FE1FF800
03FFFFF000
01FFFFC000
007FFF0000
000FF80000
ENDCHAR
STARTCHAR 010B
ENCODING 267
SWIDTH 492 0
DWIDTH 26 0
BBX 23 39 2 -1
BITMAP
007E00
007E00
007E00
007E00
007E00
007E00
000000
000000
000000
007F00
03FFC0
07FFF0
0FFFF8
1F83F8
3F00FC
3E007C
7C003E
78003E
F8003E
F80000
F80000
F00000
F00000
F00000
F00000
F00000
F00000
F80000
F8001E
F8003E
78003E
7C003E
7E007C
3F00FC
3FC1F8
1FFFF0
0FFFE0
03FFC0
00FF00
ENDCHAR
STARTCHAR 010C
ENCODING 268
SWIDTH 720 0
DWIDTH 38 0
BBX 33 51 3 -1
BITMAP
0078078000
003C0F0000
001E0E0000
001E1E0000
000F3C0000
0007F80000
0007F80000
0003F00000
0000000000
0000000000
0000000000
0007FC0000
003FFF8000
00FFFFC000
03FFFFF000
07FE1FF800
0FE003F800
0FC000FC00
1F80007C00
3F00003E00
3E00003E00
7C00003F00
7C00001F00
7C00000000
F800000000
F800000000
F800000000
F800000000
F800000000
F800000000
F000000000
F000000000
F800000000
F800000000
F800000000
F800000000
F800000F80
F800001F80
7C00001F00
7C00001F00
7E00001F00
3E00003E00
3F00003E00
1F80007E00
1FC000FC00
0FF003F800
07FE1FF800
03FFFFF000
01FFFFC000
007FFF0000
000FF80000
ENDCHAR
STARTCHAR 010D
ENCODING 269
SWIDTH 492 0
DWIDTH 26 0
BBX 23 40 2 -1
BITMAP
0700E0
0781E0
03C3C0
01E780
00FF80
00FF00
007E00
000000
000000
000000
007F00
03FFC0
07FFF0
0FFFF8
1F83F8
3F00FC
3E007C
7C003E
78003E
F8003E
F80000
F80000
F00000
F00000
F00000
F00000
F00000
F00000
F80000
F8001E
F8003E
78003E
7C003E
7E007C
3F00FC
3FC1F8
1FFFF0
0FFFE0
03FFC0
00FF00
ENDCHAR
STARTCHAR 010E
ENCODING 270
SWIDTH 720 0
DWIDTH 38 0
BBX 30 49 5 0
BITMAP
0380F000
03C0E000
01E1E000
00F3C000
00F78000
007F8000
003F0000
003F0000
00000000
00000000
00000000
FFFFE000
FFFFFC00
FFFFFE00
FFFFFF80
F800FFC0
F8001FC0
F80007E0
F80003F0
F80001F0
F80001F8
F80000F8
F80000F8
F80000FC
F800007C
F800007C
F800007C
F800007C
F800007C
F800007C
F800007C
F800007C
F800007C
F800007C
F800007C
F800007C
F800007C
F80000F8
F80000F8
F80001F8
F80001F0
F80003F0
F80007E0
F8001FC0
F800FFC0
FFFFFF00
FFFFFE00
FFFFF800
FFFFE000
ENDCHAR
STARTCHAR 010F
ENCODING 271
SWIDTH 644 0
DWIDTH 34 0
BBX 33 39 1 -1
BITMAP
0000078F80
0000078F80
0000078F80
0000078F80
0000078F80
0000078180
0000078180
0000078380
0000078700
007F078F00
01FFC78C00
07FFE78000
0FFFF78000
1FE1FF8000
1F807F8000
3F003F8000
3E001F8000
7C001F8000
7C000F8000
7C000F8000
78000F8000
7800078000
F800078000
F800078000
F800078000
F800078000
7800078000
78000F8000
7C000F8000
7C000F8000
7C001F8000
3E001F8000
3F003F8000
1F807F8000
1FE1FF8000
0FFFF78000
07FFE78000
03FFC78000
007F000000
ENDCHAR
STARTCHAR 0110
ENCODING 272
SWIDTH 720 0
DWIDTH 38 0
BBX 34 38 1 0
BITMAP
0FFFFE0000
0FFFFFC000
0FFFFFE000
0FFFFFF800
0F801FFC00
0F8001FC00
0F80007E00
0F80003F00
0F80001F00
0F80001F80
0F80000F80
0F80000F80
0F800007C0
0F800007C0
0F800007C0
0F800007C0
0F800007C0
FFFFC007C0
FFFFC007C0
FFFFC007C0
FFFFC007C0
0F800007C0
0F800007C0
0F800007C0
0F800007C0
0F800007C0
0F80000F80
0F80000F80
0F80001F80
0F80001F00
0F80003F00
0F80007E00
0F8001FC00
0F800FFC00
0FFFFFF800
0FFFFFE000
0FFFFFC000
0FFFFE0000
ENDCHAR
STARTCHAR 0111
ENCODING 273
SWIDTH 549 0
DWIDTH 29 0
BBX 28 39 1 -1
BITMAP
00000780
00000780
00000780
0007FFF0
0007FFF0
0007FFF0
00000780
00000780
00000780
007F0780
01FFC780
07FFE780
0FFFF780
1FE3FF80
1F807F80
3F003F80
3E001F80
7C001F80
7C000F80
7C000F80
78000F80
F8000780
F8000780
F8000780
F8000780
F8000780
78000780
78000F80
7C000F80
7C000F80
7C001F80
3E001F80
3F003F80
1F807F80
1FE1FF80
0FFFF780
07FFE780
01FFC780
007F0000
ENDCHAR
STARTCHAR 0112
ENCODING 274
SWIDTH 663 0
DWIDTH 35 0
BBX 27 47 5 0
BITMAP
03FFF000
03FFF000
03FFF000
03FFF000
00000000
00000000
00000000
00000000
00000000
FFFFFFC0
FFFFFFC0
FFFFFFC0
FFFFFFC0
F8000000
F8000000
F8000000
F8000000
F8000000
F8000000
F8000000
F8000000
F8000000
F8000000
F8000000
F8000000
F8000000
FFFFFFC0
FFFFFFC0
FFFFFFC0
FFFFFFC0
F8000000
F8000000
F8000000
F8000000
F8000000
F8000000
F8000000
F8000000
F8000000
F8000000
F8000000
F8000000
F8000000
FFFFFFE0
FFFFFFE0
FFFFFFE0
FFFFFFE0
ENDCHAR
STARTCHAR 0113
ENCODING 275
SWIDTH 549 0
DWIDTH 29 0
BBX 25 39 2 -1
BITMAP
03FFF000
03FFF000
03FFF000
03FFF000
00000000
00000000
00000000
00000000
00000000
007F0000
01FFE000
07FFF000
0FFFFC00
1FC1FC00
1F007E00
3E003F00
3C001F00
7C000F00
78000F80
78000F80
F8000F80
FFFFFF80
FFFFFF80
FFFFFF80
FFFFFF80
F8000000
F8000000
F8000000
78000000
78000F00
7C000F00
7C001F00
3E003E00
3F007E00
1FC0FC00
0FFFFC00
07FFF000
03FFE000
007F0000
ENDCHAR
STARTCHAR 0114
ENCODING 276
SWIDTH 663 0
DWIDTH 35 0
BBX 27 48 5 0
BITMAP
07803800
07807800
03E0F000
03FFF000
01FFE000
00FFC000
001C0000
00000000
00000000
00000000
FFFFFFC0
FFFFFFC0
FFFFFFC0
FFFFFFC0
F8000000
F8000000
F8000000
F8000000
F8000000
F8000000
F8000000
F8000000
F8000000
F8000000
F8000000
F8000000
F8000000
FFFFFFC0
FFFFFFC0
FFFFFFC0
FFFFFFC0
F8000000
F8000000
F8000000
F8000000
F8000000
F8000000
F8000000
F8000000
F8000000
F8000000
F8000000
F8000000
F8000000
FFFFFFE0
FFFFFFE0
FFFFFFE0
FFFFFFE0
ENDCHAR
STARTCHAR 0115
ENCODING 277
SWIDTH 549 0
DWIDTH 29 0
BBX 25 40 2 -1
BITMAP
07003800
07807800
03C07800
03FFF000
01FFE000
00FFC000
003F0000
00000000
00000000
00000000
007F0000
01FFE000
07FFF000
0FFFFC00
1FC1FC00
1F007E00
3E003F00
3C001F00
7C000F00
78000F80
78000F80
F8000F80
FFFFFF80
FFFFFF80
FFFFFF80
FFFFFF80
F8000000
F8000000
F8000000
78000000
78000F00
7C000F00
7C001F00
3E003E00
3F007E00
1FC0FC00
0FFFFC00
07FFF000
03FFE000
007F0000
ENDCHAR
STARTCHAR 0116
ENCODING 278
SWIDTH 663 0
DWIDTH 35 0
BBX 27 48 5 0
BITMAP
003F0000
003F0000
003F0000
003F0000
003F0000
003F0000
00000000
00000000
00000000
00000000
FFFFFFC0
FFFFFFC0
FFFFFFC0
FFFFFFC0
F8000000
F8000000
F8000000
F8000000
F8000000
F8000000
F8000000
F8000000
F8000000
F8000000
F8000000
F8000000
F8000000
FFFFFFC0
FFFFFFC0
FFFFFFC0
FFFFFFC0
F8000000
F8000000
F8000000
F8000000
F8000000
F8000000
F8000000
F8000000
F8000000
F8000000
F8000000
F8000000
F8000000
FFFFFFE0
FFFFFFE0
FFFFFFE0
FFFFFFE0
ENDCHAR
STARTCHAR 0117
ENCODING 279
SWIDTH 549 0
DWIDTH 29 0
BBX 25 39 2 -1
BITMAP
003F0000
003F0000
003F0000
003F0000
003F0000
003F0000
00000000
00000000
00000000
007F0000
01FFE000
07FFF000
0FFFFC00
1FC1FC00
1F007E00
3E003F00
3C001F00
7C000F00
78000F80
78000F80
F8000F80
FFFFFF80
FFFFFF80
FFFFFF80
FFFFFF80
F8000000
F8000000
F8000000
78000000
78000F00
7C000F00
7C001F00
3E003E00
3F007E00
1FC0FC00
0FFFFC00
07FFF000
03FFE000
007F0000
ENDCHAR
STARTCHAR 0118
ENCODING 280
SWIDTH 663 0
DWIDTH 35 0
BBX 29 49 5 -11
BITMAP
FFFFFFC0
FFFFFFC0
FFFFFFC0
FFFFFFC0
F8000000
F8000000
F8000000
F8000000
F8000000
F8000000
F8000000
F8000000
F8000000
F8000000
F8000000
F8000000
F8000000
FFFFFFC0
FFFFFFC0
FFFFFFC0
FFFFFFC0
F8000000
F8000000
F8000000
F8000000
F8000000
F8000000
F8000000
F8000000
F8000000
F8000000
F8000000
F8000000
F8000000
FFFFFFE0
FFFFFFE0
FFFFFFE0
FFFFFFE0
000001C0
00000780
00000F00
00001E00
00001C00
00003C00
00003C00
00001E00
00001F88
00000FF8
000003F8
ENDCHAR
STARTCHAR 0119
ENCODING 281
SWIDTH 549 0
DWIDTH 29 0
BBX 25 39 2 -10
BITMAP
007F0000
01FFE000
07FFF000
0FFFFC00
1FC1FC00
1F007E00
3E003F00
3C001F00
7C000F00
78000F80
78000F80
F8000F80
FFFFFF80
FFFFFF80
FFFFFF80
FFFFFF80
F8000000
F8000000
F8000000
78000000
78000F00
7C000F00
7C001F00
3E003F00
3F007E00
1FC0FC00
0FFFFC00
07FFF800
03FFF000
007FE000
0001C000
00038000
00078000
00078000
00078000
00078000
0007C000
0003FF00
0001FF00
ENDCHAR
STARTCHAR 011A
ENCODING 282
SWIDTH 663 0
DWIDTH 35 0
BBX 27 49 5 0
BITMAP
03C07000
01C0F000
01E1E000
00F3C000
007BC000
007F8000
003F8000
001F0000
00000000
00000000
00000000
FFFFFFC0
FFFFFFC0
FFFFFFC0
FFFFFFC0
F8000000
F8000000
F8000000
F8000000
F8000000
F8000000
F8000000
F8000000
F8000000
F8000000
F8000000
F8000000
F8000000
FFFFFFC0
FFFFFFC0
FFFFFFC0
FFFFFFC0
F8000000
F8000000
F8000000
F8000000
F8000000
F8000000
F8000000
F8000000
F8000000
F8000000
F8000000
F8000000
F8000000
FFFFFFE0
FFFFFFE0
FFFFFFE0
FFFFFFE0
ENDCHAR
STARTCHAR 011B
ENCODING 283
SWIDTH 549 0
DWIDTH 29 0
BBX 25 40 2 -1
BITMAP
03807000
01C0F000
01E1E000
00F3C000
007FC000
007F8000
003F0000
00000000
00000000
00000000
007F0000
01FFE000
07FFF000
0FFFFC00
1FC1FC00
1F007E00
3E003F00
3C001F00
7C000F00
78000F80
78000F80
F8000F80
FFFFFF80
FFFFFF80
FFFFFF80
FFFFFF80
F8000000
F8000000
F8000000
78000000
78000F00
7C000F00
7C001F00
3E003E00
3F007E00
1FC0FC00
0FFFFC00
07FFF000
03FFE000
007F0000
ENDCHAR
STARTCHAR 011C
ENCODING 284
SWIDTH 776 0
DWIDTH 41 0
BBX 35 51 2 -1
BITMAP
0000F80000
0001F80000
0001FC0000
0003FE0000
00079E0000
00078F0000
000F078000
001E038000
0000000000
0000000000
0000000000
0003FF0000
001FFFE000
007FFFF800
00FFFFFC00
03FF87FE00
07F800FF00
07E0003F80
0FC0001F80
1F80000FC0
1F000007C0
3F000007E0
3E000003E0
3E00000000
7C00000000
7C00000000
7C00000000
7800000000
F800000000
F800000000
F8001FFFE0
F8001FFFE0
F8001FFFE0
F8001FFFE0
7C000001E0
7C000001E0
7C000001E0
7C000001E0
7E000001E0
3E000003E0
3F000003E0
1F000007E0
1F800007E0
0FC0000FE0
0FE0003FE0
07F8007FE0
03FF87F9E0
01FFFFF0E0
007FFFE0E0
001FFF80E0
0003FC0000
ENDCHAR
STARTCHAR 011D
ENCODING 285
SWIDTH 549 0
DWIDTH 29 0
BBX 23 50 2 -11
BITMAP
003E00
007F00
00FF80
00F780
01E3C0
03C1E0
0380E0
0700F0
000000
000000
00FC00
03FF1E
07FF9E
0FFFDE
1F83FE
3F00FE
3E007E
7C007E
7C003E
78003E
F8003E
F8001E
F8001E
F8001E
F0001E
F0001E
F8001E
F8001E
F8001E
F8001E
F8003E
7C003E
7C007E
3E007E
3F00FE
1F83FE
0FFFDE
07FF9E
03FF1E
00FC1E
00001E
00003E
78003E
7C003C
7C007C
3F00F8
1FFFF0
0FFFE0
07FFC0
01FE00
ENDCHAR
STARTCHAR 011E
ENCODING 286
SWIDTH 776 0
DWIDTH 41 0
BBX 35 50 2 -1
BITMAP
001C00E000
001E01E000
000F03E000
000FFFC000
0007FF8000
0003FF0000
0000FC0000
0000000000
0000000000
0000000000
0003FF0000
001FFFE000
007FFFF800
00FFFFFC00
03FF87FE00
07F800FF00
07E0003F80
0FC0001F80
1F80000FC0
1F000007C0
3F000007E0
3E000003E0
3E00000000
7C00000000
7C00000000
7C00000000
7800000000
F800000000
F800000000
F8001FFFE0
F8001FFFE0
F8001FFFE0
F8001FFFE0
7C000001E0
7C000001E0
7C000001E0
7C000001E0
7E000001E0
3E000003E0
3F000003E0
1F000007E0
1F800007E0
0FC0000FE0
0FE0003FE0
07F8007FE0
03FF87F9E0
01FFFFF0E0
007FFFE0E0
001FFF80E0
0003FC0000
ENDCHAR
STARTCHAR 011F
ENCODING 287
SWIDTH 549 0
DWIDTH 29 0
BBX 23 50 2 -11
BITMAP
0F0070
0F0070
0780F0
07FFE0
03FFE0
01FF80
007F00
000000
000000
000000
00FC00
03FF1E
07FF9E
0FFFDE
1F83FE
3F00FE
3E007E
7C007E
7C003E
78003E
F8003E
F8001E
F8001E
F8001E
F0001E
F0001E
F8001E
F8001E
F8001E
F8001E
F8003E
7C003E
7C007E
3E007E
3F00FE
1F83FE
0FFFDE
07FF9E
03FF1E
00FC1E
00001E
00003E
78003E
7C003C
7C007C
3F00F8
1FFFF0
0FFFE0
07FFC0
01FE00
ENDCHAR
STARTCHAR 0120
ENCODING 288
SWIDTH 776 0
DWIDTH 41 0
BBX 35 49 2 -1
BITMAP
0000F80000
0000F80000
0000F80000
0000F80000
0000F80000
0000F80000
0000000000
0000000000
0000000000
0003FF0000
001FFFE000
007FFFF800
00FFFFFC00
03FF87FE00
07F800FF00
07E0003F80
0FC0001F80
1F80000FC0
1F000007C0
3F000007E0
3E000003E0
3E00000000
7C00000000
7C00000000
7C00000000
7800000000
F800000000
F800000000
F8001FFFE0
F8001FFFE0
F8001FFFE0
F8001FFFE0
7C000001E0
7C000001E0
7C000001E0
7C000001E0
7E000001E0
3E000003E0
3F000003E0
1F000007E0
1F800007E0
0FC0000FE0
0FE0003FE0
07F8007FE0
03FF87F9E0
01FFFFF0E0
007FFFE0E0
001FFF80E0
0003FC0000
ENDCHAR
STARTCHAR 0121
ENCODING 289
SWIDTH 549 0
DWIDTH 29 0
BBX 23 49 2 -11
BITMAP
007E00
007E00
007E00
007E00
007E00
000000
000000
000000
000000
00FC00
03FF1E
07FF9E
0FFFDE
1F83FE
3F00FE
3E007E
7C007E
7C003E
78003E
F8003E
F8001E
F8001E
F8001E
F0001E
F0001E
F8001E
F8001E
F8001E
F8001E
F8003E
7C003E
7C007E
3E007E
3F00FE
1F83FE
0FFFDE
07FF9E
03FF1E
00FC1E
00001E
00003E
78003E
7C003C
7C007C
3F00F8
1FFFF0
0FFFE0
07FFC0
01FE00
ENDCHAR
STARTCHAR 0122
ENCODING 290
SWIDTH 776 0
DWIDTH 41 0
BBX 35 54 2 -15
BITMAP
0003FF0000
001FFFE000
007FFFF800
00FFFFFC00
03FF87FE00
07F800FF00
07E0003F80
0FC0001F80
1F80000FC0
1F000007C0
3F000007E0
3E000003E0
3E00000000
7C00000000
7C00000000
7C00000000
7800000000
F800000000
F800000000
F8001FFFE0
F8001FFFE0
F8001FFFE0
F8001FFFE0
7C000001E0
7C000001E0
7C000001E0
7C000001E0
7E000001E0
3E000003E0
3F000003E0
1F000007E0
1F800007E0
0FC0000FE0
0FE0003FE0
07F8007FE0
03FF87F9E0
01FFFFF0E0
007FFFE0E0
001FFF80E0
0003FC0000
0000000000
0000000000
0000F80000
0000F80000
0000F80000
0000F80000
0000F80000
0000180000
0000180000
0000180000
0000380000
0000700000
0000E00000
0000C00000
ENDCHAR
STARTCHAR 0123
ENCODING 291
SWIDTH 549 0
DWIDTH 29 0
BBX 23 55 2 -11
BITMAP
000200
001E00
001E00
003800
003000
007000
007000
007E00
007E00
007E00
007E00
007E00
000000
000000
000000
00FC00
03FF1E
07FF9E
0FFFDE
1F83FE
3F00FE
3E007E
7C007E
7C003E
78003E
F8003E
F8001E
F8001E
F8001E
F0001E
F0001E
F8001E
F8001E
F8001E
F8001E
F8003E
7C003E
7C007E
3E007E
3F00FE
1F83FE
0FFFDE
07FF9E
03FF1E
00FC1E
00001E
00003E
78003E
7C003C
7C007C
3F00F8
1FFFF0
0FFFE0
07FFC0
01FE00
ENDCHAR
STARTCHAR 0124
ENCODING 292
SWIDTH 720 0
DWIDTH 38 0
BBX 30 49 4 0
BITMAP
0007E000
000FE000
001FF000
001EF000
003C7800
00783C00
00701C00
00F00E00
00000000
00000000
00000000
F800007C
F800007C
F800007C
F800007C
F800007C
F800007C
F800007C
F800007C
F800007C
F800007C
F800007C
F800007C
F800007C
F800007C
F800007C
F800007C
F800007C
FFFFFFFC
FFFFFFFC
FFFFFFFC
FFFFFFFC
F800007C
F800007C
F800007C
F800007C
F800007C
F800007C
F800007C
F800007C
F800007C
F800007C
F800007C
F800007C
F800007C
F800007C
F800007C
F800007C
F800007C
ENDCHAR
STARTCHAR 0125
ENCODING 293
SWIDTH 549 0
DWIDTH 29 0
BBX 27 49 -1 0
BITMAP
0FC00000
1FE00000
1FE00000
3CF00000
38F00000
78780000
F03C0000
E01C0000
00000000
00000000
00000000
07800000
07800000
07800000
07800000
07800000
07800000
07800000
07800000
07800000
0783FC00
078FFF00
079FFF80
07BFFFC0
07FC1FC0
07F007C0
07E003E0
07C003E0
07C003E0
07C003E0
078003E0
078003E0
078003E0
078003E0
078003E0
078003E0
078003E0
078003E0
078003E0
078003E0
078003E0
078003E0
078003E0
078003E0
078003E0
078003E0
078003E0
078003E0
078003E0
ENDCHAR
STARTCHAR 0126
ENCODING 294
SWIDTH 720 0
DWIDTH 38 0
BBX 38 38 0 0
BITMAP
0F800007C0
0F800007C0
0F800007C0
0F800007C0
0F800007C0
0F800007C0
0F800007C0
0F800007C0
FFFFFFFFFC
FFFFFFFFFC
FFFFFFFFFC
FFFFFFFFFC
0F800007C0
0F800007C0
0F800007C0
0F800007C0
0F800007C0
0FFFFFFFC0
0FFFFFFFC0
0FFFFFFFC0
0FFFFFFFC0
0F800007C0
0F800007C0
0F800007C0
0F800007C0
0F800007C0
0F800007C0
0F800007C0
0F800007C0
0F800007C0
0F800007C0
0F800007C0
0F800007C0
0F800007C0
0F800007C0
0F800007C0
0F800007C0
0F800007C0
ENDCHAR
STARTCHAR 0127
ENCODING 295
SWIDTH 549 0
DWIDTH 29 0
BBX 25 38 1 0
BITMAP
1E000000
1E000000
1E000000
FFFFC000
FFFFC000
FFFFC000
1E000000
1E000000
1E000000
1E0FF000
1E3FFC00
1E7FFE00
1EFFFF00
1FF07F00
1FC01F00
1F800F80
1F000F80
1F000F80
1F000F80
1E000F80
1E000F80
1E000F80
1E000F80
1E000F80
1E000F80
1E000F80
1E000F80
1E000F80
1E000F80
1E000F80
1E000F80
1E000F80
1E000F80
1E000F80
1E000F80
1E000F80
1E000F80
1E000F80
ENDCHAR
STARTCHAR 0128
ENCODING 296
SWIDTH 284 0
DWIDTH 15 0
BBX 16 48 -1 0
BITMAP
1E07
7F87
7FFF
FFFE
E0FC
0010
0000
0000
0000
0000
03E0
03E0
03E0
03E0
03E0
03E0
03E0
03E0
03E0
03E0
03E0
03E0
03E0
03E0
03E0
03E0
03E0
03E0
03E0
03E0
03E0
03E0
03E0
03E0
03E0
03E0
03E0
03E0
03E0
03E0
03E0
03E0
03E0
03E0
03E0
03E0
03E0
03E0
ENDCHAR
STARTCHAR 0129
ENCODING 297
SWIDTH 284 0
DWIDTH 15 0
BBX 16 38 -1 0
BITMAP
1E07
7F87
7FFF
FFFE
E0FC
0010
0000
0000
0000
0000
03C0
03C0
03C0
03C0
03C0
03C0
03C0
03C0
03C0
03C0
03C0
03C0
03C0
03C0
03C0
03C0
03C0
03C0
03C0
03C0
03C0
03C0
03C0
03C0
03C0
03C0
03C0
03C0
ENDCHAR
STARTCHAR 012A
ENCODING 298
SWIDTH 284 0
DWIDTH 15 0
BBX 13 47 1 0
BITMAP
FFF8
FFF8
FFF8
FFF8
0000
0000
0000
0000
0000
0F80
0F80
0F80
0F80
0F80
0F80
0F80
0F80
0F80
0F80
0F80
0F80
0F80
0F80
0F80
0F80
0F80
0F80
0F80
0F80
0F80
0F80
0F80
0F80
0F80
0F80
0F80
0F80
0F80
0F80
0F80
0F80
0F80
0F80
0F80
0F80
0F80
0F80
ENDCHAR
STARTCHAR 012B
ENCODING 299
SWIDTH 284 0
DWIDTH 15 0
BBX 13 37 1 0
BITMAP
FFF8
FFF8
FFF8
FFF8
0000
0000
0000
0000
0000
0F80
0F80
0F80
0F80
0F80
0F80
0F80
0F80
0F80
0F80
0F80
0F80
0F80
0F80
0F80
0F80
0F80
0F80
0F80
0F80
0F80
0F80
0F80
0F80
0F80
0F80
0F80
0F80
ENDCHAR
STARTCHAR 012C
ENCODING 300
SWIDTH 284 0
DWIDTH 15 0
BBX 16 48 -1 0
BITMAP
F007
700F
7C1F
7FFE
3FFC
0FF8
0380
0000
0000
0000
03E0
03E0
03E0
03E0
03E0
03E0
03E0
03E0
03E0
03E0
03E0
03E0
03E0
03E0
03E0
03E0
03E0
03E0
03E0
03E0
03E0
03E0
03E0
03E0
03E0
03E0
03E0
03E0
03E0
03E0
03E0
03E0
03E0
03E0
03E0
03E0
03E0
03E0
ENDCHAR
STARTCHAR 012D
ENCODING 301
SWIDTH 284 0
DWIDTH 15 0
BBX 16 39 -1 0
BITMAP
F007
F007
780F
7FFE
3FFE
1FFC
07F0
0000
0000
0000
0000
03C0
03C0
03C0
03C0
03C0
03C0
03C0
03C0
03C0
03C0
03C0
03C0
03C0
03C0
03C0
03C0
03C0
03C0
03C0
03C0
03C0
03C0
03C0
03C0
03C0
03C0
03C0
03C0
ENDCHAR
STARTCHAR 012E
ENCODING 302
SWIDTH 284 0
DWIDTH 15 0
BBX 9 49 3 -11
BITMAP
3E00
3E00
3E00
3E00
3E00
3E00
3E00
3E00
3E00
3E00
3E00
3E00
3E00
3E00
3E00
3E00
3E00
3E00
3E00
3E00
3E00
3E00
3E00
3E00
3E00
3E00
3E00
3E00
3E00
3E00
3E00
3E00
3E00
3E00
3E00
3E00
3E00
3E00
0E00
1C00
3800
7800
7000
7000
F000
7800
7C80
3F80
1F80
ENDCHAR
STARTCHAR 012F
ENCODING 303
SWIDTH 227 0
DWIDTH 12 0
BBX 9 49 1 -11
BITMAP
3E00
3E00
3E00
3E00
3E00
3E00
0000
0000
0000
0000
1E00
1E00
1E00
1E00
1E00
1E00
1E00
1E00
1E00
1E00
1E00
1E00
1E00
1E00
1E00
1E00
1E00
1E00
1E00
1E00
1E00
1E00
1E00
1E00
1E00
1E00
1E00
1E00
0C00
1C00
3800
7800
7000
F000
F000
F800
7D80
3F80
1F80
ENDCHAR
STARTCHAR 0130
ENCODING 304
SWIDTH 284 0
DWIDTH 15 0
BBX 5 48 5 0
BITMAP
F8
F8
F8
F8
F8
F8
00
00
00
00
F8
F8
F8
F8
F8
F8
F8
F8
F8
F8
F8
F8
F8
F8
F8
F8
F8
F8
F8
F8
F8
F8
F8
F8
F8
F8
F8
F8
F8
F8
F8
F8
F8
F8
F8
F8
F8
F8
ENDCHAR
STARTCHAR 0131
ENCODING 305
SWIDTH 284 0
DWIDTH 15 0
BBX 4 28 5 0
BITMAP
F0
F0
F0
F0
F0
F0
F0
F0
F0
F0
F0
F0
F0
F0
F0
F0
F0
F0
F0
F0
F0
F0
F0
F0
F0
F0
F0
F0
ENDCHAR
STARTCHAR 0132
ENCODING 306
SWIDTH 738 0
DWIDTH 39 0
BBX 30 39 5 -1
BITMAP
F800007C
F800007C
F800007C
F800007C
F800007C
F800007C
F800007C
F800007C
F800007C
F800007C
F800007C
F800007C
F800007C
F800007C
F800007C
F800007C
F800007C
F800007C
F800007C
F800007C
F800007C
F800007C
F800007C
F800007C
F800007C
F800007C
F8F8007C
F8F8007C
F8F8007C
F8F8007C
F8F800F8
F8FC00F8
F87C00F8
F87E01F8
F87F87F0
F83FFFE0
F81FFFC0
F807FF80
0001FC00
ENDCHAR
STARTCHAR 0133
ENCODING 307
SWIDTH 435 0
DWIDTH 23 0
BBX 14 50 5 -12
BITMAP
F03C
F03C
F03C
F03C
F03C
F03C
0000
0000
0000
0000
F03C
F03C
F03C
F03C
F03C
F03C
F03C
F03C
F03C
F03C
F03C
F03C
F03C
F03C
F03C
F03C
F03C
F03C
F03C
F03C
F03C
F03C
F03C
F03C
F03C
F03C
F03C
F03C
003C
003C
003C
003C
003C
003C
007C
007C
07FC
07F8
07F0
07C0
ENDCHAR
STARTCHAR 0134
ENCODING 308
SWIDTH 492 0
DWIDTH 26 0
BBX 26 50 1 -1
BITMAP
0001F800
0001FC00
0003FE00
0003DE00
00078F00
000F0700
000E0780
001C03C0
00000000
00000000
00000000
00007800
00007800
00007800
00007800
00007800
00007800
00007800
00007800
00007800
00007800
00007800
00007800
00007800
00007800
00007800
00007800
00007800
00007800
00007800
00007800
00007800
00007800
00007800
00007800
00007800
00007800
F8007800
F8007800
F8007800
F800F800
F800F800
FC00F800
FC01F800
7E01F000
7F87F000
3FFFE000
1FFFC000
0FFF8000
01FC0000
ENDCHAR
STARTCHAR 0135
ENCODING 309
SWIDTH 227 0
DWIDTH 12 0
BBX 15 51 -2 -12
BITMAP
07E0
0FE0
0FF0
1EF8
3C78
383C
701E
F00E
0000
0000
0000
03C0
03C0
03C0
03C0
03C0
03C0
03C0
03C0
03C0
03C0
03C0
03C0
03C0
03C0
03C0
03C0
03C0
03C0
03C0
03C0
03C0
03C0
03C0
03C0
03C0
03C0
03C0
03C0
03C0
03C0
03C0
03C0
03C0
03C0
07C0
07C0
7FC0
7F80
7F00
7C00
ENDCHAR
STARTCHAR 0136
ENCODING 310
SWIDTH 663 0
DWIDTH 35 0
BBX 30 53 4 -15
BITMAP
F80000FC
F80001F8
F80003F0
F80007E0
F8000FC0
F8001F80
F8003F00
F8007E00
F800FC00
F801F800
F803F000
F807E000
F80FC000
F81F8000
F83F0000
F87E0000
F8FF0000
F9FF0000
FBFF8000
FFCFC000
FF87C000
FF07E000
FE03F000
FC01F800
F801F800
F800FC00
F8007E00
F8003E00
F8003F00
F8001F80
F8000F80
F8000FC0
F80007E0
F80003F0
F80003F0
F80001F8
F80000FC
F800007C
00000000
00000000
00000000
000F8000
000F8000
000F8000
000F8000
000F8000
00018000
00018000
00018000
00038000
00070000
000E0000
000C0000
ENDCHAR
STARTCHAR 0137
ENCODING 311
SWIDTH 492 0
DWIDTH 26 0
BBX 23 53 3 -15
BITMAP
F00000
F00000
F00000
F00000
F00000
F00000
F00000
F00000
F00000
F00000
F000F8
F001F0
F003E0
F007C0
F00F80
F01F00
F03E00
F07C00
F0F800
F1F000
F3F800
F7F800
FFFC00
FF7E00
FE3E00
FC3F00
F81F00
F00F80
F00FC0
F007C0
F007E0
F003E0
F001F0
F001F8
F000F8
F000FC
F0007E
F0003E
000000
000000
000000
00FC00
00FC00
00FC00
00FC00
00FC00
001C00
001C00
001C00
001800
003800
00F000
00C000
ENDCHAR
STARTCHAR 0138
ENCODING 312
SWIDTH 492 0
DWIDTH 26 0
BBX 21 27 2 0
BITMAP
F00078
F000F0
F001E0
F003C0
F00780
F00F00
F01E00
F03C00
F07800
F0F000
F1E000
F3E000
F7E000
FFF000
FE7800
FC3C00
F83C00
F01E00
F00F00
F00F00
F00780
F003C0
F003C0
F001E0
F000F0
F000F8
F00078
ENDCHAR
STARTCHAR 0139
ENCODING 313
SWIDTH 549 0
DWIDTH 29 0
BBX 24 49 4 0
BITMAP
0FC000
0F8000
1F0000
3E0000
3C0000
780000
F00000
E00000
000000
000000
000000
F80000
F80000
F80000
F80000
F80000
F80000
F80000
F80000
F80000
F80000
F80000
F80000
F80000
F80000
F80000
F80000
F80000
F80000
F80000
F80000
F80000
F80000
F80000
F80000
F80000
F80000
F80000
F80000
F80000
F80000
F80000
F80000
F80000
F80000
FFFFFF
FFFFFF
FFFFFF
FFFFFF
ENDCHAR
STARTCHAR 013A
ENCODING 314
SWIDTH 227 0
DWIDTH 12 0
BBX 11 49 3 0
BITMAP
07E0
0FC0
0F80
1F00
3E00
3C00
7800
F000
0000
0000
0000
7800
7800
7800
7800
7800
7800
7800
7800
7800
7800
7800
7800
7800
7800
7800
7800
7800
7800
7800
7800
7800
7800
7800
7800
7800
7800
7800
7800
7800
7800
7800
7800
7800
7800
7800
7800
7800
7800
ENDCHAR
STARTCHAR 013B
ENCODING 315
SWIDTH 549 0
DWIDTH 29 0
BBX 24 53 4 -15
BITMAP
F80000
F80000
F80000
F80000
F80000
F80000
F80000
F80000
F80000
F80000
F80000
F80000
F80000
F80000
F80000
F80000
F80000
F80000
F80000
F80000
F80000
F80000
F80000
F80000
F80000
F80000
F80000
F80000
F80000
F80000
F80000
F80000
F80000
F80000
FFFFFF
FFFFFF
FFFFFF
FFFFFF
000000
000000
000000
003E00
003E00
003E00
003E00
003E00
000E00
000E00
000E00
000C00
001C00
003800
002000
ENDCHAR
STARTCHAR 013C
ENCODING 316
SWIDTH 227 0
DWIDTH 12 0
BBX 6 53 3 -15
BITMAP
78
78
78
78
78
78
78
78
78
78
78
78
78
78
78
78
78
78
78
78
78
78
78
78
78
78
78
78
78
78
78
78
78
78
78
78
78
78
00
00
00
FC
FC
FC
FC
FC
1C
1C
18
18
38
F0
C0
ENDCHAR
STARTCHAR 013D
ENCODING 317
SWIDTH 549 0
DWIDTH 29 0
BBX 24 38 4 0
BITMAP
F83F00
F83F00
F83F00
F83F00
F83F00
F80700
F80700
F80600
F80600
F80E00
F83C00
F83000
F80000
F80000
F80000
F80000
F80000
F80000
F80000
F80000
F80000
F80000
F80000
F80000
F80000
F80000
F80000
F80000
F80000
F80000
F80000
F80000
F80000
F80000
FFFFFF
FFFFFF
FFFFFF
FFFFFF
ENDCHAR
STARTCHAR 013E
ENCODING 318
SWIDTH 303 0
DWIDTH 16 0
BBX 12 38 4 0
BITMAP
F1F0
F1F0
F1F0
F1F0
F1F0
F030
F030
F030
F070
F0E0
F1C0
F100
F000
F000
F000
F000
F000
F000
F000
F000
F000
F000
F000
F000
F000
F000
F000
F000
F000
F000
F000
F000
F000
F000
F000
F000
F000
F000
ENDCHAR
STARTCHAR 013F
ENCODING 319
SWIDTH 549 0
DWIDTH 29 0
BBX 24 38 4 0
BITMAP
F80000
F80000
F80000
F80000
F80000
F80000
F80000
F80000
F80000
F80000
F80000
F80000
F80000
F80000
F80000
F80000
F803E0
F803E0
F803E0
F803E0
F803E0
F803E0
F80000
F80000
F80000
F80000
F80000
F80000
F80000
F80000
F80000
F80000
F80000
F80000
FFFFFF
FFFFFF
FFFFFF
FFFFFF
ENDCHAR
STARTCHAR 0140
ENCODING 320
SWIDTH 341 0
DWIDTH 18 0
BBX 13 38 4 0
BITMAP
F000
F000
F000
F000
F000
F000
F000
F000
F000
F000
F000
F000
F000
F000
F000
F000
F0F8
F0F8
F0F8
F0F8
F0F8
F0F8
F000
F000
F000
F000
F000
F000
F000
F000
F000
F000
F000
F000
F000
F000
F000
F000
ENDCHAR
STARTCHAR 0141
ENCODING 321
SWIDTH 549 0
DWIDTH 29 0
BBX 29 38 0 0
BITMAP
0F800000
0F800000
0F800000
0F800000
0F800000
0F800000
0F800000
0F800000
0F800000
0F800000
0F800000
0F804000
0F81C000
0F83C000
0F8FC000
0F9F8000
0FBE0000
0FFC0000
0FF00000
0FE00000
1FC00000
7F800000
FF800000
FF800000
EF800000
8F800000
0F800000
0F800000
0F800000
0F800000
0F800000
0F800000
0F800000
0F800000
0FFFFFF8
0FFFFFF8
0FFFFFF8
0FFFFFF8
ENDCHAR
STARTCHAR 0142
ENCODING 322
SWIDTH 227 0
DWIDTH 12 0
BBX 11 38 0 0
BITMAP
1F00
1F00
1F00
1F00
1F00
1F00
1F00
1F00
1F00
1F00
1F00
1F00
1F00
1F00
1F20
1FE0
1FE0
1FC0
1F80
3F00
7F00
FF00
DF00
9F00
1F00
1F00
1F00
1F00
1F00
1F00
1F00
1F00
1F00
1F00
1F00
1F00
1F00
1F00
ENDCHAR
STARTCHAR 0143
ENCODING 323
SWIDTH 720 0
DWIDTH 38 0
BBX 30 49 4 0
BITMAP
0000FC00
0000F800
0001F000
0003E000
0003C000
00078000
000F0000
000E0000
00000000
00000000
00000000
FC00007C
FC00007C
FE00007C
FF00007C
FF00007C
FF80007C
FFC0007C
FFC0007C
FFE0007C
FBE0007C
F9F0007C
F9F8007C
F8F8007C
F87C007C
F87E007C
F83E007C
F81F007C
F81F807C
F80F807C
F807C07C
F807E07C
F803E07C
F801F07C
F801F87C
F800F87C
F800FC7C
F8007E7C
F8003E7C
F8003F7C
F8001F7C
F8000FFC
F8000FFC
F80007FC
F80003FC
F80003FC
F80001FC
F80000FC
F80000FC
ENDCHAR
STARTCHAR 0144
ENCODING 324
SWIDTH 549 0
DWIDTH 29 0
BBX 22 39 4 0
BITMAP
000FC0
001F80
001F00
003E00
007C00
007800
00F000
01E000
000000
000000
003F80
F0FFE0
F3FFF0
F7FFF8
F783F8
FE00F8
FC007C
FC007C
F8007C
F8007C
F0007C
F0007C
F0007C
F0007C
F0007C
F0007C
F0007C
F0007C
F0007C
F0007C
F0007C
F0007C
F0007C
F0007C
F0007C
F0007C
F0007C
F0007C
F0007C
ENDCHAR
STARTCHAR 0145
ENCODING 325
SWIDTH 720 0
DWIDTH 38 0
BBX 30 53 4 -15
BITMAP
FC00007C
FC00007C
FE00007C
FF00007C
FF00007C
FF80007C
FFC0007C
FFC0007C
FFE0007C
FBE0007C
F9F0007C
F9F8007C
F8F8007C
F87C007C
F87E007C
F83E007C
F81F007C
F81F807C
F80F807C
F807C07C
F807E07C
F803E07C
F801F07C
F801F87C
F800F87C
F800FC7C
F8007E7C
F8003E7C
F8003F7C
F8001F7C
F8000FFC
F8000FFC
F80007FC
F80003FC
F80003FC
F80001FC
F80000FC
F80000FC
00000000
00000000
00000000
000F8000
000F8000
000F8000
000F8000
000F8000
00018000
00018000
00038000
00030000
00070000
000E0000
000C0000
ENDCHAR
STARTCHAR 0146
ENCODING 326
SWIDTH 549 0
DWIDTH 29 0
BBX 22 44 4 -15
BITMAP
003F80
F0FFE0
F3FFF0
F7FFF8
F783F8
FE00F8
FC007C
FC007C
F8007C
F8007C
F0007C
F0007C
F0007C
F0007C
F0007C
F0007C
F0007C
F0007C
F0007C
F0007C
F0007C
F0007C
F0007C
F0007C
F0007C
F0007C
F0007C
F0007C
F0007C
000000
000000
000000
00F800
00F800
00F800
00F800
00F800
001800
001800
001800
003800
007000
00F000
00C000
ENDCHAR
STARTCHAR 0147
ENCODING 327
SWIDTH 720 0
DWIDTH 38 0
BBX 30 49 4 0
BITMAP
00E01C00
00703C00
00787800
003CF000
003FF000
001FE000
000FC000
000FC000
00000000
00000000
00000000
FC00007C
FC00007C
FE00007C
FF00007C
FF00007C
FF80007C
FFC0007C
FFC0007C
FFE0007C
FBE0007C
F9F0007C
F9F8007C
F8F8007C
F87C007C
F87E007C
F83E007C
F81F007C
F81F807C
F80F807C
F807C07C
F807E07C
F803E07C
F801F07C
F801F87C
F800F87C
F800FC7C
F8007E7C
F8003E7C
F8003F7C
F8001F7C
F8000FFC
F8000FFC
F80007FC
F80003FC
F80003FC
F80001FC
F80000FC
F80000FC
ENDCHAR
STARTCHAR 0148
ENCODING 328
SWIDTH 549 0
DWIDTH 29 0
BBX 22 39 4 0
BITMAP
1E03C0
0F0380
078780
07CF00
03DE00
01FE00
01FC00
00F800
000000
000000
003F80
F0FFE0
F3FFF0
F7FFF8
F783F8
FE00F8
FC007C
FC007C
F8007C
F8007C
F0007C
F0007C
F0007C
F0007C
F0007C
F0007C
F0007C
F0007C
F0007C
F0007C
F0007C
F0007C
F0007C
F0007C
F0007C
F0007C
F0007C
F0007C
F0007C
ENDCHAR
STARTCHAR 0149
ENCODING 329
SWIDTH 606 0
DWIDTH 32 0
BBX 27 41 1 0
BITMAP
F8000000
F8000000
F8000000
F8000000
F8000000
38000000
38000000
38000000
30000000
70000000
E0000000
C0000000
0001FC00
0787FF00
078FFF80
079FFFC0
07BC0FE0
07F807E0
07F003E0
07E001E0
07E001E0
07C001E0
07C001E0
07C001E0
07C001E0
07C001E0
07C001E0
07C001E0
07C001E0
07C001E0
07C001E0
07C001E0
07C001E0
07C001E0
07C001E0
07C001E0
07C001E0
07C001E0
07C001E0
07C001E0
07C001E0
ENDCHAR
STARTCHAR 014A
ENCODING 330
SWIDTH 720 0
DWIDTH 38 0
BBX 28 55 5 -16
BITMAP
0007F800
F03FFE00
F07FFF80
F0FFFFC0
F1FC7FE0
F3E00FE0
F78003F0
FF0003F0
FE0001F0
FC0001F0
FC0001F0
FC0001F0
F80000F0
F80000F0
F80000F0
F80000F0
F80000F0
F80000F0
F80000F0
F80000F0
F80000F0
F80000F0
F80000F0
F80000F0
F80000F0
F80000F0
F80000F0
F80000F0
F80000F0
F80000F0
F80000F0
F80000F0
F80000F0
F80000F0
F80000F0
F80000F0
F80000F0
F80000F0
F80000F0
000000F0
000000F0
000000F0
000000F0
000000F0
000000F0
000000F0
000000F0
000001F0
000001F0
000003F0
00007FF0
00007FE0
00007FE0
00007F80
00007E00
ENDCHAR
STARTCHAR 014B
ENCODING 331
SWIDTH 549 0
DWIDTH 29 0
BBX 22 41 4 -12
BITMAP
003F80
F0FFE0
F3FFF0
F7FFF8
F781F8
FE00F8
FC007C
FC007C
F8007C
F8007C
F0007C
F0007C
F0007C
F0007C
F0007C
F0007C
F0007C
F0007C
F0007C
F0007C
F0007C
F0007C
F0007C
F0007C
F0007C
F0007C
F0007C
F0007C
F0007C
00007C
00007C
00007C
00007C
00007C
00007C
00007C
0000FC
0007F8
0007F8
0007F0
0007C0
ENDCHAR
STARTCHAR 014C
ENCODING 332
SWIDTH 776 0
DWIDTH 41 0
BBX 37 49 2 -1
BITMAP
001FFFC000
001FFFC000
001FFFC000
001FFFC000
0000000000
0000000000
0000000000
0000000000
0000000000
0003FE0000
001FFFC000
007FFFF000
00FFFFFC00
03FF8FFE00
07F800FF00
0FE0003F80
0FC0001FC0
1F80000FC0
3F000007E0
3E000003E0
3E000003F0
7C000001F0
7C000001F0
7C000000F8
F8000000F8
F8000000F8
F8000000F8
F8000000F8
F8000000F8
F8000000F8
F8000000F8
F8000000F8
F8000000F8
F8000000F8
7C000000F8
7C000001F0
7C000001F0
7E000003F0
3E000003E0
3F000007E0
1F80000FC0
0FC0001FC0
0FE0003F80
07F800FF00
03FF87FE00
01FFFFFC00
007FFFF000
001FFFC000
0003FE0000
ENDCHAR
STARTCHAR 014D
ENCODING 333
SWIDTH 549 0
DWIDTH 29 0
BBX 25 39 2 -1
BITMAP
07FFF000
07FFF000
07FFF000
07FFF000
00000000
00000000
00000000
00000000
00000000
007F0000
03FFE000
07FFF000
0FFFF800
1FC1FC00
3F007E00
3E003E00
7C001F00
7C001F00
78001F00
F8000F80
F8000F80
F8000F80
F8000F80
F8000F80
F8000F80
F8000F80
F8000F80
F8000F80
F8000F80
78000F00
7C001F00
7C001F00
3E003E00
3F007E00
1FC1FC00
0FFFF800
07FFF000
03FFE000
007F0000
ENDCHAR
STARTCHAR 014E
ENCODING 334
SWIDTH 776 0
DWIDTH 41 0
BBX 37 50 2 -1
BITMAP
001C01C000
001C01C000
001E03C000
001FFF8000
000FFF8000
0007FF0000
0001FC0000
0000000000
0000000000
0000000000
0003FE0000
001FFFC000
007FFFF000
00FFFFFC00
03FF8FFE00
07F800FF00
0FE0003F80
0FC0001FC0
1F80000FC0
3F000007E0
3E000003E0
3E000003F0
7C000001F0
7C000001F0
7C000000F8
F8000000F8
F8000000F8
F8000000F8
F8000000F8
F8000000F8
F8000000F8
F8000000F8
F8000000F8
F8000000F8
F8000000F8
7C000000F8
7C000001F0
7C000001F0
7E000003F0
3E000003E0
3F000007E0
1F80000FC0
0FC0001FC0
0FE0003F80
07F800FF00
03FF87FE00
01FFFFFC00
007FFFF000
001FFFC000
0003FE0000
ENDCHAR
STARTCHAR 014F
ENCODING 335
SWIDTH 549 0
DWIDTH 29 0
BBX 25 40 2 -1
BITMAP
0F007000
07007000
0780F000
07FFE000
03FFE000
01FFC000
007F0000
00000000
00000000
00000000
007F0000
03FFE000
07FFF000
0FFFF800
1FC1FC00
3F007E00
3E003E00
7C001F00
7C001F00
78001F00
F8000F80
F8000F80
F8000F80
F8000F80
F8000F80
F8000F80
F8000F80
F8000F80
F8000F80
F8000F80
78000F00
7C001F00
7C001F00
3E003E00
3F007E00
1FC1FC00
0FFFF800
07FFF000
03FFE000
007F0000
ENDCHAR
STARTCHAR 0150
ENCODING 336
SWIDTH 776 0
DWIDTH 41 0
BBX 37 50 2 -1
BITMAP
00007E3F00
0000F87C00
0001F07800
0001E0F000
0003C1E000
000781C000
0007038000
0000000000
0000000000
0000000000
0003FE0000
001FFFC000
007FFFF000
00FFFFFC00
03FF8FFE00
07F800FF00
0FE0003F80
0FC0001FC0
1F80000FC0
3F000007E0
3E000003E0
3E000003F0
7C000001F0
7C000001F0
7C000000F8
F8000000F8
F8000000F8
F8000000F8
F8000000F8
F8000000F8
F8000000F8
F8000000F8
F8000000F8
F8000000F8
F8000000F8
7C000000F8
7C000001F0
7C000001F0
7E000003F0
3E000003E0
3F000007E0
1F80000FC0
0FC0001FC0
0FE0003F80
07F800FF00
03FF87FE00
01FFFFFC00
007FFFF000
001FFFC000
0003FE0000
ENDCHAR
STARTCHAR 0151
ENCODING 337
SWIDTH 549 0
DWIDTH 29 0
BBX 25 40 2 -1
BITMAP
003F1F80
003E1F00
007C3E00
00F87C00
00F07800
01E0F000
03C1E000
00000000
00000000
00000000
007F0000
03FFE000
07FFF000
0FFFF800
1FC1FC00
3F007E00
3E003E00
7C001F00
7C001F00
78001F00
F8000F80
F8000F80
F8000F80
F8000F80
F8000F80
F8000F80
F8000F80
F8000F80
F8000F80
F8000F80
78000F00
7C001F00
7C001F00
3E003E00
3F007E00
1FC1FC00
0FFFF800
07FFF000
03FFE000
007F0000
ENDCHAR
STARTCHAR 0152
ENCODING 338
SWIDTH 1004 0
DWIDTH 53 0
BBX 49 40 2 -1
BITMAP
000FF000000000
003FFC3FFFFF00
00FFFF3FFFFF00
03FFFFBFFFFF00
07FC7FBFFFFF00
0FE007FE000000
0FC001FE000000
1F8000FE000000
1F0000FE000000
3E00007E000000
3E00003E000000
7C00003E000000
7C00003E000000
7C00003E000000
7C00003E000000
7800003E000000
F800003E000000
F800003E000000
F800003FFFFF00
F800003FFFFF00
F800003FFFFF00
F800003FFFFF00
F800003E000000
F800003E000000
7800003E000000
7C00003E000000
7C00003E000000
7C00003E000000
7C00003E000000
3E00003E000000
3E00007E000000
3F0000FE000000
1F8000FE000000
0FC001FE000000
0FE007FE000000
07FC3FBFFFFF80
03FFFFBFFFFF80
01FFFE3FFFFF80
007FFC3FFFFF80
000FF000000000
ENDCHAR
STARTCHAR 0153
ENCODING 339
SWIDTH 947 0
DWIDTH 50 0
BBX 45 30 2 -1
BITMAP
007F8003F800
03FFE01FFE00
07FFF03FFF80
0FFFFC7FFFC0
1FC1FCFE0FE0
3F007FF803F0
3E003FE001F0
7C001FE001F0
7C001FC000F8
78000FC000F8
78000F800078
F8000F800078
F8000FFFFFF8
F80007FFFFF8
F80007FFFFF8
F80007FFFFF8
F80007800000
F8000F800000
F8000F800000
78000F800000
7C000FC000F8
7C001FC000F8
7E001FE001F0
3E003FF001F0
3F007FF803E0
1FC1FCFE0FE0
0FFFF8FFFFC0
07FFF07FFF80
03FFE01FFE00
007F0007F800
ENDCHAR
STARTCHAR 0154
ENCODING 340
SWIDTH 720 0
DWIDTH 38 0
BBX 31 49 5 0
BITMAP
0001F800
0003F000
0003E000
0007C000
000F8000
000F0000
001E0000
003C0000
00000000
00000000
00000000
FFFFFC00
FFFFFF80
FFFFFFC0
FFFFFFE0
F8003FF0
F80003F0
F80001F8
F80000F8
F80000F8
F80000F8
F80000F8
F80000F8
F80000F8
F80000F8
F80000F8
F80001F0
F80003E0
F8003FC0
FFFFFF80
FFFFFE00
FFFFFF80
FFFFFFE0
F80007E0
F80003F0
F80001F0
F80001F0
F80000F0
F80000F0
F80000F8
F80000F8
F80000F8
F80000F8
F80000F8
F80000F8
F80000F8
F80000FC
F80000FC
F800007E
ENDCHAR
STARTCHAR 0155
ENCODING 341
SWIDTH 341 0
DWIDTH 18 0
BBX 13 39 4 0
BITMAP
01F8
01F0
03E0
07C0
0F80
0F00
1E00
3C00
0000
0000
0078
F1F8
F3F8
F7F8
F7F8
FF80
FE00
FC00
F800
F800
F800
F000
F000
F000
F000
F000
F000
F000
F000
F000
F000
F000
F000
F000
F000
F000
F000
F000
F000
ENDCHAR
STARTCHAR 0156
ENCODING 342
SWIDTH 720 0
DWIDTH 38 0
BBX 31 53 5 -15
BITMAP
FFFFFC00
FFFFFF80
FFFFFFC0
FFFFFFE0
F8003FF0
F80003F0
F80001F8
F80000F8
F80000F8
F80000F8
F80000F8
F80000F8
F80000F8
F80000F8
F80000F8
F80001F0
F80003E0
F8003FC0
FFFFFF80
FFFFFE00
FFFFFF80
FFFFFFE0
F80007E0
F80003F0
F80001F0
F80001F0
F80000F0
F80000F0
F80000F8
F80000F8
F80000F8
F80000F8
F80000F8
F80000F8
F80000F8
F80000FC
F80000FC
F800007E
00000000
00000000
00000000
000F8000
000F8000
000F8000
000F8000
000F8000
00018000
00018000
00018000
00038000
00070000
000E0000
000C0000
ENDCHAR
STARTCHAR 0157
ENCODING 343
SWIDTH 341 0
DWIDTH 18 0
BBX 14 44 3 -15
BITMAP
003C
78FC
79FC
7BFC
7BFC
7FC0
7F00
7E00
7C00
7C00
7C00
7800
7800
7800
7800
7800
7800
7800
7800
7800
7800
7800
7800
7800
7800
7800
7800
7800
7800
0000
0000
0000
FC00
FC00
FC00
FC00
FC00
1C00
1C00
1800
1800
3800
F000
C000
ENDCHAR
STARTCHAR 0158
ENCODING 344
SWIDTH 720 0
DWIDTH 38 0
BBX 31 49 5 0
BITMAP
01C07800
01E07000
00F0F000
0079E000
007BC000
003FC000
003F8000
001F8000
00000000
00000000
00000000
FFFFFC00
FFFFFF80
FFFFFFC0
FFFFFFE0
F8003FF0
F80003F0
F80001F8
F80000F8
F80000F8
F80000F8
F80000F8
F80000F8
F80000F8
F80000F8
F80000F8
F80001F0
F80003E0
F8003FC0
FFFFFF80
FFFFFE00
FFFFFF80
FFFFFFE0
F80007E0
F80003F0
F80001F0
F80001F0
F80000F0
F80000F0
F80000F8
F80000F8
F80000F8
F80000F8
F80000F8
F80000F8
F80000F8
F80000FC
F80000FC
F800007E
ENDCHAR
STARTCHAR 0159
ENCODING 345
SWIDTH 341 0
DWIDTH 18 0
BBX 14 39 3 0
BITMAP
E01C
703C
7878
3CF0
3FF0
1FE0
0FC0
0FC0
0000
0000
003C
78FC
79FC
7BFC
7BFC
7FC0
7F00
7E00
7C00
7C00
7C00
7800
7800
7800
7800
7800
7800
7800
7800
7800
7800
7800
7800
7800
7800
7800
7800
7800
7800
ENDCHAR
STARTCHAR 015A
ENCODING 346
SWIDTH 663 0
DWIDTH 35 0
BBX 30 50 3 -1
BITMAP
0001FC00
0001F000
0003E000
0003C000
00078000
000F0000
000E0000
00000000
00000000
00000000
003FE000
01FFFC00
07FFFF00
0FFFFF80
1FE03FC0
3F800FE0
3E0003E0
7C0001F0
7C0001F0
7C0001F0
7C0000F0
7C0000F0
7C000000
7E000000
7F000000
3FC00000
3FF80000
1FFF8000
0FFFF800
03FFFF00
003FFFC0
0007FFE0
00007FF0
00000FF8
000003F8
000000F8
000000FC
F000007C
F000007C
F800007C
F800007C
FC0000F8
7C0000F8
7E0001F0
3F8007F0
1FF07FE0
0FFFFFC0
07FFFF80
01FFFE00
003FF000
ENDCHAR
STARTCHAR 015B
ENCODING 347
SWIDTH 492 0
DWIDTH 26 0
BBX 22 40 2 -1
BITMAP
000FC0
001F80
001F00
003E00
007C00
007800
00F000
000000
000000
000000
01FE00
07FFC0
1FFFE0
3FFFF0
3F03F0
7C01F8
7C00F8
7800F8
F800F8
780000
7C0000
7F0000
7FE000
3FFE00
0FFFC0
03FFF0
007FF8
0007F8
0000FC
00007C
F0007C
F8003C
F8003C
F8007C
7C00FC
7F03F8
3FFFF0
3FFFE0
0FFFC0
03FE00
ENDCHAR
STARTCHAR 015C
ENCODING 348
SWIDTH 663 0
DWIDTH 35 0
BBX 30 51 3 -1
BITMAP
000F8000
001FC000
001FC000
003DE000
0079F000
0078F000
00F07800
01E03800
00000400
00000000
00000000
003FE000
01FFFC00
07FFFF00
0FFFFF80
1FE03FC0
3F800FE0
3E0003E0
7C0001F0
7C0001F0
7C0001F0
7C0000F0
7C0000F0
7C000000
7E000000
7F000000
3FC00000
3FF80000
1FFF8000
0FFFF800
03FFFF00
003FFFC0
0007FFE0
00007FF0
00000FF8
000003F8
000000F8
000000FC
F000007C
F000007C
F800007C
F800007C
FC0000F8
7C0000F8
7E0001F0
3F8007F0
1FF07FE0
0FFFFFC0
07FFFF80
01FFFE00
003FF000
ENDCHAR
STARTCHAR 015D
ENCODING 349
SWIDTH 492 0
DWIDTH 26 0
BBX 22 40 2 -1
BITMAP
00FC00
00FE00
01FE00
03EF00
03C780
078380
0F01C0
000000
000000
000000
01FE00
07FFC0
1FFFE0
3FFFF0
3F03F0
7C01F8
7C00F8
7800F8
F800F8
780000
7C0000
7F0000
7FE000
3FFE00
0FFFC0
03FFF0
007FF8
0007F8
0000FC
00007C
F0007C
F8003C
F8003C
F8007C
7C00FC
7F03F8
3FFFF0
3FFFE0
0FFFC0
03FE00
ENDCHAR
STARTCHAR 015E
ENCODING 350
SWIDTH 663 0
DWIDTH 35 0
BBX 30 50 3 -11
BITMAP
003FE000
01FFFC00
07FFFF00
0FFFFF80
1FE03FC0
3F800FE0
3E0003F0
7E0001F0
7C0001F0
7C0000F8
7C0000F8
7C0000F8
7C000000
7E000000
7F000000
3FC00000
3FF80000
1FFF8000
0FFFF000
03FFFF00
007FFFC0
0007FFE0
00007FF0
00000FF8
000003F8
000000FC
000000FC
F000007C
F000007C
F800007C
F800007C
F800007C
7C0000F8
7E0001F8
3F0003F0
3FE00FF0
1FFFFFE0
07FFFF80
03FFFF00
007FF800
00060000
000C0000
000FC000
001FE000
0001F000
0000F000
0000F000
01C1E000
01FFC000
007F8000
ENDCHAR
STARTCHAR 015F
ENCODING 351
SWIDTH 492 0
DWIDTH 26 0
BBX 22 40 2 -11
BITMAP
01FE00
07FFC0
1FFFE0
3FFFF0
3F03F0
7C01F8
7C00F8
7800F8
F800F8
780000
7C0000
7F0000
7FE000
3FFE00
0FFFC0
07FFF0
007FF8
0007F8
0000FC
00007C
00007C
F8003C
F8003C
F8007C
FC00FC
7F03F8
3FFFF0
3FFFE0
0FFFC0
03FE00
006000
00C000
00FE00
01FE00
001F00
000F00
000F00
1E1E00
1FFC00
07F800
ENDCHAR
STARTCHAR 0160
ENCODING 352
SWIDTH 663 0
DWIDTH 35 0
BBX 30 51 3 -1
BITMAP
01C01C00
00E03800
00F07800
0078F000
003DF000
003FE000
001FC000
001FC000
00000000
00000000
00000000
003FE000
01FFFC00
07FFFF00
0FFFFF80
1FE03FC0
3F800FE0
3E0003E0
7C0001F0
7C0001F0
7C0001F0
7C0000F0
7C0000F0
7C000000
7E000000
7F000000
3FC00000
3FF80000
1FFF8000
0FFFF800
03FFFF00
003FFFC0
0007FFE0
00007FF0
00000FF8
000003F8
000000F8
000000FC
F000007C
F000007C
F800007C
F800007C
FC0000F8
7C0000F8
7E0001F0
3F8007F0
1FF07FE0
0FFFFFC0
07FFFF80
01FFFE00
003FF000
ENDCHAR
STARTCHAR 0161
ENCODING 353
SWIDTH 492 0
DWIDTH 26 0
BBX 22 40 2 -1
BITMAP
0E01C0
0F03C0
078780
03CF00
03FF00
01FE00
00FC00
000000
000000
000000
01FE00
07FFC0
1FFFE0
3FFFF0
3F03F0
7C01F8
7C00F8
7800F8
F800F8
780000
7C0000
7F0000
7FE000
3FFE00
0FFFC0
03FFF0
007FF8
0007F8
0000FC
00007C
F0007C
F8003C
F8003C
F8007C
7C00FC
7F03F8
3FFFF0
3FFFE0
0FFFC0
03FE00
ENDCHAR
STARTCHAR 0162
ENCODING 354
SWIDTH 606 0
DWIDTH 32 0
BBX 30 49 1 -11
BITMAP
FFFFFFFC
FFFFFFFC
FFFFFFFC
FFFFFFFC
0007C000
0007C000
0007C000
0007C000
0007C000
0007C000
0007C000
0007C000
0007C000
0007C000
0007C000
0007C000
0007C000
0007C000
0007C000
0007C000
0007C000
0007C000
0007C000
0007C000
0007C000
0007C000
0007C000
0007C000
0007C000
0007C000
0007C000
0007C000
0007C000
0007C000
0007C000
0007C000
0007C000
0007C000
00018000
00018000
00030000
0003F000
0007F800
00007C00
00003C00
00003C00
00787800
007FF000
001FE000
ENDCHAR
STARTCHAR 0163
ENCODING 355
SWIDTH 284 0
DWIDTH 15 0
BBX 13 47 1 -11
BITMAP
1F00
1F00
1F00
1F00
1F00
1F00
1F00
1F00
FFF0
FFF0
FFF0
FFF0
1F00
1F00
1F00
1F00
1F00
1F00
1F00
1F00
1F00
1F00
1F00
1F00
1F00
1F00
1F00
1F00
1F00
1F00
1F00
1F00
1F00
0FF0
0FF0
0FF0
03F0
0600
0600
0FE0
0FF0
00F8
0078
80F0
F1F0
FFE0
1F80
ENDCHAR
STARTCHAR 0164
ENCODING 356
SWIDTH 606 0
DWIDTH 32 0
BBX 30 49 1 0
BITMAP
00F01C00
00703C00
00787800
003CF000
001EF000
001FE000
000FE000
0007C000
00000000
00000000
00000000
FFFFFFFC
FFFFFFFC
FFFFFFFC
FFFFFFFC
0007C000
0007C000
0007C000
0007C000
0007C000
0007C000
0007C000
0007C000
0007C000
0007C000
0007C000
0007C000
0007C000
0007C000
0007C000
0007C000
0007C000
0007C000
0007C000
0007C000
0007C000
0007C000
0007C000
0007C000
0007C000
0007C000
0007C000
0007C000
0007C000
0007C000
0007C000
0007C000
0007C000
0007C000
ENDCHAR
STARTCHAR 0165
ENCODING 357
SWIDTH 322 0
DWIDTH 17 0
BBX 16 43 1 -1
BITMAP
001F
001F
001F
001F
001F
0003
0003
1F07
1F06
1F1E
1F1C
1F00
1F00
1F00
FFF0
FFF0
FFF0
FFF0
1F00
1F00
1F00
1F00
1F00
1F00
1F00
1F00
1F00
1F00
1F00
1F00
1F00
1F00
1F00
1F00
1F00
1F00
1F00
1F00
1F00
0FF0
0FF0
0FF0
03F0
ENDCHAR
STARTCHAR 0166
ENCODING 358
SWIDTH 606 0
DWIDTH 32 0
BBX 30 38 1 0
BITMAP
FFFFFFFC
FFFFFFFC
FFFFFFFC
FFFFFFFC
0007C000
0007C000
0007C000
0007C000
0007C000
0007C000
0007C000
0007C000
0007C000
0FFFFFC0
0FFFFFC0
0FFFFFC0
0FFFFFC0
0007C000
0007C000
0007C000
0007C000
0007C000
0007C000
0007C000
0007C000
0007C000
0007C000
0007C000
0007C000
0007C000
0007C000
0007C000
0007C000
0007C000
0007C000
0007C000
0007C000
0007C000
ENDCHAR
STARTCHAR 0167
ENCODING 359
SWIDTH 284 0
DWIDTH 15 0
BBX 12 37 1 -1
BITMAP
1F00
1F00
1F00
1F00
1F00
1F00
1F00
1F00
FFF0
FFF0
FFF0
FFF0
1F00
1F00
1F00
1F00
FFF0
FFF0
FFF0
1F00
1F00
1F00
1F00
1F00
1F00
1F00
1F00
1F00
1F00
1F00
1F00
1F00
1F00
0FF0
0FF0
0FF0
03F0
ENDCHAR
STARTCHAR 0168
ENCODING 360
SWIDTH 720 0
DWIDTH 38 0
BBX 30 49 4 -1
BITMAP
00780E00
00FF1E00
00FFFE00
01FFFC00
01C1F800
00002000
00000000
00000000
00000000
00000000
F800007C
F800007C
F800007C
F800007C
F800007C
F800007C
F800007C
F800007C
F800007C
F800007C
F800007C
F800007C
F800007C
F800007C
F800007C
F800007C
F800007C
F800007C
F800007C
F800007C
F800007C
F800007C
F800007C
F800007C
F800007C
F800007C
F800007C
7800007C
7C00007C
7C00007C
7C0000F8
7E0000F8
3F0001F8
1FC007F0
1FF83FE0
0FFFFFC0
03FFFF80
01FFFE00
003FF000
ENDCHAR
STARTCHAR 0169
ENCODING 361
SWIDTH 549 0
DWIDTH 29 0
BBX 22 39 3 -1
BITMAP
03C070
07F0E0
0FFFE0
0FFFE0
1E1FC0
000200
000000
000000
000000
000000
F8003C
F8003C
F8003C
F8003C
F8003C
F8003C
F8003C
F8003C
F8003C
F8003C
F8003C
F8003C
F8003C
F8003C
F8003C
F8003C
F8003C
F8003C
F8003C
F8003C
F8007C
F8007C
FC00FC
7C01FC
7F03FC
3FFFBC
3FFF3C
0FFE3C
03F800
ENDCHAR
STARTCHAR 016A
ENCODING 362
SWIDTH 720 0
DWIDTH 38 0
BBX 30 48 4 -1
BITMAP
00FFFC00
00FFFC00
00FFFC00
00FFFC00
00000000
00000000
00000000
00000000
00000000
F800007C
F800007C
F800007C
F800007C
F800007C
F800007C
F800007C
F800007C
F800007C
F800007C
F800007C
F800007C
F800007C
F800007C
F800007C
F800007C
F800007C
F800007C
F800007C
F800007C
F800007C
F800007C
F800007C
F800007C
F800007C
F800007C
F800007C
7800007C
7C00007C
7C00007C
7C0000F8
7E0000F8
3F0001F8
1FC007F0
1FF83FE0
0FFFFFC0
03FFFF80
01FFFE00
003FF000
ENDCHAR
STARTCHAR 016B
ENCODING 363
SWIDTH 549 0
DWIDTH 29 0
BBX 22 38 3 -1
BITMAP
0FFFE0
0FFFE0
0FFFE0
0FFFE0
000000
000000
000000
000000
000000
F8003C
F8003C
F8003C
F8003C
F8003C
F8003C
F8003C
F8003C
F8003C
F8003C
F8003C
F8003C
F8003C
F8003C
F8003C
F8003C
F8003C
F8003C
F8003C
F8003C
F8007C
F8007C
FC00FC
7C01FC
7F03FC
3FFFBC
3FFF3C
0FFE3C
03F800
ENDCHAR
STARTCHAR 016C
ENCODING 364
SWIDTH 720 0
DWIDTH 38 0
BBX 30 49 4 -1
BITMAP
01C00E00
01E01E00
00F03C00
00FFFC00
007FF800
003FF000
00070000
00000000
00000000
00000000
F800007C
F800007C
F800007C
F800007C
F800007C
F800007C
F800007C
F800007C
F800007C
F800007C
F800007C
F800007C
F800007C
F800007C
F800007C
F800007C
F800007C
F800007C
F800007C
F800007C
F800007C
F800007C
F800007C
F800007C
F800007C
F800007C
F800007C
7800007C
7C00007C
7C00007C
7C0000F8
7E0000F8
3F0001F8
1FC007F0
1FF83FE0
0FFFFFC0
03FFFF80
01FFFE00
003FF000
ENDCHAR
STARTCHAR 016D
ENCODING 365
SWIDTH 549 0
DWIDTH 29 0
BBX 22 40 3 -1
BITMAP
0E00F0
0E00E0
0F01E0
07FFE0
07FFC0
03FF80
00FE00
000000
000000
000000
000000
F8003C
F8003C
F8003C
F8003C
F8003C
F8003C
F8003C
F8003C
F8003C
F8003C
F8003C
F8003C
F8003C
F8003C
F8003C
F8003C
F8003C
F8003C
F8003C
F8003C
F8007C
F8007C
FC00FC
7C01FC
7F03FC
3FFFBC
3FFF3C
0FFE3C
03F800
ENDCHAR
STARTCHAR 016E
ENCODING 366
SWIDTH 720 0
DWIDTH 38 0
BBX 30 51 4 -1
BITMAP
00078000
000FE000
001CE000
00187000
00183000
00187000
001C7000
000FE000
0007C000
00000000
00000000
00000000
F800007C
F800007C
F800007C
F800007C
F800007C
F800007C
F800007C
F800007C
F800007C
F800007C
F800007C
F800007C
F800007C
F800007C
F800007C
F800007C
F800007C
F800007C
F800007C
F800007C
F800007C
F800007C
F800007C
F800007C
F800007C
F800007C
F800007C
7800007C
7C00007C
7C00007C
7C0000F8
7E0000F8
3F0001F8
1FC007F0
1FF83FE0
0FFFFFC0
03FFFF80
01FFFE00
003FF000
ENDCHAR
STARTCHAR 016F
ENCODING 367
SWIDTH 549 0
DWIDTH 29 0
BBX 22 41 3 -1
BITMAP
007C00
00FE00
01EF00
018300
018300
018300
01EF00
00FE00
007800
000000
000000
000000
F8003C
F8003C
F8003C
F8003C
F8003C
F8003C
F8003C
F8003C
F8003C
F8003C
F8003C
F8003C
F8003C
F8003C
F8003C
F8003C
F8003C
F8003C
F8003C
F8003C
F8007C
F8007C
FC00FC
7C01FC
7F03FC
3FFFBC
3FFF3C
0FFE3C
03F800
ENDCHAR
STARTCHAR 0170
ENCODING 368
SWIDTH 720 0
DWIDTH 38 0
BBX 30 50 4 -1
BITMAP
0007E3F0
000FC3E0
000F87C0
001F0F80
003E0F00
003C1E00
00783C00
00703800
00000000
00000000
00000000
F800007C
F800007C
F800007C
F800007C
F800007C
F800007C
F800007C
F800007C
F800007C
F800007C
F800007C
F800007C
F800007C
F800007C
F800007C
F800007C
F800007C
F800007C
F800007C
F800007C
F800007C
F800007C
F800007C
F800007C
F800007C
F800007C
F800007C
7800007C
7C00007C
7C00007C
7C0000F8
7E0000F8
3F0001F8
1FC007F0
1FF83FE0
0FFFFFC0
03FFFF80
01FFFE00
003FF000
ENDCHAR
STARTCHAR 0171
ENCODING 369
SWIDTH 549 0
DWIDTH 29 0
BBX 24 40 3 -1
BITMAP
007E1F
007C3E
00F87C
00F078
01E0F0
03C1E0
0381C0
0703C0
000000
000000
000000
F8003C
F8003C
F8003C
F8003C
F8003C
F8003C
F8003C
F8003C
F8003C
F8003C
F8003C
F8003C
F8003C
F8003C
F8003C
F8003C
F8003C
F8003C
F8003C
F8003C
F8007C
F8007C
FC00FC
7C01FC
7F03FC
3FFFBC
3FFF3C
0FFE3C
03F800
ENDCHAR
STARTCHAR 0172
ENCODING 370
SWIDTH 720 0
DWIDTH 38 0
BBX 30 48 4 -10
BITMAP
F800007C
F800007C
F800007C
F800007C
F800007C
F800007C
F800007C
F800007C
F800007C
F800007C
F800007C
F800007C
F800007C
F800007C
F800007C
F800007C
F800007C
F800007C
F800007C
F800007C
F800007C
F800007C
F800007C
F800007C
F800007C
F800007C
F800007C
7800007C
7C00007C
7C00007C
7C0000FC
7E0000F8
3F0001F8
1FC007F0
1FF83FE0
0FFFFFE0
03FFFFC0
01FFFF80
003FFF00
00001E00
00003C00
00007800
00007800
00007800
00007800
00007C00
00003FF0
00000FF0
ENDCHAR
STARTCHAR 0173
ENCODING 371
SWIDTH 549 0
DWIDTH 29 0
BBX 24 38 3 -10
BITMAP
F8003C
F8003C
F8003C
F8003C
F8003C
F8003C
F8003C
F8003C
F8003C
F8003C
F8003C
F8003C
F8003C
F8003C
F8003C
F8003C
F8003C
F8003C
F8003C
F8003C
F8007C
F8007C
FC00FC
7C01FC
7F03FC
3FFFBC
3FFF3C
0FFE3C
03F81C
000070
0000E0
0001E0
0001E0
0001C0
0001E0
0001F0
0000FF
00007F
ENDCHAR
STARTCHAR 0174
ENCODING 372
SWIDTH 947 0
DWIDTH 50 0
BBX 48 49 1 0
BITMAP
000007E00000
00000FE00000
00000FF00000
00001EF80000
00003C780000
0000383C0000
0000781C0000
0000F00E0000
000000000000
000000000000
000000000000
FC0007E0003F
7C0007E0003F
7C0007E0003E
7C000FF0003E
7E000FF0003E
3E000FF0007E
3E000FF8007C
3E001FF8007C
3F001FF8007C
1F001E7800FC
1F001E7C00F8
1F003E7C00F8
1F803C3C00F8
0F803C3E01F8
0F807C3E01F0
0F807C3E01F0
0FC0781E01F0
07C0781F01F0
07C0F81F03E0
07C0F80F03E0
07C0F00F83E0
03E1F00F83E0
03E1F00F87C0
03E1E00787C0
03E1E007C7C0
01F3E007C780
01F3E003CF80
01F3C003EF80
00F3C003EF80
00FFC003EF00
00FF8001EF00
00FF8001FF00
007F8001FF00
007F8000FE00
007F0000FE00
007F0000FE00
003F0000FE00
003F00007C00
ENDCHAR
STARTCHAR 0175
ENCODING 373
SWIDTH 720 0
DWIDTH 38 0
BBX 37 39 0 0
BITMAP
0000FC0000
0001FC0000
0001FE0000
0003DF0000
00078F0000
0007078000
000F03C000
001E01C000
0000000000
0000000000
0000000000
F800FC00F8
7C00FC00F8
7C01FC00F8
7C01FC00F0
3C01FE01F0
3E01FE01F0
3E01FE01E0
3E03DE01E0
1E03DF03E0
1F03DF03E0
1F03CF03C0
0F078F03C0
0F078F87C0
0F87878780
0F87878780
078F078F80
078F07CF80
07CF03CF00
03CF03CF00
03DE03DF00
03DE03FE00
03FE01FE00
01FE01FE00
01FC01FE00
01FC01FC00
00FC00FC00
00FC00FC00
00F800F800
ENDCHAR
STARTCHAR 0176
ENCODING 374
SWIDTH 663 0
DWIDTH 35 0
BBX 34 49 1 0
BITMAP
0003F00000
0003F80000
0007F80000
000FBC0000
000F1E0000
001E1E0000
003C0F0000
0038078000
0000000000
0000000000
0000000000
FC00000FC0
7E00001F80
7E00001F00
3F00003F00
1F80007E00
1F80007C00
0FC000FC00
0FC000F800
07E001F800
03F003F000
03F003E000
01F807E000
00F807C000
00FC0F8000
007E1F8000
003E1F0000
003F3F0000
001F3E0000
000FFC0000
000FFC0000
0007F80000
0007F00000
0003F00000
0001E00000
0001E00000
0001E00000
0001E00000
0001E00000
0001E00000
0001E00000
0001E00000
0001E00000
0001E00000
0001E00000
0001E00000
0001E00000
0001E00000
0001E00000
ENDCHAR
STARTCHAR 0177
ENCODING 375
SWIDTH 492 0
DWIDTH 26 0
BBX 24 50 1 -11
BITMAP
007E00
007F00
00FF00
01F780
01E3C0
03C1C0
0781E0
0700F0
000000
000000
000000
F8001F
78001F
7C001E
7C003E
3C003E
3E003C
3E007C
1E0078
1F00F8
1F00F8
0F00F0
0F81F0
0F81F0
0781E0
0783E0
07C3E0
03C3C0
03C7C0
03E780
01E780
01EF80
01FF00
00FF00
00FF00
00FE00
007E00
007E00
007C00
007C00
007800
00F800
00F800
00F000
01F000
03F000
3FE000
3FC000
3FC000
3F0000
ENDCHAR
STARTCHAR 0178
ENCODING 376
SWIDTH 663 0
DWIDTH 35 0
BBX 34 48 1 0
BITMAP
003E1F0000
003E1F0000
003E1F0000
003E1F0000
003E1F0000
0000000000
0000000000
0000000000
0000000000
0000000000
FC00000FC0
7E00001F80
7E00001F00
3F00003F00
1F80007E00
1F80007C00
0FC000FC00
0FC000F800
07E001F800
03F003F000
03F003E000
01F807E000
00F807C000
00FC0F8000
007E1F8000
003E1F0000
003F3F0000
001F3E0000
000FFC0000
000FFC0000
0007F80000
0007F00000
0003F00000
0001E00000
0001E00000
0001E00000
0001E00000
0001E00000
0001E00000
0001E00000
0001E00000
0001E00000
0001E00000
0001E00000
0001E00000
0001E00000
0001E00000
0001E00000
ENDCHAR
STARTCHAR 0179
ENCODING 377
SWIDTH 606 0
DWIDTH 32 0
BBX 30 49 1 0
BITMAP
00007E00
0000FC00
0000F800
0001F000
0003E000
0003C000
00078000
000F0000
00000000
00000000
00000000
3FFFFFFC
3FFFFFFC
3FFFFFFC
3FFFFFFC
000001FC
000001F8
000003F0
000007E0
00000FC0
00000FC0
00001F80
00003F00
00007E00
0000FE00
0000FC00
0001F800
0003F000
0007E000
000FE000
000FC000
001F8000
003F0000
007E0000
00FE0000
00FC0000
01F80000
03F00000
07F00000
07E00000
0FC00000
1F800000
3F000000
7F000000
7E000000
FFFFFFFC
FFFFFFFC
FFFFFFFC
FFFFFFFC
ENDCHAR
STARTCHAR 017A
ENCODING 378
SWIDTH 492 0
DWIDTH 26 0
BBX 22 39 2 0
BITMAP
000FC0
000F80
001F00
003E00
003C00
007800
00F000
00E000
000000
000000
000000
7FFFF8
7FFFF8
7FFFF8
7FFFF8
0000F8
0001F0
0003E0
0007C0
000FC0
000F80
001F00
003E00
007C00
00FC00
01F800
01F000
03E000
07C000
0FC000
1F8000
1F0000
3E0000
7C0000
F80000
FFFFFC
FFFFFC
FFFFFC
FFFFFC
ENDCHAR
STARTCHAR 017B
ENCODING 379
SWIDTH 606 0
DWIDTH 32 0
BBX 30 48 1 0
BITMAP
0007E000
0007E000
0007E000
0007E000
0007E000
0007E000
00000000
00000000
00000000
00000000
3FFFFFFC
3FFFFFFC
3FFFFFFC
3FFFFFFC
000001FC
000001F8
000003F0
000007E0
00000FC0
00000FC0
00001F80
00003F00
00007E00
0000FE00
0000FC00
0001F800
0003F000
0007E000
000FE000
000FC000
001F8000
003F0000
007E0000
00FE0000
00FC0000
01F80000
03F00000
07F00000
07E00000
0FC00000
1F800000
3F000000
7F000000
7E000000
FFFFFFFC
FFFFFFFC
FFFFFFFC
FFFFFFFC
ENDCHAR
STARTCHAR 017C
ENCODING 380
SWIDTH 492 0
DWIDTH 26 0
BBX 22 38 2 0
BITMAP
00FC00
00FC00
00FC00
00FC00
00FC00
00FC00
000000
000000
000000
000000
7FFFF8
7FFFF8
7FFFF8
7FFFF8
0000F8
0001F0
0003E0
0007C0
000FC0
000F80
001F00
003E00
007C00
00FC00
01F800
01F000
03E000
07C000
0FC000
1F8000
1F0000
3E0000
7C0000
F80000
FFFFFC
FFFFFC
FFFFFC
FFFFFC
ENDCHAR
STARTCHAR 017D
ENCODING 381
SWIDTH 606 0
DWIDTH 32 0
BBX 30 49 1 0
BITMAP
00701E00
00781C00
003C3C00
001E7800
001EF000
000FF000
0007E000
0007E000
00000000
00000000
00000000
3FFFFFFC
3FFFFFFC
3FFFFFFC
3FFFFFFC
000001FC
000001F8
000003F0
000007E0
00000FC0
00000FC0
00001F80
00003F00
00007E00
0000FE00
0000FC00
0001F800
0003F000
0007E000
000FE000
000FC000
001F8000
003F0000
007E0000
00FE0000
00FC0000
01F80000
03F00000
07F00000
07E00000
0FC00000
1F800000
3F000000
7F000000
7E000000
FFFFFFFC
FFFFFFFC
FFFFFFFC
FFFFFFFC
ENDCHAR
STARTCHAR 017E
ENCODING 382
SWIDTH 492 0
DWIDTH 26 0
BBX 22 39 2 0
BITMAP
0E01C0
0703C0
078780
03CF00
01EF00
01FE00
00FC00
007C00
000000
000000
000000
7FFFF8
7FFFF8
7FFFF8
7FFFF8
0000F8
0001F0
0003E0
0007C0
000FC0
000F80
001F00
003E00
007C00
00FC00
01F800
01F000
03E000
07C000
0FC000
1F8000
1F0000
3E0000
7C0000
F80000
FFFFFC
FFFFFC
FFFFFC
FFFFFC
ENDCHAR
STARTCHAR 017F
ENCODING 383
SWIDTH 227 0
DWIDTH 12 0
BBX 13 39 -1 0
BITMAP
00F8
03F8
07F8
07F8
0F80
0F80
0F80
0F80
0F80
0F80
0F80
FF80
FF80
FF80
FF80
0F80
0F80
0F80
0F80
0F80
0F80
0F80
0F80
0F80
0F80
0F80
0F80
0F80
0F80
0F80
0F80
0F80
0F80
0F80
0F80
0F80
0F80
0F80
0F80
ENDCHAR
STARTCHAR 0192
ENCODING 402
SWIDTH 549 0
DWIDTH 29 0
BBX 27 50 1 -11
BITMAP
000007C0
00001FE0
00007FE0
00007FE0
0000FC40
0001F800
0001F000
0001E000
0003E000
0003E000
0003C000
0003C000
0007C000
0007C000
03FFFF00
03FFFF00
03FFFF00
03FFFF00
000F8000
000F8000
000F8000
000F0000
000F0000
001F0000
001F0000
001F0000
001E0000
001E0000
003E0000
003E0000
003E0000
003C0000
003C0000
007C0000
007C0000
007C0000
007C0000
00780000
00780000
00F80000
00F80000
00F80000
00F00000
01F00000
03E00000
87E00000
FFC00000
FF800000
FF000000
FC000000
ENDCHAR
STARTCHAR 01FA
ENCODING 506
SWIDTH 663 0
DWIDTH 35 0
BBX 33 56 1 0
BITMAP
0007E00000
000FC00000
000F800000
001F000000
003E000000
003C000000
0079E00000
0007F00000
0007780000
000E180000
000C180000
000C180000
000E380000
0007F00000
0003E00000
0000000000
0000000000
0000000000
0007F00000
0007F80000
0007F80000
000FF80000
000FFC0000
000FFC0000
001F7C0000
001F7E0000
001F3E0000
003E3E0000
003E3F0000
007C1F0000
007C1F0000
007C1F8000
00F80F8000
00F80F8000
00F80FC000
01F007C000
01F007E000
01F007E000
03E003E000
03E003F000
07E003F000
07FFFFF000
07FFFFF800
0FFFFFF800
0FFFFFF800
0F8000FC00
1F80007C00
1F00007C00
1F00007E00
3F00003E00
3E00003F00
3E00003F00
7C00001F00
7C00001F80
FC00001F80
F800000F80
ENDCHAR
STARTCHAR 01FB
ENCODING 507
SWIDTH 549 0
DWIDTH 29 0
BBX 26 49 2 -1
BITMAP
003F0000
007E0000
007C0000
00F80000
00F00000
01E00000
03C00000
03800000
003E0000
007F0000
00E38000
00E18000
00C18000
00E18000
00738000
007F0000
001E0000
00000000
00000000
00FF8000
03FFF000
0FFFF800
1FFFFC00
3F81FC00
3E007E00
3E003E00
3C003E00
7C001E00
00001E00
00003E00
00003E00
0003FE00
00FFFE00
07FFFE00
1FFF9E00
3FE01E00
7F001E00
7C001E00
F8001E00
F8001E00
F8003E00
F8003E00
F8007E00
7C00FE00
7E03FE00
3FFFDFC0
3FFF9FC0
0FFE0FC0
03F807C0
ENDCHAR
STARTCHAR 01FC
ENCODING 508
SWIDTH 1004 0
DWIDTH 53 0
BBX 49 49 1 0
BITMAP
00000001F80000
00000003F00000
00000003E00000
00000007C00000
0000000F800000
0000000F000000
0000001E000000
0000003C000000
00000000000000
00000000000000
00000000000000
0001FFFFFFFF00
0001FFFFFFFF00
0003FFFFFFFF00
0003FFFFFFFF00
0007C0F8000000
0007C0F8000000
0007C0F8000000
000F80F8000000
000F80F8000000
001F00F8000000
001F00F8000000
001F00F8000000
003E00F8000000
003E00F8000000
007C00F8000000
007C00F8000000
007C00F8000000
00F800FFFFFE00
00F800FFFFFE00
01F000FFFFFE00
01F000FFFFFE00
03F000F8000000
03E000F8000000
03FFFFF8000000
07FFFFF8000000
07FFFFF8000000
0FFFFFF8000000
0F8000F8000000
0F8000F8000000
1F0000F8000000
1F0000F8000000
3F0000F8000000
3E0000F8000000
7E0000F8000000
7C0000FFFFFF80
7C0000FFFFFF80
FC0000FFFFFF80
F80000FFFFFF80
ENDCHAR
STARTCHAR 01FD
ENCODING 509
SWIDTH 890 0
DWIDTH 47 0
BBX 43 40 2 -1
BITMAP
000003F00000
000003E00000
000007C00000
00000F800000
00000F000000
00001E000000
00003C000000
000000000000
000000000000
000000000000
00FF001FC000
07FFE0FFF000
0FFFF1FFFC00
1FFFFBFFFE00
3F81FFF07F00
3E007FC01F80
7C003F800F80
7C003F0007C0
7C003E0007C0
00003E0007C0
00003E0003C0
00007C0003C0
000FFFFFFFE0
03FFFFFFFFE0
0FFFFFFFFFE0
3FFF3FFFFFE0
7FC03C000000
7E003C000000
F8003C000000
F8003E000000
F0003E0003C0
F0003E0007C0
F0007F0007C0
F800FF800F80
F801FFC01F80
7E07E7F07F00
7FFFC3FFFE00
3FFF01FFFC00
1FFE00FFF000
07F0001FC000
ENDCHAR
STARTCHAR 01FE
ENCODING 510
SWIDTH 776 0
DWIDTH 41 0
BBX 37 50 2 -1
BITMAP
00003F0000
00007E0000
00007C0000
0000F80000
0001F00000
0001E00000
0003C00000
0000000000
0000000000
0000000000
0003FE0038
001FFFC078
007FFFF0F0
01FFFFFDE0
03FF8FFFC0
07F800FF80
0FE0003F80
1FC0001FC0
1F80001FC0
3F00003FE0
3E00007BE0
7E0000F3F0
7C0001E1F0
7C0003C1F0
F8000781F0
F8000F00F8
F8001E00F8
F8003C00F8
F8007800F8
F800F000F8
F800E000F8
F801C000F8
F803C000F8
F8078000F8
F80F0000F8
FC1E0001F0
7C3C0001F0
7C780001F0
7EF00003F0
3FE00003E0
3FC00007E0
1F80000FC0
1FC0001F80
1FE0003F80
1FF800FF00
3BFF8FFE00
79FFFFFC00
F07FFFF000
E01FFFC000
4003FE0000
ENDCHAR
STARTCHAR 01FF
ENCODING 511
SWIDTH 606 0
DWIDTH 32 0
BBX 27 41 1 -1
BITMAP
0003F000
0007C000
000F8000
000F0000
001E0000
003C0000
00380000
00000000
00000000
00000000
00000000
003F8040
01FFF0E0
03FFF9C0
07FFFF80
0FE0FF00
1F803F00
1F001F00
3E001F80
3E003F80
3C007780
7C00E7C0
7C01C7C0
7C0387C0
7C0707C0
7C0707C0
7C0E07C0
7C1C07C0
7C3807C0
7C7007C0
7CE007C0
7DC00780
3F800F80
3F800F80
1F001F00
1F803F00
1FE0FE00
3FFFFC00
73FFF800
E1FFF000
403F8000
ENDCHAR
STARTCHAR 0218
ENCODING 536
SWIDTH 663 0
DWIDTH 35 0
BBX 30 54 3 -15
BITMAP
003FE000
01FFFC00
07FFFF00
0FFFFF80
1FE03FC0
3F800FE0
3E0003E0
7C0001F0
7C0001F0
7C0001F0
7C0000F0
7C0000F0
7C000000
7E000000
7F000000
3FC00000
3FF80000
1FFF8000
0FFFF800
03FFFF00
003FFFC0
0007FFE0
00007FF0
00000FF8
000003F8
000000F8
000000FC
F000007C
F000007C
F800007C
F800007C
FC0000F8
7C0000F8
7E0001F0
3F8007F0
1FF07FE0
0FFFFFC0
07FFFF80
01FFFE00
003FF000
00000000
00000000
000FC000
000FC000
000FC000
000FC000
000FC000
0001C000
0001C000
00018000
00018000
00038000
000F0000
000C0000
ENDCHAR
STARTCHAR 0219
ENCODING 537
SWIDTH 492 0
DWIDTH 26 0
BBX 22 44 2 -15
BITMAP
01FE00
07FFC0
1FFFE0
3FFFF0
3F03F0
7C01F8
7C00F8
7800F8
F800F8
780000
7C0000
7F0000
7FE000
3FFE00
0FFFC0
03FFF0
007FF8
0007F8
0000FC
00007C
F0007C
F8003C
F8003C
F8007C
7C00FC
7F03F8
3FFFF0
3FFFE0
0FFFC0
03FE00
000000
000000
00FC00
00FC00
00FC00
00FC00
00FC00
001C00
001C00
001800
001800
003800
00F000
00C000
ENDCHAR
STARTCHAR 021A
ENCODING 538
SWIDTH 606 0
DWIDTH 32 0
BBX 30 53 1 -15
BITMAP
FFFFFFFC
FFFFFFFC
FFFFFFFC
FFFFFFFC
0007C000
0007C000
0007C000
0007C000
0007C000
0007C000
0007C000
0007C000
0007C000
0007C000
0007C000
0007C000
0007C000
0007C000
0007C000
0007C000
0007C000
0007C000
0007C000
0007C000
0007C000
0007C000
0007C000
0007C000
0007C000
0007C000
0007C000
0007C000
0007C000
0007C000
0007C000
0007C000
0007C000
0007C000
00000000
00000000
00000000
0007C000
0007C000
0007C000
0007C000
0007C000
0000C000
0000C000
0001C000
00018000
00038000
00070000
00060000
ENDCHAR
STARTCHAR 021B
ENCODING 539
SWIDTH 284 0
DWIDTH 15 0
BBX 12 51 1 -15
BITMAP
1F00
1F00
1F00
1F00
1F00
1F00
1F00
1F00
FFF0
FFF0
FFF0
FFF0
1F00
1F00
1F00
1F00
1F00
1F00
1F00
1F00
1F00
1F00
1F00
1F00
1F00
1F00
1F00
1F00
1F00
1F00
1F00
1F00
1F00
0FF0
0FF0
0FF0
03F0
0000
0000
07C0
07C0
07C0
07C0
07C0
00C0
00C0
00C0
01C0
0380
0700
0600
ENDCHAR
STARTCHAR 02C6
ENCODING 710
SWIDTH 341 0
DWIDTH 18 0
BBX 15 8 1 31
BITMAP
07C0
0FE0
0FF0
1EF0
3C78
383C
781C
F00E
ENDCHAR
STARTCHAR 02C7
ENCODING 711
SWIDTH 341 0
DWIDTH 18 0
BBX 15 8 1 31
BITMAP
F01E
781C
383C
3C78
1EF0
1FF0
0FE0
07C0
ENDCHAR
STARTCHAR 02C9
ENCODING 713
SWIDTH 341 0
DWIDTH 18 0
BBX 15 4 1 33
BITMAP
FFFE
FFFE
FFFE
FFFE
ENDCHAR
STARTCHAR 02D8
ENCODING 728
SWIDTH 341 0
DWIDTH 18 0
BBX 16 7 1 32
BITMAP
E007
E00E
F01E
7FFE
7FFC
3FF8
0FE0
ENDCHAR
STARTCHAR 02D9
ENCODING 729
SWIDTH 341 0
DWIDTH 18 0
BBX 6 5 6 33
BITMAP
FC
FC
FC
FC
FC
ENDCHAR
STARTCHAR 02DA
ENCODING 730
SWIDTH 341 0
DWIDTH 18 0
BBX 9 9 4 31
BITMAP
1E00
7F00
7380
E180
E180
E180
6380
7F00
3E00
ENDCHAR
STARTCHAR 02DB
ENCODING 731
SWIDTH 341 0
DWIDTH 18 0
BBX 11 11 3 -11
BITMAP
0F00
3C00
7800
7000
F000
F000
F000
F800
7E60
3FE0
0FE0
ENDCHAR
STARTCHAR 02DC
ENCODING 732
SWIDTH 341 0
DWIDTH 18 0
BBX 17 6 0 32
BITMAP
1E0380
3FC780
7FFF00
7FFF00
F0FE00
001800
ENDCHAR
STARTCHAR 02DD
ENCODING 733
SWIDTH 341 0
DWIDTH 18 0
BBX 20 8 -2 31
BITMAP
07E3F0
0FC7E0
0F87C0
1F0F80
3E0F00
3C1E00
783C00
F03800
ENDCHAR
STARTCHAR 0384
ENCODING 900
SWIDTH 341 0
DWIDTH 18 0
BBX 4 10 7 31
BITMAP
F0
F0
F0
F0
F0
F0
F0
E0
60
60
ENDCHAR
STARTCHAR 0385
ENCODING 901
SWIDTH 341 0
DWIDTH 18 0
BBX 14 13 2 32
BITMAP
0780
0780
0780
0780
0780
0780
0780
0700
FB7C
FB7C
F87C
F87C
F87C
ENDCHAR
STARTCHAR 0386
ENCODING 902
SWIDTH 663 0
DWIDTH 35 0
BBX 33 38 1 0
BITMAP
3C07F00000
3C07F80000
3C07F80000
3C0FF80000
3C0FFC0000
3C0FFC0000
3C1F7C0000
1C1F7E0000
181F3E0000
183E3E0000
003E3F0000
007C1F0000
007C1F0000
007C1F8000
00F80F8000
00F80F8000
00F80FC000
01F007C000
01F007E000
01F007E000
03E003E000
03E003F000
07E003F000
07FFFFF000
07FFFFF800
0FFFFFF800
0FFFFFF800
0F8000FC00
1F80007C00
1F00007C00
1F00007E00
3F00003E00
3E00003F00
3E00003F00
7C00001F00
7C00001F80
FC00001F80
F800000F80
ENDCHAR
STARTCHAR 0387
ENCODING 903
SWIDTH 284 0
DWIDTH 15 0
BBX 5 5 6 12
BITMAP
F8
F8
F8
F8
F8
ENDCHAR
STARTCHAR 0388
ENCODING 904
SWIDTH 776 0
DWIDTH 41 0
BBX 35 38 1 0
BITMAP
F8FFFFFFC0
F8FFFFFFC0
F8FFFFFFC0
F8FFFFFFC0
F8F8000000
78F8000000
70F8000000
70F8000000
70F8000000
30F8000000
00F8000000
00F8000000
00F8000000
00F8000000
00F8000000
00F8000000
00F8000000
00FFFFFF80
00FFFFFF80
00FFFFFF80
00FFFFFF80
00F8000000
00F8000000
00F8000000
00F8000000
00F8000000
00F8000000
00F8000000
00F8000000
00F8000000
00F8000000
00F8000000
00F8000000
00F8000000
00FFFFFFE0
00FFFFFFE0
00FFFFFFE0
00FFFFFFE0
ENDCHAR
STARTCHAR 0389
ENCODING 905
SWIDTH 833 0
DWIDTH 44 0
BBX 37 38 1 0
BITMAP
F1F00000F8
F1F00000F8
F1F00000F8
F1F00000F8
F1F00000F8
F1F00000F8
F1F00000F8
71F00000F8
61F00000F8
61F00000F8
01F00000F8
01F00000F8
01F00000F8
01F00000F8
01F00000F8
01F00000F8
01F00000F8
01FFFFFFF8
01FFFFFFF8
01FFFFFFF8
01FFFFFFF8
01F00000F8
01F00000F8
01F00000F8
01F00000F8
01F00000F8
01F00000F8
01F00000F8
01F00000F8
01F00000F8
01F00000F8
01F00000F8
01F00000F8
01F00000F8
01F00000F8
01F00000F8
01F00000F8
01F00000F8
ENDCHAR
STARTCHAR 038A
ENCODING 906
SWIDTH 378 0
DWIDTH 20 0
BBX 13 38 1 0
BITMAP
F8F8
F8F8
F8F8
F8F8
F8F8
78F8
70F8
70F8
70F8
20F8
00F8
00F8
00F8
00F8
00F8
00F8
00F8
00F8
00F8
00F8
00F8
00F8
00F8
00F8
00F8
00F8
00F8
00F8
00F8
00F8
00F8
00F8
00F8
00F8
00F8
00F8
00F8
00F8
ENDCHAR
STARTCHAR 038C
ENCODING 908
SWIDTH 776 0
DWIDTH 41 0
BBX 40 40 -1 -1
BITMAP
00007FC000
F003FFF800
F00FFFFE00
F03FFFFF80
F07FF1FFC0
F0FF001FE0
F1FC0007F0
F3F80003F8
E3F00001F8
67E00000FC
67C000007C
0FC000007E
0F8000003E
0F8000003E
1F0000003E
1F0000001F
1F0000001F
1F0000001F
1F0000001F
1F0000001F
1F0000001F
1F0000001F
1F0000001F
1F0000001F
1F0000001F
1F8000003E
0F8000003E
0F8000003E
0FC000007E
07C000007C
07E00000FC
03F00001F8
03F80003F0
01FC0007F0
00FF001FE0
007FF1FFC0
003FFFFF80
000FFFFE00
0003FFF800
00007FC000
ENDCHAR
STARTCHAR 038E
ENCODING 910
SWIDTH 852 0
DWIDTH 45 0
BBX 40 38 2 0
BITMAP
F3F000003F
F1F800007E
F1F800007C
F0FC0000FC
F07C0001F8
F07E0001F0
F03F0003F0
E03F0003E0
601F8007E0
600FC00FC0
000FC00F80
0007E01F80
0003E01F00
0003F03E00
0001F87E00
0000F87C00
0000FCFC00
00007CF800
00003FF000
00003FF000
00001FE000
00001FC000
00000FC000
00000F8000
00000F8000
00000F8000
00000F8000
00000F8000
00000F8000
00000F8000
00000F8000
00000F8000
00000F8000
00000F8000
00000F8000
00000F8000
00000F8000
00000F8000
ENDCHAR
STARTCHAR 038F
ENCODING 911
SWIDTH 757 0
DWIDTH 40 0
BBX 39 39 -1 0
BITMAP
00007F8000
F007FFF000
F00FFFFC00
F03FFFFF00
F07FE1FF80
F0FE003FC0
F1F8000FE0
F3F00007F0
E3E00003F0
67E00001F8
67C00000F8
0FC00000F8
0F8000007C
0F8000007C
0F8000007C
1F0000007C
1F0000007C
1F0000007C
1F0000007C
1F0000007C
1F0000007C
0F0000007C
0F8000007C
0F8000007C
0F80000078
0F800000F8
07C00000F8
07C00001F0
03E00001F0
01F00003E0
01F00007C0
00F8000F80
007E001F00
001F003E00
000F80F800
1FFFC0FFFE
1FFFC0FFFE
1FFFC0FFFE
1FFFC0FFFE
ENDCHAR
STARTCHAR 0390
ENCODING 912
SWIDTH 227 0
DWIDTH 12 0
BBX 14 45 -1 0
BITMAP
0780
0780
0780
0780
0780
0780
0780
0700
FB7C
FB7C
F87C
F87C
F87C
0000
0000
0000
0000
0780
0780
0780
0780
0780
0780
0780
0780
0780
0780
0780
0780
0780
0780
0780
0780
0780
0780
0780
0780
0780
0780
0780
0780
0780
0780
0780
0780
ENDCHAR
STARTCHAR 0391
ENCODING 913
SWIDTH 663 0
DWIDTH 35 0
BBX 33 38 1 0
BITMAP
0007F00000
0007F80000
0007F80000
000FF80000
000FFC0000
000FFC0000
001F7C0000
001F7E0000
001F3E0000
003E3E0000
003E3F0000
007C1F0000
007C1F0000
007C1F8000
00F80F8000
00F80F8000
00F80FC000
01F007C000
01F007E000
01F007E000
03E003E000
03E003F000
07E003F000
07FFFFF000
07FFFFF800
0FFFFFF800
0FFFFFF800
0F8000FC00
1F80007C00
1F00007C00
1F00007E00
3F00003E00
3E00003F00
3E00003F00
7C00001F00
7C00001F80
FC00001F80
F800000F80
ENDCHAR
STARTCHAR 0392
ENCODING 914
SWIDTH 663 0
DWIDTH 35 0
BBX 29 38 4 0
BITMAP
FFFFF000
FFFFFE00
FFFFFF00
FFFFFF80
F800FFC0
F8000FC0
F80007E0
F80003E0
F80003E0
F80003E0
F80003E0
F80003E0
F80003E0
F80003E0
F80007C0
F8000F80
F8007F80
FFFFFE00
FFFFFE00
FFFFFF80
FFFFFFC0
F8000FE0
F80003F0
F80001F0
F80001F8
F80000F8
F80000F8
F80000F8
F80000F8
F80000F8
F80001F0
F80001F0
F80003F0
F8003FE0
FFFFFFC0
FFFFFF80
FFFFFF00
FFFFF800
ENDCHAR
STARTCHAR 0393
ENCODING 915
SWIDTH 549 0
DWIDTH 29 0
BBX 25 38 4 0
BITMAP
FFFFFF80
FFFFFF80
FFFFFF80
FFFFFF80
F8000000
F8000000
F8000000
F8000000
F8000000
F8000000
F8000000
F8000000
F8000000
F8000000
F8000000
F8000000
F8000000
F8000000
F8000000
F8000000
F8000000
F8000000
F8000000
F8000000
F8000000
F8000000
F8000000
F8000000
F8000000
F8000000
F8000000
F8000000
F8000000
F8000000
F8000000
F8000000
F8000000
F8000000
ENDCHAR
STARTCHAR 0394
ENCODING 916
SWIDTH 663 0
DWIDTH 35 0
BBX 36 38 0 0
BITMAP
0001F00000
0003F80000
0003F80000
0007FC0000
0007FC0000
0007FC0000
000FBE0000
000FBE0000
001F9F0000
001F1F0000
001F1F8000
003E0F8000
003E0F8000
007E07C000
007C07C000
007C07E000
00F803E000
00F803E000
01F001F000
01F001F000
01F001F800
03E000F800
03E000F800
07C0007C00
07C0007C00
0FC0007E00
0F80003E00
0F80003F00
1F00001F00
1F00001F00
3F00001F80
3E00000F80
3E00000FC0
7C000007C0
7FFFFFFFC0
FFFFFFFFE0
FFFFFFFFE0
FFFFFFFFF0
ENDCHAR
STARTCHAR 0395
ENCODING 917
SWIDTH 663 0
DWIDTH 35 0
BBX 27 38 5 0
BITMAP
FFFFFFC0
FFFFFFC0
FFFFFFC0
FFFFFFC0
F8000000
F8000000
F8000000
F8000000
F8000000
F8000000
F8000000
F8000000
F8000000
F8000000
F8000000
F8000000
F8000000
FFFFFFC0
FFFFFFC0
FFFFFFC0
FFFFFFC0
F8000000
F8000000
F8000000
F8000000
F8000000
F8000000
F8000000
F8000000
F8000000
F8000000
F8000000
F8000000
F8000000
FFFFFFE0
FFFFFFE0
FFFFFFE0
FFFFFFE0
ENDCHAR
STARTCHAR 0396
ENCODING 918
SWIDTH 606 0
DWIDTH 32 0
BBX 30 38 1 0
BITMAP
3FFFFFFC
3FFFFFFC
3FFFFFFC
3FFFFFFC
000001FC
000001F8
000003F0
000007E0
00000FC0
00000FC0
00001F80
00003F00
00007E00
0000FE00
0000FC00
0001F800
0003F000
0007E000
000FE000
000FC000
001F8000
003F0000
007E0000
00FE0000
00FC0000
01F80000
03F00000
07F00000
07E00000
0FC00000
1F800000
3F000000
7F000000
7E000000
FFFFFFFC
FFFFFFFC
FFFFFFFC
FFFFFFFC
ENDCHAR
STARTCHAR 0397
ENCODING 919
SWIDTH 720 0
DWIDTH 38 0
BBX 30 38 4 0
BITMAP
F800007C
F800007C
F800007C
F800007C
F800007C
F800007C
F800007C
F800007C
F800007C
F800007C
F800007C
F800007C
F800007C
F800007C
F800007C
F800007C
F800007C
FFFFFFFC
FFFFFFFC
FFFFFFFC
FFFFFFFC
F800007C
F800007C
F800007C
F800007C
F800007C
F800007C
F800007C
F800007C
F800007C
F800007C
F800007C
F800007C
F800007C
F800007C
F800007C
F800007C
F800007C
ENDCHAR
STARTCHAR 0398
ENCODING 920
SWIDTH 776 0
DWIDTH 41 0
BBX 37 40 2 -1
BITMAP
0003FE0000
001FFFC000
007FFFF000
01FFFFFC00
03FF8FFE00
07F800FF00
0FE0003F80
0FC0001FC0
1F80000FC0
3F000007E0
3E000003E0
7E000003F0
7C000001F0
7C000001F0
7C000001F8
F8000000F8
F8000000F8
F8000000F8
F81FFFC0F8
F81FFFC0F8
F81FFFC0F8
F81FFFC0F8
F8000000F8
F8000000F8
F8000000F8
7C000000F8
7C000001F0
7C000001F0
7E000003F0
3E000003E0
3F000007E0
1F80000FC0
1FC0001FC0
0FE0003F80
07F800FF00
03FF8FFE00
01FFFFFC00
007FFFF000
001FFFC000
0003FE0000
ENDCHAR
STARTCHAR 0399
ENCODING 921
SWIDTH 284 0
DWIDTH 15 0
BBX 5 38 5 0
BITMAP
F8
F8
F8
F8
F8
F8
F8
F8
F8
F8
F8
F8
F8
F8
F8
F8
F8
F8
F8
F8
F8
F8
F8
F8
F8
F8
F8
F8
F8
F8
F8
F8
F8
F8
F8
F8
F8
F8
ENDCHAR
STARTCHAR 039A
ENCODING 922
SWIDTH 663 0
DWIDTH 35 0
BBX 30 38 4 0
BITMAP
F80000FC
F80001F8
F80003F0
F80007E0
F8000FC0
F8001F80
F8003F00
F8007E00
F800FC00
F801F800
F803F000
F807E000
F80FC000
F81F8000
F83F0000
F87E0000
F8FF0000
F9FF0000
FBFF8000
FFCFC000
FF87C000
FF07E000
FE03F000
FC01F800
F801F800
F800FC00
F8007E00
F8003E00
F8003F00
F8001F80
F8000F80
F8000FC0
F80007E0
F80003F0
F80003F0
F80001F8
F80000FC
F800007C
ENDCHAR
STARTCHAR 039B
ENCODING 923
SWIDTH 663 0
DWIDTH 35 0
BBX 33 38 1 0
BITMAP
0007F00000
0007F00000
000FF80000
000FF80000
000FFC0000
001FFC0000
001F7C0000
001F7E0000
003E3E0000
003E3E0000
003E3F0000
007C1F0000
007C1F0000
007C1F8000
00F80F8000
00F80F8000
01F80FC000
01F007C000
01F007C000
03F003E000
03E003E000
03E003F000
07E001F000
07C001F000
07C001F800
0FC000F800
0F8000F800
0F8000FC00
1F80007C00
1F00007C00
1F00007E00
3F00003E00
3E00003E00
7E00003F00
7E00001F00
7C00001F80
FC00001F80
FC00000F80
ENDCHAR
STARTCHAR 039C
ENCODING 924
SWIDTH 833 0
DWIDTH 44 0
BBX 36 38 4 0
BITMAP
FE000007F0
FE000007F0
FF00000FF0
FF00000FF0
FF00000FF0
FF80001FF0
FF80001EF0
FF80001EF0
FFC0003EF0
FBC0003CF0
FBC0003CF0
FBE0007CF0
F9E00078F0
F9E00078F0
F9F000F8F0
F8F000F0F0
F8F000F0F0
F8F801F0F0
F87801E0F0
F87801E0F0
F87C03E0F0
F83C03C0F0
F83E03C0F0
F81E07C0F0
F81E0780F0
F81F0780F0
F80F0F80F0
F80F0F00F0
F80F8F00F0
F8079F00F0
F8079E00F0
F807DE00F0
F803FE00F0
F803FC00F0
F803FC00F0
F801FC00F0
F801F800F0
F801F800F0
ENDCHAR
STARTCHAR 039D
ENCODING 925
SWIDTH 720 0
DWIDTH 38 0
BBX 30 38 4 0
BITMAP
FC00007C
FC00007C
FE00007C
FF00007C
FF00007C
FF80007C
FFC0007C
FFC0007C
FFE0007C
FBE0007C
F9F0007C
F9F8007C
F8F8007C
F87C007C
F87E007C
F83E007C
F81F007C
F81F807C
F80F807C
F807C07C
F807E07C
F803E07C
F801F07C
F801F87C
F800F87C
F800FC7C
F8007E7C
F8003E7C
F8003F7C
F8001F7C
F8000FFC
F8000FFC
F80007FC
F80003FC
F80003FC
F80001FC
F80000FC
F80000FC
ENDCHAR
STARTCHAR 039E
ENCODING 926
SWIDTH 644 0
DWIDTH 34 0
BBX 28 38 3 0
BITMAP
FFFFFFF0
FFFFFFF0
FFFFFFF0
FFFFFFF0
00000000
00000000
00000000
00000000
00000000
00000000
00000000
00000000
00000000
00000000
00000000
00000000
00000000
3FFFFFC0
3FFFFFC0
3FFFFFC0
3FFFFFC0
00000000
00000000
00000000
00000000
00000000
00000000
00000000
00000000
00000000
00000000
00000000
00000000
00000000
FFFFFFF0
FFFFFFF0
FFFFFFF0
FFFFFFF0
ENDCHAR
STARTCHAR 039F
ENCODING 927
SWIDTH 776 0
DWIDTH 41 0
BBX 37 40 2 -1
BITMAP
0003FE0000
001FFFC000
007FFFF000
00FFFFFC00
03FF8FFE00
07F800FF00
0FE0003F80
0FC0001FC0
1F80000FC0
3F000007E0
3E000003E0
3E000003F0
7C000001F0
7C000001F0
7C000000F8
F8000000F8
F8000000F8
F8000000F8
F8000000F8
F8000000F8
F8000000F8
F8000000F8
F8000000F8
F8000000F8
F8000000F8
7C000000F8
7C000001F0
7C000001F0
7E000003F0
3E000003E0
3F000007E0
1F80000FC0
0FC0001FC0
0FE0003F80
07F800FF00
03FF87FE00
01FFFFFC00
007FFFF000
001FFFC000
0003FE0000
ENDCHAR
STARTCHAR 03A0
ENCODING 928
SWIDTH 720 0
DWIDTH 38 0
BBX 30 38 4 0
BITMAP
FFFFFFFC
FFFFFFFC
FFFFFFFC
FFFFFFFC
F800007C
F800007C
F800007C
F800007C
F800007C
F800007C
F800007C
F800007C
F800007C
F800007C
F800007C
F800007C
F800007C
F800007C
F800007C
F800007C
F800007C
F800007C
F800007C
F800007C
F800007C
F800007C
F800007C
F800007C
F800007C
F800007C
F800007C
F800007C
F800007C
F800007C
F800007C
F800007C
F800007C
F800007C
ENDCHAR
STARTCHAR 03A1
ENCODING 929
SWIDTH 663 0
DWIDTH 35 0
BBX 28 38 5 0
BITMAP
FFFFF000
FFFFFE00
FFFFFF00
FFFFFF80
F800FFC0
F8000FC0
F80007E0
F80003E0
F80003E0
F80003F0
F80003F0
F80003F0
F80003F0
F80003E0
F80003E0
F80007E0
F8000FC0
F800FFC0
FFFFFF80
FFFFFF00
FFFFFE00
FFFFF000
F8000000
F8000000
F8000000
F8000000
F8000000
F8000000
F8000000
F8000000
F8000000
F8000000
F8000000
F8000000
F8000000
F8000000
F8000000
F8000000
ENDCHAR
STARTCHAR 03A3
ENCODING 931
SWIDTH 625 0
DWIDTH 33 0
BBX 28 38 2 0
BITMAP
FFFFFFF0
FFFFFFF0
FFFFFFF0
FFFFFFF0
7E000000
3F000000
1F800000
0FC00000
07E00000
03F00000
01F80000
00FC0000
007E0000
003F0000
001F8000
000FC000
0007E000
0003F000
0001F800
0003F800
0007F000
000FE000
001FC000
003F8000
007F0000
00FE0000
01FC0000
03F80000
07F00000
0FE00000
0FC00000
1F800000
3F000000
7E000000
FFFFFFF0
FFFFFFF0
FFFFFFF0
FFFFFFF0
ENDCHAR
STARTCHAR 03A4
ENCODING 932
SWIDTH 606 0
DWIDTH 32 0
BBX 30 38 1 0
BITMAP
FFFFFFFC
FFFFFFFC
FFFFFFFC
FFFFFFFC
0007C000
0007C000
0007C000
0007C000
0007C000
0007C000
0007C000
0007C000
0007C000
0007C000
0007C000
0007C000
0007C000
0007C000
0007C000
0007C000
0007C000
0007C000
0007C000
0007C000
0007C000
0007C000
0007C000
0007C000
0007C000
0007C000
0007C000
0007C000
0007C000
0007C000
0007C000
0007C000
0007C000
0007C000
ENDCHAR
STARTCHAR 03A5
ENCODING 933
SWIDTH 663 0
DWIDTH 35 0
BBX 34 38 1 0
BITMAP
FC00000FC0
7E00001F80
7E00001F00
3F00003F00
1F80007E00
1F80007C00
0FC000FC00
0FC000F800
07E001F800
03F003F000
03F003E000
01F807E000
00F807C000
00FC0F8000
007E1F8000
003E1F0000
003F3F0000
001F3E0000
000FFC0000
000FFC0000
0007F80000
0007F00000
0003F00000
0001E00000
0001E00000
0001E00000
0001E00000
0001E00000
0001E00000
0001E00000
0001E00000
0001E00000
0001E00000
0001E00000
0001E00000
0001E00000
0001E00000
0001E00000
ENDCHAR
STARTCHAR 03A6
ENCODING 934
SWIDTH 795 0
DWIDTH 42 0
BBX 34 40 4 -1
BITMAP
0001E00000
0001E00000
0001E00000
0001E00000
0001E00000
001FFF0000
00FFFFC000
03FFFFF000
07FFFFF800
0FF9E7FC00
1FC1E0FE00
3F01E03F00
3E01E01F80
7E01E01F80
7C01E00F80
7C01E00FC0
F801E007C0
F801E007C0
F801E007C0
F801E007C0
F801E007C0
F801E007C0
F801E007C0
F801E007C0
7C01E00FC0
7C01E00F80
7E01E01F80
3F01E01F00
3F81E03F00
1FC1E0FE00
0FF9E3FC00
07FFFFF800
03FFFFF000
00FFFFC000
001FFF0000
0001E00000
0001E00000
0001E00000
0001E00000
0001E00000
ENDCHAR
STARTCHAR 03A7
ENCODING 935
SWIDTH 663 0
DWIDTH 35 0
BBX 33 38 1 0
BITMAP
7E00003F00
3F00003F00
1F80007E00
1F8000FC00
0FC000F800
07E001F800
07E003F000
03F003E000
01F807E000
00F80FC000
00FC0F8000
007E1F8000
003E3F0000
003F3E0000
001FFC0000
000FFC0000
000FF80000
0007F00000
0003F00000
0007F00000
000FF80000
000FFC0000
001F7C0000
003F3E0000
003E3F0000
007C1F8000
00FC0F8000
01F80FC000
01F007E000
03F003E000
07E003F000
07C001F800
0FC000F800
1F8000FC00
1F00007E00
3F00003F00
7E00003F00
FC00001F80
ENDCHAR
STARTCHAR 03A8
ENCODING 936
SWIDTH 833 0
DWIDTH 44 0
BBX 38 38 3 0
BITMAP
F80078007C
F80078007C
F80078007C
F80078007C
F80078007C
F80078007C
F80078007C
F80078007C
F80078007C
F80078007C
F80078007C
F80078007C
F80078007C
F80078007C
F80078007C
780078007C
7C00780078
7C007800F8
7C007800F8
7C007800F8
7C007800F8
7E007800F8
3E007801F0
3F007803F0
1F807807E0
1FE0781FE0
0FFF7BFFC0
03FFFFFF00
01FFFFFE00
007FFFF800
0007FF8000
0000780000
0000780000
0000780000
0000780000
0000780000
0000780000
0000780000
ENDCHAR
STARTCHAR 03A9
ENCODING 937
SWIDTH 738 0
DWIDTH 39 0
BBX 37 39 1 0
BITMAP
0001FE0000
001FFFC000
007FFFF000
00FFFFFC00
01FF87FE00
03F800FF00
07E0003F80
0FC0001FC0
0F80000FC0
1F000007E0
1F000003E0
3E000003E0
3E000003F0
3E000001F0
3E000001F0
7C000001F0
7C000001F0
7C000001F0
7C000001F0
7C000001F0
7C000001F0
7C000001F0
3E000001F0
3E000001F0
3E000003E0
3E000003E0
1F000003E0
1F000007C0
0F800007C0
0F80000F80
07C0001F00
03E0003E00
01F0007C00
007C00F800
003E03E000
FFFF03FFF8
FFFF03FFF8
FFFF03FFF8
FFFF03FFF8
ENDCHAR
STARTCHAR 03AA
ENCODING 938
SWIDTH 284 0
DWIDTH 15 0
BBX 14 48 0 0
BITMAP
FC7C
FC7C
FC7C
FC7C
FC7C
0000
0000
0000
0000
0000
07C0
07C0
07C0
07C0
07C0
07C0
07C0
07C0
07C0
07C0
07C0
07C0
07C0
07C0
07C0
07C0
07C0
07C0
07C0
07C0
07C0
07C0
07C0
07C0
07C0
07C0
07C0
07C0
07C0
07C0
07C0
07C0
07C0
07C0
07C0
07C0
07C0
07C0
ENDCHAR
STARTCHAR 03AB
ENCODING 939
SWIDTH 663 0
DWIDTH 35 0
BBX 34 48 1 0
BITMAP
003E3F0000
003E3F0000
003E3F0000
003E3F0000
003E3F0000
0000000000
0000000000
0000000000
0000000000
0000000000
FC00000FC0
7E00001F80
7E00001F00
3F00003F00
1F80007E00
1F80007C00
0FC000FC00
0FC000F800
07E001F800
03F003F000
03F003E000
01F807E000
00F807C000
00FC0F8000
007E1F8000
003E1F0000
003F3F0000
001F3E0000
000FFC0000
000FFC0000
0007F80000
0007F00000
0003F00000
0001E00000
0001E00000
0001E00000
0001E00000
0001E00000
0001E00000
0001E00000
0001E00000
0001E00000
0001E00000
0001E00000
0001E00000
0001E00000
0001E00000
0001E00000
ENDCHAR
STARTCHAR 03AC
ENCODING 940
SWIDTH 587 0
DWIDTH 31 0
BBX 31 43 0 -1
BITMAP
001E0000
001E0000
001E0000
001E0000
001E0000
001E0000
001E0000
001C0000
000C0000
000C0000
000C0000
00000000
00000000
007F0000
01FFC03E
03FFE03C
07FFF07C
0FC1F87C
1F807C78
3F003CF8
3E003EF8
7C001EF0
7C001FF0
7C000FE0
78000FE0
F80007E0
F80007C0
F80007C0
F80007C0
F80007E0
F8000FE0
78000FE0
7C000FF0
7C001EF0
7C001EF8
3E003CF8
3F007C78
1F80F87C
1FE1F87C
0FFFF03C
07FFE03E
01FFC03E
007F0000
ENDCHAR
STARTCHAR 03AD
ENCODING 941
SWIDTH 454 0
DWIDTH 24 0
BBX 23 43 1 -1
BITMAP
007800
007800
007800
007800
007800
007800
007800
007000
007000
003000
003000
000000
000000
01FE00
07FF80
1FFFC0
3FFFE0
3F03F0
7E00F8
7C00F8
780078
78007C
7C0000
7C0000
3F0000
1FF800
0FFC00
0FFC00
1FFC00
3F8000
7C0000
780000
F80000
F8003E
F8003C
F8007C
F8007C
7C00F8
7F03F0
3FFFE0
1FFFC0
0FFF80
01FC00
ENDCHAR
STARTCHAR 03AE
ENCODING 942
SWIDTH 549 0
DWIDTH 29 0
BBX 22 53 4 -12
BITMAP
003C00
003C00
003C00
003C00
003C00
003C00
003800
003800
001800
001800
000000
000000
003F80
F0FFE0
F3FFF0
F7FFF8
F783F8
FE00F8
FC007C
FC007C
F8007C
F8007C
F0007C
F0007C
F0007C
F0007C
F0007C
F0007C
F0007C
F0007C
F0007C
F0007C
F0007C
F0007C
F0007C
F0007C
F0007C
F0007C
F0007C
F0007C
F0007C
00007C
00007C
00007C
00007C
00007C
00007C
00007C
00007C
00007C
00007C
00007C
00007C
ENDCHAR
STARTCHAR 03AF
ENCODING 943
SWIDTH 227 0
DWIDTH 12 0
BBX 4 41 4 0
BITMAP
F0
F0
F0
F0
F0
F0
E0
E0
60
60
00
00
00
F0
F0
F0
F0
F0
F0
F0
F0
F0
F0
F0
F0
F0
F0
F0
F0
F0
F0
F0
F0
F0
F0
F0
F0
F0
F0
F0
F0
ENDCHAR
STARTCHAR 03B0
ENCODING 944
SWIDTH 549 0
DWIDTH 29 0
BBX 22 46 3 -1
BITMAP
007C00
007C00
007C00
007C00
007C00
007800
003800
003800
0FBBC0
0FB3C0
0F83C0
0F83C0
0F83C0
000000
000000
000000
000000
F8003C
F8003C
F8003C
F8003C
F8003C
F8003C
F8003C
F8003C
F8003C
F8003C
F8003C
F8003C
F8003C
F8003C
F8003C
F8003C
F8003C
F8003C
F8003C
F8003C
78003C
78003C
7C007C
7E00FC
3F83F8
3FFFF8
1FFFF0
07FFC0
01FF00
ENDCHAR
STARTCHAR 03B1
ENCODING 945
SWIDTH 587 0
DWIDTH 31 0
BBX 29 30 2 -1
BITMAP
00FC0000
03FF00F8
0FFF80F8
1FFFC1F0
1F87E1F0
3E01F1E0
3E00F3E0
7C00FBE0
78007BC0
F8003FC0
F8003F80
F8003F80
F0001F80
F0001F00
F0001F00
F0001F00
F0001F80
F0003F80
F8003F80
F8003FC0
F8007BC0
78007BE0
7C00FBE0
7E01F1E0
3F03E1F0
1F87E1F0
1FFFC0F8
0FFF80F8
07FF00F8
00FC0000
ENDCHAR
STARTCHAR 03B2
ENCODING 946
SWIDTH 568 0
DWIDTH 30 0
BBX 24 50 4 -11
BITMAP
01FE00
07FF80
1FFFC0
3FFFE0
3F03F0
7C01F8
7800F8
780078
F80078
F80078
F80078
F80078
F800F8
F800F8
F801F0
F807E0
F87FC0
F87FC0
F87FE0
F807F8
F800FC
F8007C
F8003E
F8003E
F8001E
F8001F
F8001F
F8001F
F8001F
F8001F
F8001E
F8003E
F8003E
F8007E
FC00FC
FF03F8
FFFFF8
FFFFE0
FBFFC0
F8FF00
F80000
F80000
F80000
F80000
F80000
F80000
F80000
F80000
F80000
F80000
ENDCHAR
STARTCHAR 03B3
ENCODING 947
SWIDTH 492 0
DWIDTH 26 0
BBX 25 39 1 -11
BITMAP
F8000F80
F8001F00
7C001F00
7C001E00
7C003E00
3E003E00
3E007C00
1E007C00
1F007C00
1F00F800
0F80F800
0F80F000
0781F000
07C1F000
07C1E000
03C3E000
03E3E000
01E7C000
01F7C000
01F78000
00FF8000
00FF8000
00FF0000
007F0000
007E0000
003E0000
003E0000
003E0000
003E0000
003E0000
003E0000
003E0000
003E0000
003E0000
003E0000
003E0000
003E0000
003E0000
003E0000
ENDCHAR
STARTCHAR 03B4
ENCODING 948
SWIDTH 549 0
DWIDTH 29 0
BBX 25 39 2 -1
BITMAP
1FFFFE00
1FFFFE00
1FFFFE00
1FFFFE00
0FC00000
07F00000
01F80000
00FC0000
007E0000
001F8000
003FC000
01FFE000
07FFF800
0FFFFC00
1FC0FE00
3F007E00
3E003F00
7C001F00
7C000F00
7C000F80
78000F80
F8000F80
F8000780
F8000780
F8000780
F8000780
F8000780
F8000F80
78000F80
7C000F80
7C000F00
7E001F00
3E003F00
3F007E00
1FC1FC00
0FFFFC00
07FFF000
03FFE000
007F0000
ENDCHAR
STARTCHAR 03B5
ENCODING 949
SWIDTH 454 0
DWIDTH 24 0
BBX 23 30 1 -1
BITMAP
01FE00
07FF80
1FFFC0
3FFFE0
3F03F0
7E00F8
7C00F8
780078
78007C
7C0000
7C0000
3F0000
1FF800
0FFC00
0FFC00
1FFC00
3F8000
7C0000
780000
F80000
F8003E
F8003C
F8007C
F8007C
7C00F8
7F03F0
3FFFE0
1FFFC0
0FFF80
01FC00
ENDCHAR
STARTCHAR 03B6
ENCODING 950
SWIDTH 435 0
DWIDTH 23 0
BBX 22 50 2 -12
BITMAP
3FFFF8
3FFFF8
3FFFF8
3FFFF8
0007F0
000FC0
001F80
003E00
007C00
00F800
01F000
03E000
07C000
07C000
0F8000
1F0000
1F0000
3E0000
3E0000
3C0000
7C0000
7C0000
780000
F80000
F80000
F80000
F80000
F80000
F80000
F80000
F80000
7C0000
7C0000
3F0000
3FF800
1FFFE0
0FFFF8
03FFF8
0007FC
00007C
00007C
00007C
00007C
00007C
000078
000078
0000F8
0000F0
0001F0
0001F0
ENDCHAR
STARTCHAR 03B7
ENCODING 951
SWIDTH 549 0
DWIDTH 29 0
BBX 22 41 4 -12
BITMAP
003F80
F0FFE0
F3FFF0
F7FFF8
F783F8
FE00F8
FC007C
FC007C
F8007C
F8007C
F0007C
F0007C
F0007C
F0007C
F0007C
F0007C
F0007C
F0007C
F0007C
F0007C
F0007C
F0007C
F0007C
F0007C
F0007C
F0007C
F0007C
F0007C
F0007C
00007C
00007C
00007C
00007C
00007C
00007C
00007C
00007C
00007C
00007C
00007C
00007C
ENDCHAR
STARTCHAR 03B8
ENCODING 952
SWIDTH 549 0
DWIDTH 29 0
BBX 24 40 3 -1
BITMAP
00FF00
03FFC0
0FFFE0
1FFFF0
1F83F8
3E00F8
7C007C
7C003C
78003E
F8001E
F8001E
F0001E
F0001F
F0001F
F0001F
F0001F
F0001F
FFFFFF
FFFFFF
FFFFFF
FFFFFF
F0001F
F0001F
F0001F
F0001F
F0001F
F0001F
F0001E
F0001E
F8001E
F8003E
78003E
7C003C
3C007C
3E00F8
1F83F8
1FFFF0
0FFFE0
03FFC0
00FE00
ENDCHAR
STARTCHAR 03B9
ENCODING 953
SWIDTH 227 0
DWIDTH 12 0
BBX 4 28 4 0
BITMAP
F0
F0
F0
F0
F0
F0
F0
F0
F0
F0
F0
F0
F0
F0
F0
F0
F0
F0
F0
F0
F0
F0
F0
F0
F0
F0
F0
F0
ENDCHAR
STARTCHAR 03BA
ENCODING 954
SWIDTH 492 0
DWIDTH 26 0
BBX 23 28 3 0
BITMAP
F000F8
F001F0
F003E0
F007C0
F00F80
F01F00
F03E00
F07C00
F0F800
F1F000
F3F800
F7F800
FFFC00
FF7C00
FE3E00
FC3F00
F81F00
F00F80
F00FC0
F007C0
F007E0
F003E0
F001F0
F001F8
F000F8
F000FC
F0007E
F0003E
ENDCHAR
STARTCHAR 03BB
ENCODING 955
SWIDTH 492 0
DWIDTH 26 0
BBX 24 38 1 0
BITMAP
03C000
03E000
03E000
01F000
01F000
01F000
00F800
00F800
007800
007C00
007C00
003C00
007E00
007E00
007F00
00FF00
00FF00
00FF80
01FF80
01E780
03E7C0
03E7C0
03C3E0
07C3E0
07C1E0
0781F0
0F81F0
0F80F0
0F00F8
1F00F8
1F007C
1E007C
3E007C
3C003E
7C003E
7C001E
78001F
F8001F
ENDCHAR
STARTCHAR 03BC
ENCODING 956
SWIDTH 568 0
DWIDTH 30 0
BBX 22 40 4 -12
BITMAP
F8003C
F8003C
F8003C
F8003C
F8003C
F8003C
F8003C
F8003C
F8003C
F8003C
F8003C
F8003C
F8003C
F8003C
F8003C
F8003C
F8003C
F8003C
F8003C
F8007C
F8007C
F8007C
F800FC
FC01FC
FE07FC
FFFFBC
FFFF3C
FFFE3C
FBF800
F80000
F80000
F80000
F80000
F80000
F80000
F80000
F80000
F80000
F80000
F80000
ENDCHAR
STARTCHAR 03BD
ENCODING 957
SWIDTH 492 0
DWIDTH 26 0
BBX 25 28 1 0
BITMAP
F8000F80
F8001F00
F8001F00
7C001E00
7C003E00
3C003E00
3E007C00
3E007C00
1E007C00
1F00F800
1F00F800
0F00F000
0F81F000
0F81F000
0781E000
07C3E000
07C3C000
03C3C000
03E7C000
03E78000
01E78000
01FF8000
01FF0000
00FF0000
00FE0000
00FE0000
007E0000
007C0000
ENDCHAR
STARTCHAR 03BE
ENCODING 958
SWIDTH 454 0
DWIDTH 24 0
BBX 22 50 2 -12
BITMAP
FFFFF0
FFFFF0
FFFFF0
FFFFF0
07E000
0F8000
1F0000
1E0000
3E0000
3E0000
3E0000
3E0000
3E0000
3F0000
1F8000
0FE000
07FFE0
03FFE0
03FFE0
0FFFE0
1FC000
3F0000
7C0000
F80000
F80000
F80000
F00000
F00000
F00000
F80000
F80000
F80000
7C0000
7F0000
3FFF80
1FFFF0
0FFFF8
03FFFC
0001FC
00007C
00003C
00003C
00003C
00003C
00007C
000078
000078
0000F8
0000F0
0001F0
ENDCHAR
STARTCHAR 03BF
ENCODING 959
SWIDTH 549 0
DWIDTH 29 0
BBX 25 30 2 -1
BITMAP
007F8000
01FFE000
07FFF800
0FFFFC00
1FC1FC00
3F007E00
3E003F00
7E001F00
7C001F00
7C000F80
78000F80
F8000F80
F8000F80
F8000780
F8000780
F8000780
F8000780
F8000F80
F8000F80
78000F80
7C000F80
7C001F00
7E001F00
3E003F00
3F007E00
1FC1FC00
0FFFF800
07FFF000
03FFE000
007F0000
ENDCHAR
STARTCHAR 03C0
ENCODING 960
SWIDTH 682 0
DWIDTH 36 0
BBX 30 28 3 0
BITMAP
FFFFFFFC
FFFFFFFC
FFFFFFFC
FFFFFFFC
0F8007C0
0F8007C0
0F8007C0
0F8007C0
0F8007C0
0F8007C0
0F8007C0
0F8007C0
0F8007C0
0F8007C0
0F8007C0
0F8007C0
0F8007C0
0F8007C0
0F8007C0
0F8007C0
0F8007C0
0F8007C0
0F8007C0
0F8007C0
0F8007C0
0F8007C0
0F8007C0
0F8007C0
ENDCHAR
STARTCHAR 03C1
ENCODING 961
SWIDTH 568 0
DWIDTH 30 0
BBX 25 40 3 -11
BITMAP
007F0000
01FFE000
07FFF000
0FFFF800
1FC1FC00
3F007E00
3E003E00
7C003F00
7C001F00
78001F00
F8000F00
F8000F80
F8000F80
F8000F80
F8000F80
F8000F80
F8000F80
F8000F80
F8000F80
F8000F00
F8001F00
FC001F00
FC003F00
FE003E00
FF007E00
FFC1FC00
FFFFF800
FBFFF000
F9FFE000
F87F0000
F8000000
F8000000
F8000000
F8000000
F8000000
F8000000
F8000000
F8000000
F8000000
F8000000
ENDCHAR
STARTCHAR 03C2
ENCODING 962
SWIDTH 473 0
DWIDTH 25 0
BBX 25 40 1 -11
BITMAP
003F8000
01FFE000
03FFF800
0FFFFC00
1FE0FE00
1F807E00
3F001F00
3E001F00
7C000F00
7C000F80
78000000
78000000
F8000000
F8000000
F8000000
F8000000
78000000
7C000000
7C000000
3E000000
3F000000
1F800000
1FC00000
0FF80000
07FE0000
03FFC000
00FFF800
001FFC00
0003FE00
00007F00
00001F00
00001F00
00001F00
00001E00
00001E00
00003E00
00003C00
00003C00
00007C00
00007800
ENDCHAR
STARTCHAR 03C3
ENCODING 963
SWIDTH 625 0
DWIDTH 33 0
BBX 28 30 3 -1
BITMAP
007F8000
01FFFFF0
07FFFFF0
0FFFFFF0
1FC1FFF0
1F007C00
3E003E00
3E001F00
7C001F00
7C000F00
78000F80
F8000F80
F8000F80
F8000780
F8000780
F8000780
F8000780
F8000F80
F8000F80
78000F80
7C000F80
7C001F00
7E001F00
3E003F00
3F007E00
1FC1FC00
0FFFF800
07FFF000
03FFE000
007F0000
ENDCHAR
STARTCHAR 03C4
ENCODING 964
SWIDTH 397 0
DWIDTH 21 0
BBX 23 28 -1 0
BITMAP
FFFFFE
FFFFFE
FFFFFE
FFFFFE
007C00
007C00
007C00
007C00
007C00
007C00
007C00
007C00
007C00
007C00
007C00
007C00
007C00
007C00
007C00
007C00
007C00
007C00
007C00
007C00
007C00
007C00
007C00
007C00
ENDCHAR
STARTCHAR 03C5
ENCODING 965
SWIDTH 549 0
DWIDTH 29 0
BBX 22 29 3 -1
BITMAP
F8003C
F8003C
F8003C
F8003C
F8003C
F8003C
F8003C
F8003C
F8003C
F8003C
F8003C
F8003C
F8003C
F8003C
F8003C
F8003C
F8003C
F8003C
F8003C
F8003C
78003C
78003C
7C007C
7E00FC
3F83F8
3FFFF8
1FFFF0
07FFC0
01FF00
ENDCHAR
STARTCHAR 03C6
ENCODING 966
SWIDTH 644 0
DWIDTH 34 0
BBX 30 40 2 -11
BITMAP
0007E000
0187FC00
0787FF00
0F87FF80
1F878FC0
3F0787E0
3E0781F0
7C0781F0
7C0780F8
F80780F8
F807807C
F807807C
F807807C
F807807C
F807807C
F807807C
F807807C
F807807C
F807807C
F80780FC
FC0780F8
7C0780F8
7E0781F0
3E0783F0
3F8787E0
1FF7BFC0
0FFFFF80
03FFFF00
01FFFC00
000FC000
00078000
00078000
00078000
00078000
00078000
00078000
00078000
00078000
00078000
00078000
ENDCHAR
STARTCHAR 03C7
ENCODING 967
SWIDTH 530 0
DWIDTH 28 0
BBX 24 39 2 -11
BITMAP
F8003E
7C003E
7C007C
3E007C
3E00F8
1F00F8
1F01F0
0F81F0
0F83E0
07C3E0
07C7C0
03E7C0
03EF80
01FF80
01FF00
00FF00
00FE00
007E00
007C00
007E00
007E00
00FF00
00FF00
01FF80
01EF80
03E7C0
03C7C0
07C7E0
0783E0
0F83E0
0F01F0
1F01F0
1E00F8
3E00F8
3E007C
7C007C
7C003E
F8003E
F8001F
ENDCHAR
STARTCHAR 03C8
ENCODING 968
SWIDTH 720 0
DWIDTH 38 0
BBX 29 40 5 -12
BITMAP
F00F00F8
F00F00F8
F00F00F8
F00F00F8
F00F00F8
F00F00F8
F00F00F8
F00F00F8
F00F00F8
F00F00F8
F00F00F8
F00F00F8
F00F00F8
F00F00F8
F00F00F8
F00F00F8
F00F00F8
F00F00F8
F00F00F8
F80F00F8
F80F00F0
F80F01F0
7C0F01F0
7E0F07E0
3FCF1FE0
1FFFFFC0
0FFFFF00
03FFFE00
007FE000
000F0000
000F0000
000F0000
000F0000
000F0000
000F0000
000F0000
000F0000
000F0000
000F0000
000F0000
ENDCHAR
STARTCHAR 03C9
ENCODING 969
SWIDTH 776 0
DWIDTH 41 0
BBX 32 29 5 -1
BITMAP
07C007C0
0F8003E0
1F0001F0
1F0001F8
3E0000F8
3E00007C
7C00007C
7C07C03C
7807C03E
F807C03E
F807C03E
F807C01E
F007C01E
F007C01F
F007C01F
F007C01F
F007C01F
F007C01E
F007C01E
F807C01E
F807C03E
F807C03E
7C07C03C
7C0FE07C
3E1EF0FC
3FFEFFF8
1FFC7FF0
0FF83FE0
03F00F80
ENDCHAR
STARTCHAR 03CA
ENCODING 970
SWIDTH 227 0
DWIDTH 12 0
BBX 14 38 -1 0
BITMAP
F8FC
F8FC
F8FC
F8FC
F8FC
0000
0000
0000
0000
0000
0780
0780
0780
0780
0780
0780
0780
0780
0780
0780
0780
0780
0780
0780
0780
0780
0780
0780
0780
0780
0780
0780
0780
0780
0780
0780
0780
0780
ENDCHAR
STARTCHAR 03CB
ENCODING 971
SWIDTH 549 0
DWIDTH 29 0
BBX 22 39 3 -1
BITMAP
0FC7C0
0FC7C0
0FC7C0
0FC7C0
0FC7C0
000000
000000
000000
000000
000000
F8003C
F8003C
F8003C
F8003C
F8003C
F8003C
F8003C
F8003C
F8003C
F8003C
F8003C
F8003C
F8003C
F8003C
F8003C
F8003C
F8003C
F8003C
F8003C
F8003C
78003C
78003C
7C007C
7E00FC
3F83F8
3FFFF8
1FFFF0
07FFC0
01FF00
ENDCHAR
STARTCHAR 03CC
ENCODING 972
SWIDTH 549 0
DWIDTH 29 0
BBX 25 43 2 -1
BITMAP
003E0000
003E0000
003E0000
003E0000
003E0000
001E0000
001C0000
001C0000
001C0000
000C0000
00080000
00000000
00000000
007F8000
01FFE000
07FFF800
0FFFFC00
1FC1FC00
3F007E00
3E003F00
7E001F00
7C001F00
7C000F80
78000F80
F8000F80
F8000F80
F8000780
F8000780
F8000780
F8000780
F8000F80
F8000F80
78000F80
7C000F80
7C001F00
7E001F00
3E003F00
3F007E00
1FC1FC00
0FFFF800
07FFF000
03FFE000
007F0000
ENDCHAR
STARTCHAR 03CD
ENCODING 973
SWIDTH 549 0
DWIDTH 29 0
BBX 22 42 3 -1
BITMAP
007C00
007C00
007C00
007C00
007C00
003800
003800
003800
003800
001000
000000
000000
000000
F8003C
F8003C
F8003C
F8003C
F8003C
F8003C
F8003C
F8003C
F8003C
F8003C
F8003C
F8003C
F8003C
F8003C
F8003C
F8003C
F8003C
F8003C
F8003C
F8003C
78003C
78003C
7C007C
7E00FC
3F83F8
3FFFF8
1FFFF0
07FFC0
01FF00
ENDCHAR
STARTCHAR 03CE
ENCODING 974
SWIDTH 776 0
DWIDTH 41 0
BBX 32 42 5 -1
BITMAP
0007C000
0007C000
0007C000
0007C000
0007C000
00038000
00038000
00038000
00038000
00010000
00000000
00000000
00000000
07C007C0
0F8003E0
1F0001F0
1F0001F8
3E0000F8
3E00007C
7C00007C
7C07C03C
7807C03E
F807C03E
F807C03E
F807C01E
F007C01E
F007C01F
F007C01F
F007C01F
F007C01F
F007C01E
F007C01E
F807C01E
F807C03E
F807C03E
7C07C03C
7C0FE07C
3E1EF0FC
3FFEFFF8
1FFC7FF0
0FF83FE0
03F00F80
ENDCHAR
STARTCHAR 03D1
ENCODING 977
SWIDTH 549 0
DWIDTH 29 0
BBX 28 41 0 -1
BITMAP
001F0000
00FFE000
01FFF000
03FFFC00
07E0FC00
07C03E00
07801F00
0F801F00
0F000F80
0F000F80
0F000780
0F800780
0F800780
07C00780
07C007C0
03E007C0
01F807C0
00FF07C0
007FFFF0
003FFFF0
000FFFF0
0000FFF0
000007C0
000007C0
FC0007C0
FC0007C0
FE0007C0
FE000780
3E000780
1E000780
1E000780
1E000F80
1E000F00
1F000F00
0F801F00
0F803E00
07E0FE00
07FFFC00
03FFF800
00FFE000
003F8000
ENDCHAR
STARTCHAR 03D5
ENCODING 981
SWIDTH 568 0
DWIDTH 30 0
BBX 28 47 1 -12
BITMAP
000F0000
000F0000
000F0000
000F0000
000F0000
000F0000
000F0000
01FFF000
07FFFC00
0FFFFE00
1FFFFF00
3F0F1F80
3E0F0FC0
7C0F07C0
7C0F03E0
780F03E0
F80F01E0
F80F01F0
F00F01F0
F00F01F0
F00F01F0
F00F01F0
F00F01F0
F00F01F0
F80F01F0
F80F01F0
F80F01E0
780F03E0
7C0F03E0
7E0F07C0
3F0F0FC0
1F8F1F80
1FFFFF00
0FFFFE00
03FFFC00
00FFF000
000F0000
000F0000
000F0000
000F0000
000F0000
000F0000
000F0000
000F0000
000F0000
000F0000
000F0000
ENDCHAR
STARTCHAR 03D6
ENCODING 982
SWIDTH 776 0
DWIDTH 41 0
BBX 33 29 4 -1
BITMAP
FFFFF00000
FFFFFE0000
FFFFFF8000
FFFFFFE000
0F800FF000
1F0001F800
3F0000FC00
3E00007E00
7C00003E00
7C00003F00
7800001F00
7800001F00
F803E00F00
F803E00F00
F803E00F80
F803E00F80
F803E00F80
F803E00F80
F803E00F00
F803E00F00
7803E00F00
7C03E01F00
7C07F01E00
3E07F03E00
3F1FFC7C00
1FFF7FFC00
0FFE3FF800
07FC1FF000
01F00FC000
ENDCHAR
STARTCHAR 0400
ENCODING 1024
SWIDTH 663 0
DWIDTH 35 0
BBX 27 49 5 0
BITMAP
01F80000
00FC0000
007C0000
003E0000
001E0000
000F0000
00078000
00038000
00000000
00000000
00000000
FFFFFFC0
FFFFFFC0
FFFFFFC0
FFFFFFC0
F8000000
F8000000
F8000000
F8000000
F8000000
F8000000
F8000000
F8000000
F8000000
F8000000
F8000000
F8000000
F8000000
FFFFFFC0
FFFFFFC0
FFFFFFC0
FFFFFFC0
F8000000
F8000000
F8000000
F8000000
F8000000
F8000000
F8000000
F8000000
F8000000
F8000000
F8000000
F8000000
F8000000
FFFFFFE0
FFFFFFE0
FFFFFFE0
FFFFFFE0
ENDCHAR
STARTCHAR 0401
ENCODING 1025
SWIDTH 663 0
DWIDTH 35 0
BBX 28 48 4 0
BITMAP
01F1F800
01F1F800
01F1F800
01F1F800
01F1F800
00000000
00000000
00000000
00000000
00000000
FFFFFFE0
FFFFFFE0
FFFFFFE0
FFFFFFE0
F8000000
F8000000
F8000000
F8000000
F8000000
F8000000
F8000000
F8000000
F8000000
F8000000
F8000000
F8000000
F8000000
FFFFFFC0
FFFFFFC0
FFFFFFC0
FFFFFFC0
F8000000
F8000000
F8000000
F8000000
F8000000
F8000000
F8000000
F8000000
F8000000
F8000000
F8000000
F8000000
F8000000
FFFFFFF0
FFFFFFF0
FFFFFFF0
FFFFFFF0
ENDCHAR
STARTCHAR 0402
ENCODING 1026
SWIDTH 871 0
DWIDTH 46 0
BBX 40 38 1 0
BITMAP
FFFFFFC000
FFFFFFC000
FFFFFFC000
FFFFFFC000
0007C00000
0007C00000
0007C00000
0007C00000
0007C00000
0007C00000
0007C00000
0007C00000
0007C00000
0007C3FFC0
0007CFFFF0
0007DFFFF8
0007FFFFFC
0007FC01FE
0007F0003E
0007E0003F
0007C0001F
0007C0001F
0007C0001F
0007C0001F
0007C0001F
0007C0001F
0007C0001F
0007C0001F
0007C0001F
0007C0001F
0007C0001F
0007C0001F
0007C0003F
0007C0007E
0007C0FFFC
0007C0FFFC
0007C0FFF8
0007C0FFE0
ENDCHAR
STARTCHAR 0403
ENCODING 1027
SWIDTH 549 0
DWIDTH 29 0
BBX 24 49 5 0
BITMAP
003F00
003E00
007C00
007800
00F000
01E000
01C000
038000
000000
000000
000000
FFFFFF
FFFFFF
FFFFFF
FFFFFF
F80000
F80000
F80000
F80000
F80000
F80000
F80000
F80000
F80000
F80000
F80000
F80000
F80000
F80000
F80000
F80000
F80000
F80000
F80000
F80000
F80000
F80000
F80000
F80000
F80000
F80000
F80000
F80000
F80000
F80000
F80000
F80000
F80000
F80000
ENDCHAR
STARTCHAR 0404
ENCODING 1028
SWIDTH 720 0
DWIDTH 38 0
BBX 36 40 1 -1
BITMAP
0003FE0000
001FFFC000
007FFFF000
01FFFFFC00
03FF87FE00
07F800FF00
0FE0003F80
1FC0001F80
1F80000FC0
3F000007E0
3E000003E0
7E000003E0
7C00000000
7C00000000
F800000000
F800000000
F800000000
F800000000
FFFFF80000
FFFFF80000
FFFFF80000
FFFFF80000
F800000000
F800000000
F800000000
FC00000100
7C000001F0
7C000001F0
7E000003E0
3E000003E0
3F000007E0
1F80000FC0
1FC0001F80
0FE0003F80
07F800FF00
03FF07FE00
01FFFFFC00
007FFFF000
001FFFC000
0003FE0000
ENDCHAR
STARTCHAR 0405
ENCODING 1029
SWIDTH 663 0
DWIDTH 35 0
BBX 30 40 3 -1
BITMAP
003FE000
01FFFC00
07FFFF00
0FFFFF80
1FE03FC0
3F800FE0
3E0003E0
7C0001F0
7C0001F0
7C0001F0
7C0000F0
7C0000F0
7C000000
7E000000
7F000000
3FC00000
3FF80000
1FFF8000
0FFFF800
03FFFF00
003FFFC0
0007FFE0
00007FF0
00000FF8
000003F8
000000F8
000000FC
F000007C
F000007C
F800007C
F800007C
FC0000F8
7C0000F8
7E0001F0
3F8007F0
1FF07FE0
0FFFFFC0
07FFFF80
01FFFE00
003FF000
ENDCHAR
STARTCHAR 0406
ENCODING 1030
SWIDTH 284 0
DWIDTH 15 0
BBX 5 38 5 0
BITMAP
F8
F8
F8
F8
F8
F8
F8
F8
F8
F8
F8
F8
F8
F8
F8
F8
F8
F8
F8
F8
F8
F8
F8
F8
F8
F8
F8
F8
F8
F8
F8
F8
F8
F8
F8
F8
F8
F8
ENDCHAR
STARTCHAR 0407
ENCODING 1031
SWIDTH 284 0
DWIDTH 15 0
BBX 14 48 0 0
BITMAP
FC7C
FC7C
FC7C
FC7C
FC7C
0000
0000
0000
0000
0000
07C0
07C0
07C0
07C0
07C0
07C0
07C0
07C0
07C0
07C0
07C0
07C0
07C0
07C0
07C0
07C0
07C0
07C0
07C0
07C0
07C0
07C0
07C0
07C0
07C0
07C0
07C0
07C0
07C0
07C0
07C0
07C0
07C0
07C0
07C0
07C0
07C0
07C0
ENDCHAR
STARTCHAR 0408
ENCODING 1032
SWIDTH 492 0
DWIDTH 26 0
BBX 21 39 1 -1
BITMAP
0000F8
0000F8
0000F8
0000F8
0000F8
0000F8
0000F8
0000F8
0000F8
0000F8
0000F8
0000F8
0000F8
0000F8
0000F8
0000F8
0000F8
0000F8
0000F8
0000F8
0000F8
0000F8
0000F8
0000F8
0000F8
0000F8
F800F8
F800F8
F800F8
F800F8
F800F8
F800F8
FC01F8
7E03F0
7F07F0
3FFFE0
1FFFC0
0FFF80
01FC00
ENDCHAR
STARTCHAR 0409
ENCODING 1033
SWIDTH 1061 0
DWIDTH 56 0
BBX 53 38 1 0
BITMAP
01FFFFFE000000
01FFFFFE000000
01FFFFFE000000
01FFFFFE000000
01F0003E000000
01F0003E000000
01F0003E000000
01F0003E000000
01F0003E000000
01F0003E000000
01F0003E000000
01F0003E000000
01F0003E000000
01F0003E000000
01F0003E000000
01F0003E000000
01F0003FFFFC00
01F0003FFFFF00
01F0003FFFFFC0
01F0003FFFFFE0
01F0003E003FF0
01F0003E0003F0
01F0003E0001F8
01F0003E0000F8
01F0003E0000F8
01F0003E0000F8
01F0003E0000F8
03E0003E0000F8
03E0003E0000F8
03E0003E0000F8
07E0003E0000F8
07C0003E0001F8
0FC0003E0003F0
7F80003E003FF0
FF00003FFFFFE0
FE00003FFFFFC0
FC00003FFFFF00
F000003FFFFC00
ENDCHAR
STARTCHAR 040A
ENCODING 1034
SWIDTH 1004 0
DWIDTH 53 0
BBX 49 38 3 0
BITMAP
F8000F80000000
F8000F80000000
F8000F80000000
F8000F80000000
F8000F80000000
F8000F80000000
F8000F80000000
F8000F80000000
F8000F80000000
F8000F80000000
F8000F80000000
F8000F80000000
F8000F80000000
F8000F80000000
F8000F80000000
F8000F80000000
FFFFFFFFFF8000
FFFFFFFFFFF000
FFFFFFFFFFF800
FFFFFFFFFFFC00
F8000F8003FE00
F8000F80007F00
F8000F80003F00
F8000F80001F80
F8000F80000F80
F8000F80000F80
F8000F80000F80
F8000F80000F80
F8000F80000F80
F8000F80000F80
F8000F80001F80
F8000F80001F00
F8000F80007F00
F8000F8003FE00
F8000FFFFFFE00
F8000FFFFFF800
F8000FFFFFF000
F8000FFFFF8000
ENDCHAR
STARTCHAR 040B
ENCODING 1035
SWIDTH 852 0
DWIDTH 45 0
BBX 38 38 1 0
BITMAP
FFFFFFF000
FFFFFFF000
FFFFFFF000
FFFFFFF000
000F800000
000F800000
000F800000
000F800000
000F800000
000F800000
000F800000
000F800000
000F800000
000F83FF80
000F8FFFE0
000F9FFFF0
000FBFFFF8
000FFC03FC
000FF000FC
000FE0007C
000FC0007C
000FC0003C
000F80003C
000F80003C
000F80003C
000F80003C
000F80003C
000F80003C
000F80003C
000F80003C
000F80003C
000F80003C
000F80003C
000F80003C
000F80003C
000F80003C
000F80003C
000F80003C
ENDCHAR
STARTCHAR 040C
ENCODING 1036
SWIDTH 587 0
DWIDTH 31 0
BBX 26 49 3 0
BITMAP
0007E000
000FC000
000F8000
001F0000
001E0000
003C0000
00780000
00700000
00000000
00000000
00000000
F8003E00
F8007E00
F800FC00
F800F800
F801F800
F801F000
F803F000
F807E000
F807C000
F80FC000
F80F8000
F81F8000
F83F0000
F83E0000
F87E0000
F87C0000
FFFC0000
FFF80000
FFF80000
FFFC0000
F87C0000
F83E0000
F83F0000
F81F0000
F80F8000
F80FC000
F807C000
F803E000
F803F000
F801F000
F800F800
F800FC00
F8007C00
F8007E00
F8003F00
F8001F00
F8001F80
F8000FC0
ENDCHAR
STARTCHAR 040D
ENCODING 1037
SWIDTH 720 0
DWIDTH 38 0
BBX 30 49 4 0
BITMAP
007E0000
003E0000
001F0000
000F8000
00078000
0003C000
0001E000
0000E000
00000000
00000000
00000000
F800007C
F800007C
F800007C
F800007C
F800007C
F80000FC
F80001FC
F80003FC
F80007FC
F8000FFC
F8001FFC
F8003FFC
F8003F7C
F8007E7C
F800FC7C
F801F87C
F803F07C
F807E07C
F80FC07C
F81FC07C
F83F807C
F83F007C
F87E007C
F8FC007C
F9F8007C
FBF0007C
FFE0007C
FFE0007C
FFC0007C
FF80007C
FF00007C
FE00007C
FC00007C
F800007C
F800007C
F800007C
F800007C
F800007C
ENDCHAR
STARTCHAR 040E
ENCODING 1038
SWIDTH 644 0
DWIDTH 34 0
BBX 32 48 1 0
BITMAP
00E00F00
00F00E00
00F81E00
007FFE00
003FFC00
001FF000
00038000
00000000
00000000
00000000
FC00003F
7E00003E
7E00007E
3E00007E
3F0000FC
1F0000FC
1F8000F8
0F8001F8
0FC001F0
0FC003F0
07C003F0
07E003E0
03E007E0
03F007C0
01F00FC0
01F80F80
00F80F80
00FC1F00
007C1F00
007C3F00
003E3E00
003E7E00
001F7C00
001F7C00
001FF800
000FF800
000FF000
0007F000
0007F000
0003E000
0003E000
0007C000
0007C000
001F8000
03FF8000
03FF0000
03FE0000
03FC0000
ENDCHAR
STARTCHAR 040F
ENCODING 1039
SWIDTH 720 0
DWIDTH 38 0
BBX 30 47 4 -9
BITMAP
F800007C
F800007C
F800007C
F800007C
F800007C
F800007C
F800007C
F800007C
F800007C
F800007C
F800007C
F800007C
F800007C
F800007C
F800007C
F800007C
F800007C
F800007C
F800007C
F800007C
F800007C
F800007C
F800007C
F800007C
F800007C
F800007C
F800007C
F800007C
F800007C
F800007C
F800007C
F800007C
F800007C
F800007C
FFFFFFFC
FFFFFFFC
FFFFFFFC
FFFFFFFC
000F8000
000F8000
000F8000
000F8000
000F8000
000F8000
000F8000
000F8000
000F8000
ENDCHAR
STARTCHAR 0410
ENCODING 1040
SWIDTH 663 0
DWIDTH 35 0
BBX 33 38 1 0
BITMAP
0007F00000
0007F00000
0007F80000
000FF80000
000FFC0000
000FFC0000
001F7C0000
001F7E0000
003F3E0000
003E3E0000
003E3F0000
007C1F0000
007C1F0000
007C1F8000
00F80F8000
00F80F8000
00F80FC000
01F007C000
01F007C000
01F007E000
03E003E000
03E003F000
07C003F000
07FFFFF000
07FFFFF800
0FFFFFF800
0FFFFFF800
0F8000FC00
1F8000FC00
1F00007C00
1F00007E00
3E00003E00
3E00003E00
7E00003F00
7C00001F00
7C00001F80
FC00001F80
F800000F80
ENDCHAR
STARTCHAR 0411
ENCODING 1041
SWIDTH 663 0
DWIDTH 35 0
BBX 29 38 4 0
BITMAP
FFFFFF80
FFFFFF80
FFFFFF80
FFFFFF80
F8000000
F8000000
F8000000
F8000000
F8000000
F8000000
F8000000
F8000000
F8000000
F8000000
F8000000
F8000000
FFFFF800
FFFFFF00
FFFFFF80
FFFFFFC0
F8007FE0
F80007F0
F80003F0
F80001F0
F80001F8
F80000F8
F80000F8
F80000F8
F80000F8
F80001F8
F80001F0
F80003F0
F80007F0
F8007FE0
FFFFFFC0
FFFFFF80
FFFFFF00
FFFFF800
ENDCHAR
STARTCHAR 0412
ENCODING 1042
SWIDTH 663 0
DWIDTH 35 0
BBX 29 38 4 0
BITMAP
FFFFF000
FFFFFE00
FFFFFF00
FFFFFF80
F800FFC0
F8000FC0
F80007E0
F80003E0
F80003E0
F80003E0
F80003E0
F80003E0
F80003E0
F80003E0
F80007C0
F8000FC0
F8007F80
FFFFFE00
FFFFFE00
FFFFFF80
FFFFFFC0
F8000FE0
F80003F0
F80001F0
F80000F8
F80000F8
F80000F8
F80000F8
F80000F8
F80000F8
F80001F8
F80001F0
F80003F0
F8003FE0
FFFFFFC0
FFFFFF80
FFFFFF00
FFFFFC00
ENDCHAR
STARTCHAR 0413
ENCODING 1043
SWIDTH 549 0
DWIDTH 29 0
BBX 24 38 4 0
BITMAP
FFFFFF
FFFFFF
FFFFFF
FFFFFF
F80000
F80000
F80000
F80000
F80000
F80000
F80000
F80000
F80000
F80000
F80000
F80000
F80000
F80000
F80000
F80000
F80000
F80000
F80000
F80000
F80000
F80000
F80000
F80000
F80000
F80000
F80000
F80000
F80000
F80000
F80000
F80000
F80000
F80000
ENDCHAR
STARTCHAR 0414
ENCODING 1044
SWIDTH 682 0
DWIDTH 36 0
BBX 34 47 1 -9
BITMAP
007FFFFE00
007FFFFE00
007FFFFE00
007FFFFE00
007C003E00
007C003E00
007C003E00
007C003E00
007C003E00
007C003E00
007C003E00
007C003E00
007C003E00
007C003E00
007C003E00
007C003E00
007C003E00
007C003E00
007C003E00
007C003E00
007C003E00
007C003E00
007C003E00
007C003E00
00F8003E00
00F8003E00
00F8003E00
00F0003E00
01F0003E00
03F0003E00
03E0003E00
07C0003E00
1F80003E00
FF00003E00
FFFFFFFFC0
FFFFFFFFC0
FFFFFFFFC0
FFFFFFFFC0
F0000007C0
F0000007C0
F0000007C0
F0000007C0
F0000007C0
F0000007C0
F0000007C0
F0000007C0
F0000007C0
ENDCHAR
STARTCHAR 0415
ENCODING 1045
SWIDTH 663 0
DWIDTH 35 0
BBX 28 38 4 0
BITMAP
FFFFFFE0
FFFFFFE0
FFFFFFE0
FFFFFFE0
F8000000
F8000000
F8000000
F8000000
F8000000
F8000000
F8000000
F8000000
F8000000
F8000000
F8000000
F8000000
F8000000
FFFFFFC0
FFFFFFC0
FFFFFFC0
FFFFFFC0
F8000000
F8000000
F8000000
F8000000
F8000000
F8000000
F8000000
F8000000
F8000000
F8000000
F8000000
F8000000
F8000000
FFFFFFF0
FFFFFFF0
FFFFFFF0
FFFFFFF0
ENDCHAR
STARTCHAR 0416
ENCODING 1046
SWIDTH 928 0
DWIDTH 49 0
BBX 49 38 0 0
BITMAP
3F0003E0007E00
1F0003E0007C00
1F8003E000F800
0F8003E001F800
0FC003E001F000
07E003E003F000
03E003E007E000
03F003E007C000
01F003E00FC000
01F803E00F8000
00FC03E01F8000
007C03E03F0000
007E03E03E0000
003E03E07E0000
003F03E07C0000
001F83E0FC0000
000FFFFFF80000
000FFFFFF00000
000FFFFFF00000
000FFFFFF80000
001F03E0FC0000
003F03E07C0000
003E03E03E0000
007C03E03F0000
00FC03E01F0000
00F803E00F8000
01F003E00FC000
03F003E007C000
03E003E003E000
07C003E003F000
0FC003E001F000
0F8003E000F800
1F8003E000FC00
3F0003E0007C00
3E0003E0003E00
7E0003E0003F00
FC0003E0001F00
F80003E0000F80
ENDCHAR
STARTCHAR 0417
ENCODING 1047
SWIDTH 606 0
DWIDTH 32 0
BBX 26 40 3 -1
BITMAP
007F8000
01FFE000
07FFF800
0FFFFC00
1FF3FE00
1F807E00
3F003F00
3E001F00
3E001F00
7C001F80
7C000F80
7C000F00
7C001F00
00001F00
00003F00
00007E00
0000FC00
003FFC00
003FF000
003FF800
003FFC00
0001FF00
00003F00
00001F80
00000F80
00000FC0
000007C0
F80007C0
F80007C0
F80007C0
F8000780
7C000F80
7C000F80
7E001F00
3F003F00
1FE3FE00
1FFFFC00
07FFF800
03FFF000
007F8000
ENDCHAR
STARTCHAR 0418
ENCODING 1048
SWIDTH 720 0
DWIDTH 38 0
BBX 30 38 4 0
BITMAP
F800007C
F800007C
F800007C
F800007C
F800007C
F80000FC
F80001FC
F80003FC
F80007FC
F8000FFC
F8001FFC
F8003FFC
F8003F7C
F8007E7C
F800FC7C
F801F87C
F803F07C
F807E07C
F80FC07C
F81FC07C
F83F807C
F83F007C
F87E007C
F8FC007C
F9F8007C
FBF0007C
FFE0007C
FFE0007C
FFC0007C
FF80007C
FF00007C
FE00007C
FC00007C
F800007C
F800007C
F800007C
F800007C
F800007C
ENDCHAR
STARTCHAR 0419
ENCODING 1049
SWIDTH 720 0
DWIDTH 38 0
BBX 30 48 4 0
BITMAP
01C00E00
01E01E00
01F03C00
00FFFC00
007FF800
003FF000
00070000
00000000
00000000
00000000
F800007C
F800007C
F800007C
F800007C
F800007C
F80000FC
F80001FC
F80003FC
F80007FC
F8000FFC
F8001FFC
F8003FFC
F8003F7C
F8007E7C
F800FC7C
F801F87C
F803F07C
F807E07C
F80FC07C
F81FC07C
F83F807C
F83F007C
F87E007C
F8FC007C
F9F8007C
FBF0007C
FFE0007C
FFC0007C
FFC0007C
FF80007C
FF00007C
FE00007C
FC00007C
F800007C
F800007C
F800007C
F800007C
F800007C
ENDCHAR
STARTCHAR 041A
ENCODING 1050
SWIDTH 587 0
DWIDTH 31 0
BBX 26 38 3 0
BITMAP
F8003E00
F8007E00
F8007C00
F800F800
F801F800
F801F000
F803F000
F803E000
F807C000
F80FC000
F80F8000
F81F8000
F81F0000
F83E0000
F87E0000
F87C0000
FFFC0000
FFF80000
FFF80000
FFFC0000
F87C0000
F83E0000
F83F0000
F81F0000
F80F8000
F80FC000
F807C000
F803E000
F803F000
F801F000
F800F800
F800FC00
F8007C00
F8003E00
F8003F00
F8001F00
F8000F80
F8000FC0
ENDCHAR
STARTCHAR 041B
ENCODING 1051
SWIDTH 663 0
DWIDTH 35 0
BBX 32 38 0 0
BITMAP
03FFFFFF
03FFFFFF
03FFFFFF
03FFFFFF
03E0001F
03E0001F
03E0001F
03E0001F
03E0001F
03E0001F
03E0001F
03E0001F
03E0001F
03E0001F
03E0001F
03E0001F
03E0001F
03E0001F
03E0001F
03E0001F
03E0001F
03E0001F
03E0001F
03E0001F
03E0001F
03E0001F
03E0001F
03E0001F
03E0001F
03E0001F
07C0001F
07C0001F
1F80001F
7F80001F
FF00001F
FE00001F
FC00001F
F000001F
ENDCHAR
STARTCHAR 041C
ENCODING 1052
SWIDTH 833 0
DWIDTH 44 0
BBX 36 38 4 0
BITMAP
FE000007F0
FE000007F0
FF00000FF0
FF00000FF0
FF00000FF0
FF80001FF0
FF80001FF0
FF80001FF0
FFC0003FF0
FBC0003DF0
FBC0003DF0
FBE0007DF0
F9E00079F0
F9E00079F0
F9F000F9F0
F8F000F1F0
F8F000F1F0
F8F801F1F0
F87801E1F0
F87801E1F0
F87C03E1F0
F83C03C1F0
F83C03C1F0
F83E07C1F0
F81E0781F0
F81F0781F0
F80F0F81F0
F80F0F01F0
F80F8F01F0
F8079F01F0
F8079E01F0
F807DE01F0
F803FE01F0
F803FC01F0
F803FC01F0
F801F801F0
F801F801F0
F801F801F0
ENDCHAR
STARTCHAR 041D
ENCODING 1053
SWIDTH 720 0
DWIDTH 38 0
BBX 30 38 4 0
BITMAP
F800007C
F800007C
F800007C
F800007C
F800007C
F800007C
F800007C
F800007C
F800007C
F800007C
F800007C
F800007C
F800007C
F800007C
F800007C
F800007C
F800007C
FFFFFFFC
FFFFFFFC
FFFFFFFC
FFFFFFFC
F800007C
F800007C
F800007C
F800007C
F800007C
F800007C
F800007C
F800007C
F800007C
F800007C
F800007C
F800007C
F800007C
F800007C
F800007C
F800007C
F800007C
ENDCHAR
STARTCHAR 041E
ENCODING 1054
SWIDTH 776 0
DWIDTH 41 0
BBX 37 40 2 -1
BITMAP
0003FE0000
001FFFC000
007FFFF000
01FFFFFC00
03FF8FFE00
07F800FF00
0FE0003F80
0FC0001FC0
1F80000FC0
3F000007E0
3E000003E0
7E000003F0
7C000001F0
7C000001F0
7C000001F8
F8000000F8
F8000000F8
F8000000F8
F8000000F8
F8000000F8
F8000000F8
F8000000F8
F8000000F8
F8000000F8
F8000000F8
7C000000F8
7C000001F0
7C000001F0
7E000003F0
3E000003E0
3F000007E0
1F80000FC0
1FC0001FC0
0FE0003F80
07F800FF00
03FF8FFE00
01FFFFFC00
007FFFF000
001FFFC000
0003FE0000
ENDCHAR
STARTCHAR 041F
ENCODING 1055
SWIDTH 720 0
DWIDTH 38 0
BBX 30 38 4 0
BITMAP
FFFFFFFC
FFFFFFFC
FFFFFFFC
FFFFFFFC
F800007C
F800007C
F800007C
F800007C
F800007C
F800007C
F800007C
F800007C
F800007C
F800007C
F800007C
F800007C
F800007C
F800007C
F800007C
F800007C
F800007C
F800007C
F800007C
F800007C
F800007C
F800007C
F800007C
F800007C
F800007C
F800007C
F800007C
F800007C
F800007C
F800007C
F800007C
F800007C
F800007C
F800007C
ENDCHAR
STARTCHAR 0420
ENCODING 1056
SWIDTH 663 0
DWIDTH 35 0
BBX 28 38 5 0
BITMAP
FFFFF000
FFFFFE00
FFFFFF00
FFFFFF80
F800FFC0
F8000FC0
F80007E0
F80003E0
F80003E0
F80003F0
F80003F0
F80003F0
F80003F0
F80003E0
F80003E0
F80007E0
F8000FC0
F800FFC0
FFFFFF80
FFFFFF00
FFFFFE00
FFFFF000
F8000000
F8000000
F8000000
F8000000
F8000000
F8000000
F8000000
F8000000
F8000000
F8000000
F8000000
F8000000
F8000000
F8000000
F8000000
F8000000
ENDCHAR
STARTCHAR 0421
ENCODING 1057
SWIDTH 720 0
DWIDTH 38 0
BBX 34 40 2 -1
BITMAP
0003FE0000
001FFFC000
007FFFF000
01FFFFF800
03FF0FFC00
07F800FE00
0FE0007F00
0FC0003F00
1F80001F80
1F00000F80
3E00000F80
3E00000F80
7C00000F80
7C00000000
7C00000000
7C00000000
F800000000
F800000000
F800000000
F800000000
F800000000
F800000000
F800000000
F800000000
7C00000000
7C000007C0
7C000007C0
7C000007C0
3E00000FC0
3E00000F80
3F00000F80
1F80001F80
0FC0003F00
0FE0007E00
07F800FE00
03FF0FFC00
01FFFFF800
00FFFFE000
003FFF8000
0007FC0000
ENDCHAR
STARTCHAR 0422
ENCODING 1058
SWIDTH 606 0
DWIDTH 32 0
BBX 30 38 1 0
BITMAP
FFFFFFFC
FFFFFFFC
FFFFFFFC
FFFFFFFC
0007C000
0007C000
0007C000
0007C000
0007C000
0007C000
0007C000
0007C000
0007C000
0007C000
0007C000
0007C000
0007C000
0007C000
0007C000
0007C000
0007C000
0007C000
0007C000
0007C000
0007C000
0007C000
0007C000
0007C000
0007C000
0007C000
0007C000
0007C000
0007C000
0007C000
0007C000
0007C000
0007C000
0007C000
ENDCHAR
STARTCHAR 0423
ENCODING 1059
SWIDTH 644 0
DWIDTH 34 0
BBX 32 38 1 0
BITMAP
FC00003F
7E00003E
7E00007E
3E00007E
3F0000FC
1F0000FC
1F8000F8
0F8001F8
0FC001F0
0FC003F0
07C003F0
07E003E0
03E007E0
03F007C0
01F00FC0
01F80F80
00F80F80
00FC1F00
007C1F00
007C3F00
003E3E00
003E7E00
001F7C00
001F7C00
001FF800
000FF800
000FF000
0007F000
0007F000
0003E000
0003E000
0007C000
0007C000
001F8000
03FF8000
03FF0000
03FE0000
03FC0000
ENDCHAR
STARTCHAR 0424
ENCODING 1060
SWIDTH 757 0
DWIDTH 40 0
BBX 38 40 1 -1
BITMAP
00007C0000
00007C0000
00007C0000
00007C0000
00007C0000
000FFFC000
007FFFF800
01FFFFFE00
03FFFFFF80
07FC7CFFC0
0FE07C1FE0
1F807C07E0
3F007C03F0
3E007C01F0
7E007C01F8
7C007C00F8
7C007C00F8
7C007C00FC
7C007C007C
F8007C007C
F8007C007C
7C007C007C
7C007C00F8
7C007C00F8
7C007C00F8
7E007C01F8
3E007C01F0
3F007C03F0
1FC07C07E0
0FE07C1FE0
07FC7CFFC0
03FFFFFF00
01FFFFFE00
007FFFF800
000FFFC000
00007C0000
00007C0000
00007C0000
00007C0000
00007C0000
ENDCHAR
STARTCHAR 0425
ENCODING 1061
SWIDTH 663 0
DWIDTH 35 0
BBX 33 38 1 0
BITMAP
7E00003F00
3F00003E00
1F80007E00
1F8000FC00
0FC000F800
07E001F800
07E003F000
03F003E000
01F007E000
01F80FC000
00FC0F8000
007C1F0000
003E3F0000
003F3E0000
001F7C0000
000FFC0000
000FF80000
0007F00000
0003F00000
0007F00000
000FF80000
000FFC0000
001F7C0000
003F7E0000
007E3F0000
007C1F0000
00FC1F8000
01F80FC000
01F007E000
03F007E000
07E003F000
07C001F800
0FC001F800
1F8000FC00
3F00007E00
3F00007E00
7E00003F00
FC00001F80
ENDCHAR
STARTCHAR 0426
ENCODING 1062
SWIDTH 738 0
DWIDTH 39 0
BBX 33 47 4 -9
BITMAP
F800007C00
F800007C00
F800007C00
F800007C00
F800007C00
F800007C00
F800007C00
F800007C00
F800007C00
F800007C00
F800007C00
F800007C00
F800007C00
F800007C00
F800007C00
F800007C00
F800007C00
F800007C00
F800007C00
F800007C00
F800007C00
F800007C00
F800007C00
F800007C00
F800007C00
F800007C00
F800007C00
F800007C00
F800007C00
F800007C00
F800007C00
F800007C00
F800007C00
F800007C00
FFFFFFFF80
FFFFFFFF80
FFFFFFFF80
FFFFFFFF80
0000000F80
0000000F80
0000000F80
0000000F80
0000000F80
0000000F80
0000000F80
0000000F80
0000000F80
ENDCHAR
STARTCHAR 0427
ENCODING 1063
SWIDTH 663 0
DWIDTH 35 0
BBX 30 38 2 0
BITMAP
F800007C
F800007C
F800007C
F800007C
F800007C
F800007C
F800007C
F800007C
F800007C
F800007C
F800007C
F800007C
F800007C
F800007C
F800007C
F800007C
7C00007C
7C00007C
7E00007C
7F0000FC
3FF83FFC
1FFFFFFC
0FFFFFFC
03FFFFFC
007FF07C
0000007C
0000007C
0000007C
0000007C
0000007C
0000007C
0000007C
0000007C
0000007C
0000007C
0000007C
0000007C
0000007C
ENDCHAR
STARTCHAR 0428
ENCODING 1064
SWIDTH 909 0
DWIDTH 48 0
BBX 43 38 3 0
BITMAP
F8001F0003E0
F8001F0003E0
F8001F0003E0
F8001F0003E0
F8001F0003E0
F8001F0003E0
F8001F0003E0
F8001F0003E0
F8001F0003E0
F8001F0003E0
F8001F0003E0
F8001F0003E0
F8001F0003E0
F8001F0003E0
F8001F0003E0
F8001F0003E0
F8001F0003E0
F8001F0003E0
F8001F0003E0
F8001F0003E0
F8001F0003E0
F8001F0003E0
F8001F0003E0
F8001F0003E0
F8001F0003E0
F8001F0003E0
F8001F0003E0
F8001F0003E0
F8001F0003E0
F8001F0003E0
F8001F0003E0
F8001F0003E0
F8001F0003E0
F8001F0003E0
FFFFFFFFFFE0
FFFFFFFFFFE0
FFFFFFFFFFE0
FFFFFFFFFFE0
ENDCHAR
STARTCHAR 0429
ENCODING 1065
SWIDTH 947 0
DWIDTH 50 0
BBX 46 47 3 -9
BITMAP
F8001F0001E0
F8001F0001E0
F8001F0001E0
F8001F0001E0
F8001F0001E0
F8001F0001E0
F8001F0001E0
F8001F0001E0
F8001F0001E0
F8001F0001E0
F8001F0001E0
F8001F0001E0
F8001F0001E0
F8001F0001E0
F8001F0001E0
F8001F0001E0
F8001F0001E0
F8001F0001E0
F8001F0001E0
F8001F0001E0
F8001F0001E0
F8001F0001E0
F8001F0001E0
F8001F0001E0
F8001F0001E0
F8001F0001E0
F8001F0001E0
F8001F0001E0
F8001F0001E0
F8001F0001E0
F8001F0001E0
F8001F0001E0
F8001F0001E0
F8001F0001E0
FFFFFFFFFFFC
FFFFFFFFFFFC
FFFFFFFFFFFC
FFFFFFFFFFFC
00000000007C
00000000007C
00000000007C
00000000007C
00000000007C
00000000007C
00000000007C
00000000007C
00000000007C
ENDCHAR
STARTCHAR 042A
ENCODING 1066
SWIDTH 795 0
DWIDTH 42 0
BBX 42 38 -2 0
BITMAP
FFFFF0000000
FFFFF0000000
FFFFF0000000
FFFFF0000000
0001F0000000
0001F0000000
0001F0000000
0001F0000000
0001F0000000
0001F0000000
0001F0000000
0001F0000000
0001F0000000
0001F0000000
0001F0000000
0001F0000000
0001FFFFE000
0001FFFFF800
0001FFFFFE00
0001FFFFFF00
0001F001FF00
0001F0003F80
0001F0000FC0
0001F0000FC0
0001F00007C0
0001F00007C0
0001F00007C0
0001F00007C0
0001F00007C0
0001F00007C0
0001F0000FC0
0001F0000F80
0001F0003F80
0001F001FF00
0001FFFFFF00
0001FFFFFE00
0001FFFFF800
0001FFFFC000
ENDCHAR
STARTCHAR 042B
ENCODING 1067
SWIDTH 890 0
DWIDTH 47 0
BBX 38 38 4 0
BITMAP
F80000007C
F80000007C
F80000007C
F80000007C
F80000007C
F80000007C
F80000007C
F80000007C
F80000007C
F80000007C
F80000007C
F80000007C
F80000007C
F80000007C
F80000007C
F80000007C
FFFFFC007C
FFFFFF007C
FFFFFFC07C
FFFFFFE07C
F8003FE07C
F80007F07C
F80001F07C
F80001F87C
F80000F87C
F80000F87C
F80000F87C
F80000F87C
F80000F87C
F80000F87C
F80001F87C
F80001F07C
F80007F07C
F8003FE07C
FFFFFFE07C
FFFFFFC07C
FFFFFF007C
FFFFF8007C
ENDCHAR
STARTCHAR 042C
ENCODING 1068
SWIDTH 663 0
DWIDTH 35 0
BBX 29 38 4 0
BITMAP
F8000000
F8000000
F8000000
F8000000
F8000000
F8000000
F8000000
F8000000
F8000000
F8000000
F8000000
F8000000
F8000000
F8000000
F8000000
F8000000
FFFFF800
FFFFFF00
FFFFFF80
FFFFFFC0
F8007FE0
F80007F0
F80003F0
F80001F0
F80001F8
F80000F8
F80000F8
F80000F8
F80000F8
F80000F8
F80001F0
F80003F0
F80007F0
F8003FE0
FFFFFFC0
FFFFFF80
FFFFFF00
FFFFF800
ENDCHAR
STARTCHAR 042D
ENCODING 1069
SWIDTH 720 0
DWIDTH 38 0
BBX 36 40 1 -1
BITMAP
0007FC0000
003FFF8000
00FFFFE000
03FFFFF800
07FE1FFC00
0FF001FE00
1FC0007F00
1F80003F80
3F00001F80
3E00000FC0
7C000007C0
7C000007E0
00000003E0
00000003E0
00000001F0
00000001F0
00000001F0
00000001F0
0001FFFFF0
0001FFFFF0
0001FFFFF0
0001FFFFF0
00000001F0
00000001F0
00000001F0
08000001F0
F8000003E0
F8000003E0
7C000007E0
7C000007C0
7E00000FC0
3F00000F80
1F80001F80
1FC0007F00
0FF000FE00
07FF0FFC00
03FFFFF800
00FFFFE000
003FFF8000
0007FC0000
ENDCHAR
STARTCHAR 042E
ENCODING 1070
SWIDTH 1004 0
DWIDTH 53 0
BBX 47 40 4 -1
BITMAP
0000003FE000
F80001FFF800
F80007FFFE00
F8000FFFFF80
F8003FF8FFC0
F8003F801FE0
F8007E0007E0
F800FC0003F0
F801F80001F8
F801F00000F8
F803F00000FC
F803E000007C
F803E000007C
F807C000007C
F807C000003E
F807C000003E
F807C000003E
FFFFC000003E
FFFFC000003E
FFFF8000003E
FFFF8000003E
F807C000003E
F807C000003E
F807C000003E
F807C000003E
F807C000003E
F807C000007C
F803E000007C
F803E000007C
F803F00000F8
F801F00000F8
F801F80001F0
F800FC0003F0
F8007E0007E0
F8007F801FE0
F8003FF8FFC0
F8000FFFFF00
F80007FFFE00
F80001FFF800
0000003FC000
ENDCHAR
STARTCHAR 042F
ENCODING 1071
SWIDTH 720 0
DWIDTH 38 0
BBX 30 38 3 0
BITMAP
007FFFFC
03FFFFFC
0FFFFFFC
1FFFFFFC
1FF0007C
3F80007C
3E00007C
7E00007C
7C00007C
7C00007C
7C00007C
7C00007C
7C00007C
3C00007C
3E00007C
3E00007C
1F80007C
0FF0007C
07FFFFFC
01FFFFFC
07FFFFFC
0FFFFFFC
1FC0007C
1F00007C
3E00007C
3E00007C
3E00007C
3E00007C
3E00007C
3E00007C
3E00007C
3E00007C
3E00007C
3E00007C
3C00007C
7C00007C
7C00007C
FC00007C
ENDCHAR
STARTCHAR 0430
ENCODING 1072
SWIDTH 549 0
DWIDTH 29 0
BBX 26 30 2 -1
BITMAP
00FF8000
03FFF000
0FFFF800
1FFFFC00
3F81FC00
3E007E00
3E003E00
3C003E00
7C003E00
00003E00
00003E00
00007E00
0007FE00
01FFFE00
0FFFFE00
1FFFBE00
3FF03E00
7F003E00
7C003E00
F8003E00
F8003E00
F8003E00
F8003E00
F8007E00
7C00FE00
7E03FE00
3FFFDFC0
3FFF9FC0
0FFE1FC0
03F80FC0
ENDCHAR
STARTCHAR 0431
ENCODING 1073
SWIDTH 568 0
DWIDTH 30 0
BBX 25 43 3 -1
BITMAP
0001F000
0001F000
0001F000
0001F000
0001F000
0007E000
007FE000
01FFC000
07FF8000
0FFC0000
1FC00000
1F000000
3C000000
3C7F0000
79FFC000
7BFFF000
7FFFF800
FFC1FC00
FF00FE00
FE003E00
FC003E00
F8001F00
F8001F00
F8000F00
F8000F00
F0000F80
F0000F80
F0000F80
F0000F80
F0000F80
F0000F80
F8000F00
F8000F00
F8001F00
7C001F00
7C003E00
7E003E00
3F007C00
1FC1FC00
1FFFF800
0FFFF000
03FFC000
00FF0000
ENDCHAR
STARTCHAR 0432
ENCODING 1074
SWIDTH 530 0
DWIDTH 28 0
BBX 24 28 3 0
BITMAP
FFFFC0
FFFFF0
FFFFF8
FFFFF8
F000FC
F0007C
F0003C
F0003C
F0003C
F0007C
F000FC
FFFFF8
FFFFF0
FFFFF0
FFFFFC
F0007E
F0003E
F0001E
F0001F
F0001F
F0001F
F0001E
F0003E
F0007E
FFFFFC
FFFFFC
FFFFF8
FFFFE0
ENDCHAR
STARTCHAR 0433
ENCODING 1075
SWIDTH 360 0
DWIDTH 19 0
BBX 17 28 3 0
BITMAP
FFFF80
FFFF80
FFFF80
FFFF80
F80000
F80000
F80000
F80000
F80000
F80000
F80000
F80000
F80000
F80000
F80000
F80000
F80000
F80000
F80000
F80000
F80000
F80000
F80000
F80000
F80000
F80000
F80000
F80000
ENDCHAR
STARTCHAR 0434
ENCODING 1076
SWIDTH 587 0
DWIDTH 31 0
BBX 28 33 1 -5
BITMAP
00FFFFC0
00FFFFC0
00FFFFC0
00FFFFC0
00F007C0
00F007C0
00F007C0
00F007C0
00F007C0
00F007C0
01F007C0
01F007C0
01F007C0
01F007C0
01E007C0
03E007C0
03E007C0
03C007C0
07C007C0
07C007C0
0F8007C0
1F8007C0
1F0007C0
7E0007C0
FFFFFFF0
FFFFFFF0
FFFFFFF0
FFFFFFF0
F00001F0
F00001F0
F00001F0
F00001F0
F00001F0
ENDCHAR
STARTCHAR 0435
ENCODING 1077
SWIDTH 549 0
DWIDTH 29 0
BBX 25 30 2 -1
BITMAP
007F8000
01FFE000
07FFF800
0FFFFC00
1FC1FE00
1F007E00
3E003F00
3C001F00
7C000F80
7C000F80
78000F80
F8000F80
FFFFFF80
FFFFFF80
FFFFFF80
FFFFFF80
F8000000
F8000000
F8000000
78000000
7C000F80
7C000F00
3E001F00
3E001F00
3F803E00
1FE0FC00
0FFFFC00
07FFF800
03FFE000
007F0000
ENDCHAR
STARTCHAR 0436
ENCODING 1078
SWIDTH 663 0
DWIDTH 35 0
BBX 37 28 -1 0
BITMAP
1F00F807E0
1F00F807C0
0F80F80FC0
0F80F80F80
07C0F81F80
07C0F81F00
03E0F83F00
03E0F83E00
01F0F87E00
01F0F87C00
00F8F8FC00
00FFFFF800
007FFFF800
007FFFF800
00FFFFF800
01F8F87C00
01F0F87C00
03F0F83E00
03E0F83F00
07C0F81F00
07C0F81F80
0F80F80F80
1F80F807C0
1F00F807C0
3E00F803E0
3E00F803F0
7C00F801F0
FC00F800F8
ENDCHAR
STARTCHAR 0437
ENCODING 1079
SWIDTH 454 0
DWIDTH 24 0
BBX 20 30 2 -1
BITMAP
01F800
07FF00
0FFF80
1FFFC0
3F0FE0
3E03E0
7C03E0
7C01E0
7801E0
7803E0
0003E0
000FC0
00FF80
00FF00
00FF80
00FFC0
000FE0
0003E0
0001F0
0001F0
F801F0
F801F0
F801F0
7801F0
7C03E0
7F07E0
3FFFC0
1FFF80
0FFF00
03F800
ENDCHAR
STARTCHAR 0438
ENCODING 1080
SWIDTH 568 0
DWIDTH 30 0
BBX 21 28 4 0
BITMAP
F80078
F80078
F80078
F800F8
F801F8
F801F8
F803F8
F807F8
F80FF8
F80F78
F81F78
F83E78
F87C78
F87878
F8F878
F9F078
FBE078
FBE078
FFC078
FF8078
FF0078
FF0078
FE0078
FC0078
F80078
F80078
F80078
F80078
ENDCHAR
STARTCHAR 0439
ENCODING 1081
SWIDTH 568 0
DWIDTH 30 0
BBX 21 39 4 0
BITMAP
1C00E0
1C01C0
1E03C0
0FFFC0
0FFF80
07FF00
01FC00
000000
000000
000000
000000
F80078
F80078
F80078
F800F8
F801F8
F801F8
F803F8
F807F8
F80FF8
F80F78
F81F78
F83E78
F87C78
F87878
F8F878
F9F078
FBE078
FBE078
FFC078
FF8078
FF0078
FF0078
FE0078
FC0078
F80078
F80078
F80078
F80078
ENDCHAR
STARTCHAR 043A
ENCODING 1082
SWIDTH 435 0
DWIDTH 23 0
BBX 23 28 2 0
BITMAP
F001F0
F001F0
F003E0
F003E0
F007C0
F007C0
F00F80
F00F80
F01F00
F01F00
F03E00
FFFE00
FFFC00
FFFC00
FFFE00
F03E00
F01F00
F01F80
F00F80
F007C0
F007C0
F003E0
F003F0
F001F0
F000F8
F000F8
F0007C
F0007E
ENDCHAR
STARTCHAR 043B
ENCODING 1083
SWIDTH 587 0
DWIDTH 31 0
BBX 24 28 2 0
BITMAP
0FFFFF
0FFFFF
0FFFFF
0FFFFF
0F000F
0F000F
0F000F
0F000F
0F000F
0F000F
0F000F
0F000F
0F000F
0F000F
0F000F
0F000F
0F000F
0F000F
0F000F
0F000F
1F000F
1F000F
3E000F
7E000F
FC000F
F8000F
F0000F
C0000F
ENDCHAR
STARTCHAR 043C
ENCODING 1084
SWIDTH 682 0
DWIDTH 36 0
BBX 32 28 2 0
BITMAP
FE00007F
FF00007F
FF0000FF
FF0000FF
FF8000EF
FF8001EF
FB8001EF
FBC003CF
FBC003CF
F9E0038F
F9E0078F
F8E0078F
F8F00F0F
F8F00F0F
F8780F0F
F8781E0F
F8781E0F
F83C3C0F
F83C3C0F
F81E3C0F
F81E780F
F81E780F
F80FF80F
F80FF00F
F807F00F
F807E00F
F807E00F
F803E00F
ENDCHAR
STARTCHAR 043D
ENCODING 1085
SWIDTH 549 0
DWIDTH 29 0
BBX 21 28 4 0
BITMAP
F00078
F00078
F00078
F00078
F00078
F00078
F00078
F00078
F00078
F00078
F00078
FFFFF8
FFFFF8
FFFFF8
FFFFF8
F00078
F00078
F00078
F00078
F00078
F00078
F00078
F00078
F00078
F00078
F00078
F00078
F00078
ENDCHAR
STARTCHAR 043E
ENCODING 1086
SWIDTH 549 0
DWIDTH 29 0
BBX 25 30 2 -1
BITMAP
007F8000
01FFE000
07FFF800
0FFFFC00
1FC1FC00
3F007E00
3E003F00
7E001F00
7C001F00
7C000F80
78000F80
F8000F80
F8000F80
F8000780
F8000780
F8000780
F8000780
F8000F80
F8000F80
78000F80
7C000F80
7C001F00
7E001F00
3E003F00
3F007E00
1FC1FC00
0FFFF800
07FFF000
03FFE000
007F0000
ENDCHAR
STARTCHAR 043F
ENCODING 1087
SWIDTH 549 0
DWIDTH 29 0
BBX 21 28 4 0
BITMAP
FFFFF8
FFFFF8
FFFFF8
FFFFF8
F000F8
F000F8
F000F8
F000F8
F000F8
F000F8
F000F8
F000F8
F000F8
F000F8
F000F8
F000F8
F000F8
F000F8
F000F8
F000F8
F000F8
F000F8
F000F8
F000F8
F000F8
F000F8
F000F8
F000F8
ENDCHAR
STARTCHAR 0440
ENCODING 1088
SWIDTH 549 0
DWIDTH 29 0
BBX 25 40 3 -11
BITMAP
003F8000
F0FFE000
F3FFF000
F7FFF800
F7C3FC00
FF00FE00
FE003E00
FC003F00
FC001F00
F8001F00
F8000F00
F8000F80
F8000F80
F8000F80
F8000F80
F8000F80
F8000F80
F8000F80
F8000F80
F8000F00
F8001F00
FC001F00
FC003F00
FE003E00
FF007E00
FFC1FC00
F7FFF800
F3FFF000
F1FFE000
F07F0000
F0000000
F0000000
F0000000
F0000000
F0000000
F0000000
F0000000
F0000000
F0000000
F0000000
ENDCHAR
STARTCHAR 0441
ENCODING 1089
SWIDTH 492 0
DWIDTH 26 0
BBX 23 30 2 -1
BITMAP
007F00
03FFC0
07FFF0
0FFFF8
1F83F8
3F00FC
7E007C
7C003E
78003E
F8003E
F80000
F80000
F00000
F00000
F00000
F00000
F00000
F00000
F00000
F8003E
F8003E
F8003E
7C003C
7E007C
3F00FC
3F83F8
1FFFF0
0FFFE0
03FFC0
00FE00
ENDCHAR
STARTCHAR 0442
ENCODING 1090
SWIDTH 454 0
DWIDTH 24 0
BBX 20 28 2 0
BITMAP
FFFFF0
FFFFF0
FFFFF0
FFFFF0
00F000
00F000
00F000
00F000
00F000
00F000
00F000
00F000
00F000
00F000
00F000
00F000
00F000
00F000
00F000
00F000
00F000
00F000
00F000
00F000
00F000
00F000
00F000
00F000
ENDCHAR
STARTCHAR 0443
ENCODING 1091
SWIDTH 492 0
DWIDTH 26 0
BBX 24 39 1 -11
BITMAP
F8001F
78001F
7C001E
7C003E
3C003E
3E003C
3E007C
1E007C
1F0078
1F00F8
0F00F0
0F80F0
0F81F0
0781E0
07C1E0
07C3E0
03C3C0
03E7C0
03E7C0
01E780
01FF80
01FF00
00FF00
00FF00
00FE00
007E00
007E00
007C00
007C00
007800
007800
00F800
00F000
01F000
03F000
3FE000
3FC000
3FC000
3F0000
ENDCHAR
STARTCHAR 0444
ENCODING 1092
SWIDTH 814 0
DWIDTH 43 0
BBX 36 47 4 -12
BITMAP
0001F00000
0001F00000
0001F00000
0001F00000
0001F00000
0001F00000
0001F00000
003FFFC000
01FFFFF000
03FFFFFC00
0FFFFFFE00
1FE1F07F00
1F81F01F80
3E01F00FC0
7E01F007C0
7C01F003E0
7801F003E0
F801F001E0
F801F001F0
F801F001F0
F001F001F0
F001F001F0
F001F001F0
F801F001F0
F801F001F0
F801F001E0
7C01F003E0
7C01F003E0
7E01F007C0
3F01F00FC0
1F81F03F80
0FF1F0FF00
07FFFFFE00
03FFFFF800
00FFFFF000
001FFF8000
0001F00000
0001F00000
0001F00000
0001F00000
0001F00000
0001F00000
0001F00000
0001F00000
0001F00000
0001F00000
0001F00000
ENDCHAR
STARTCHAR 0445
ENCODING 1093
SWIDTH 492 0
DWIDTH 26 0
BBX 23 28 2 0
BITMAP
F8003E
FC007C
7C00F8
3E00F8
3F01F0
1F03E0
0F83E0
07C7C0
07CF80
03EF80
01FF00
01FE00
00FC00
007C00
00FC00
00FE00
01FF00
03FF00
03CF80
07C7C0
0F87C0
0F03E0
1F01E0
3E01F0
3C00F8
7C00F8
F8007C
F0003E
ENDCHAR
STARTCHAR 0446
ENCODING 1094
SWIDTH 568 0
DWIDTH 30 0
BBX 22 36 5 -8
BITMAP
F000F0
F000F0
F000F0
F000F0
F000F0
F000F0
F000F0
F000F0
F000F0
F000F0
F000F0
F000F0
F000F0
F000F0
F000F0
F000F0
F000F0
F000F0
F000F0
F000F0
F000F0
F000F0
F000F0
F000F0
FFFFFC
FFFFFC
FFFFFC
FFFFFC
00003C
00003C
00003C
00003C
00003C
00003C
00003C
00003C
ENDCHAR
STARTCHAR 0447
ENCODING 1095
SWIDTH 530 0
DWIDTH 28 0
BBX 20 28 3 0
BITMAP
F000F0
F000F0
F000F0
F000F0
F000F0
F000F0
F000F0
F000F0
F000F0
F000F0
F000F0
F800F0
F800F0
FC00F0
FE03F0
7FFFF0
3FFFF0
1FFFF0
07F8F0
0000F0
0000F0
0000F0
0000F0
0000F0
0000F0
0000F0
0000F0
0000F0
ENDCHAR
STARTCHAR 0448
ENCODING 1096
SWIDTH 795 0
DWIDTH 42 0
BBX 36 28 3 0
BITMAP
F800F001F0
F800F001F0
F800F001F0
F800F001F0
F800F001F0
F800F001F0
F800F001F0
F800F001F0
F800F001F0
F800F001F0
F800F001F0
F800F001F0
F800F001F0
F800F001F0
F800F001F0
F800F001F0
F800F001F0
F800F001F0
F800F001F0
F800F001F0
F800F001F0
F800F001F0
F800F001F0
F800F001F0
FFFFFFFFF0
FFFFFFFFF0
FFFFFFFFF0
FFFFFFFFF0
ENDCHAR
STARTCHAR 0449
ENCODING 1097
SWIDTH 814 0
DWIDTH 43 0
BBX 37 36 4 -8
BITMAP
F001F001E0
F001F001E0
F001F001E0
F001F001E0
F001F001E0
F001F001E0
F001F001E0
F001F001E0
F001F001E0
F001F001E0
F001F001E0
F001F001E0
F001F001E0
F001F001E0
F001F001E0
F001F001E0
F001F001E0
F001F001E0
F001F001E0
F001F001E0
F001F001E0
F001F001E0
F001F001E0
F001F001E0
FFFFFFFFF8
FFFFFFFFF8
FFFFFFFFF8
FFFFFFFFF8
0000000078
0000000078
0000000078
0000000078
0000000078
0000000078
0000000078
0000000078
ENDCHAR
ENDFONT
